{
.appVersion = "3151";
.formatVersion = 3;
axes = (
{
name = Weight;
tag = wght;
},
{
name = Width;
tag = wdth;
}
);
customParameters = (
{
name = "Use Typo Metrics";
value = 1;
},
{
name = fsType;
value = (
);
}
);
date = "2022-07-30 15:19:26 +0000";
familyName = "Duyet Serif";
featurePrefixes = (
{
automatic = 1;
code = "languagesystem DFLT dflt;

languagesystem latn dflt;
languagesystem latn AZE;
languagesystem latn CRT;
languagesystem latn KAZ;
languagesystem latn TAT;
languagesystem latn TRK;
languagesystem latn ROM;
languagesystem latn MOL;
languagesystem latn CAT;
";
name = Languagesystems;
}
);
features = (
{
automatic = 1;
code = "feature locl;
feature ordn;
feature case;
feature ss01;
";
tag = aalt;
},
{
code = "lookup ccmp_Other_1 {
	@CombiningTopAccents = [acutecomb brevecomb caroncomb circumflexcomb commaturnedabovecomb dieresiscomb dotaccentcomb gravecomb hungarumlautcomb macroncomb ringcomb tildecomb];
	@CombiningNonTopAccents = [cedillacomb ogonekcomb];
	sub [i j]' @CombiningTopAccents by [idotless jdotless];
	sub [i j]' @CombiningNonTopAccents @CombiningTopAccents by [idotless jdotless];
	sub iogonek' @CombiningTopAccents by idotless ogonekcomb;
} ccmp_Other_1;
";
tag = ccmp;
},
{
automatic = 1;
code = "lookup locl_latn_0 {
	script latn;
	language AZE;
	sub i by idotaccent;
	language CRT;
	sub i by idotaccent;
	language KAZ;
	sub i by idotaccent;
	language TAT;
	sub i by idotaccent;
	language TRK;
	sub i by idotaccent;
} locl_latn_0;

lookup locl_latn_1 {
	script latn;
	language ROM;
	sub Scedilla by Scommaaccent;
	sub scedilla by scommaaccent;
	language MOL;
	sub Scedilla by Scommaaccent;
	sub scedilla by scommaaccent;
} locl_latn_1;

lookup locl_latn_2 {
	script latn;
	language CAT;
	sub l periodcentered' l by periodcentered.loclCAT;
	sub L periodcentered' L by periodcentered.loclCAT.case;
} locl_latn_2;
";
tag = locl;
},
{
automatic = 1;
code = "sub [zero one two three four five six seven eight nine] [A a]' by ordfeminine;

glyphs = (
{
glyphname = horncomb;
layers = (
{
anchors = (
{
name = _topright;
pos = (0,0);
}
);
associatedMasterId = "";
layerId = m01;
shapes = (
{
closed = 1;
nodes = (
(-34,626,ls),
(-27,621,o),
(-21,613,o),
(-18,604,cs),
(-15,595,o),
(-13,583,o),
(-13,568,cs),
(-13,552,o),
(-18,535,o),
(-29,519,cs),
(-39,502,o),
(-55,487,o),
(-76,476,cs),
(-98,464,o),
(-126,458,o),
(-161,458,cs),
(-162,458,ls),
(-123,459,o),
(-90,461,o),
(-64,466,cs),
(-38,471,o),
(-18,477,o),
(-3,485,cs),
(14,419,o),
(26,426,o),
(33,434,cs),
(40,443,o),
(45,451,o),
(45,461,cs),
(45,479,o),
(36,493,o),
(20,505,cs),
(3,517,o),
(-14,619,o),
(-33,626,cs)
);
}
);
width = 0;
}
);
unicode = 795;
},
{
glyphname = dotbelowcomb;
layers = (
{
anchors = (
{
name = _bottom;
pos = (-10,0);
}
);
associatedMasterId = "";
layerId = m01;
shapes = (
{
closed = 1;
nodes = (
(31,-150,ls),
(41,-150,o),
(49,-148,o),
(57,-144,cs),
(66,-141,o),
(71,-137,o),
(76,-131,cs),
(80,-126,o),
(83,-120,o),
(83,-113,cs),
(82,-104,o),
(77,-95,o),
(68,-88,cs),
(57,-81,o),
(46,-77,o),
(32,-77,cs),
(17,-77,o),
(6,-81,o),
(-4,-104,cs),
(-12,-112,o),
(-17,-122,o),
(-17,-133,cs),
(-16,-145,o),
(-12,-155,o),
(-4,-163,cs),
(6,-145,o),
(17,-150,o),
(31,-150,cs)
);
}
);
width = 0;
}
);
unicode = 803;
},
{
glyphname = hookabovecomb;
layers = (
{
anchors = (
{
name = _top;
pos = (0,0);
}
);
associatedMasterId = "";
layerId = m01;
shapes = (
{
closed = 1;
nodes = (
(-114,669,ls),
(-133,669,o),
(-150,664,o),
(-166,653,cs),
(-182,642,o),
(-194,628,o),
(-203,609,cs),
(-203,609,ls),
(-195,616,o),
(-187,622,o),
(-178,626,cs),
(-169,630,o),
(-160,632,o),
(-150,632,cs),
(-137,632,o),
(-126,628,o),
(-117,621,cs),
(-108,613,o),
(-104,602,o),
(-104,589,cs),
(-104,575,o),
(-110,561,o),
(-122,547,cs),
(-134,532,o),
(-152,519,o),
(-177,506,cs),
(-176,506,ls),
(-133,518,o),
(-102,533,o),
(-81,551,cs),
(-61,569,o),
(-50,589,o),
(-50,610,cs),
(-50,628,o),
(-56,642,o),
(-69,653,cs),
(-81,664,o),
(-96,669,o),
(-114,669,cs)
);
}
);
width = 0;
}
);
unicode = 777;
},
{
glyphname = A;
kernLeft = A;
kernRight = A;
lastChange = "2022-09-01 21:01:03 +0000";
layers = (
{
anchors = (
{
name = bottom;
pos = (170,0);
},
{
name = ogonek;
pos = (354,0);
},
{
name = top;
pos = (336,720);
}
);
layerId = m002;
shapes = (
{
closed = 1;
nodes = (
(109,0,ls),
(124,0,o),
(132,3,o),
(132,8,cs),
(132,12,o),
(129,15,o),
(113,17,cs),
(94,18,ls),
(54,21,o),
(46,36,o),
(70,64,cs),
(156,161,ls),
(168,173,o),
(184,179,o),
(208,179,cs),
(350,179,ls),
(373,179,o),
(385,173,o),
(385,161,cs),
(388,48,ls),
(388,27,o),
(378,20,o),
(347,18,cs),
(321,17,ls),
(306,16,o),
(294,13,o),
(294,7,cs),
(294,3,o),
(300,0,o),
(312,0,cs),
(530,0,ls),
(545,0,o),
(553,3,o),
(553,8,cs),
(553,12,o),
(547,15,o),
(537,17,cs),
(520,19,ls),
(486,23,o),
(478,31,o),
(477,58,cs),
(462,516,ls),
(462,525,o),
(455,527,o),
(447,527,cs),
(440,527,o),
(430,525,o),
(422,516,cs),
(26,65,ls),
(2,37,o),
(-15,31,o),
(-42,26,cs),
(-58,23,ls),
(-67,21,o),
(-74,18,o),
(-74,10,cs),
(-74,4,o),
(-70,0,o),
(-62,0,cs)
);
},
{
closed = 1;
nodes = (
(200,201,o),
(194,206,o),
(201,213,cs),
(374,411,l),
(381,411,l),
(384,213,ls),
(384,206,o),
(374,201,o),
(361,201,cs),
(213,201,ls)
);
}
);
width = 605;
}
);
unicode = 65;
},
{
glyphname = AE;
kernRight = E;
lastChange = "2022-08-23 19:51:09 +0000";
layers = (
{
layerId = m002;
shapes = (
{
closed = 1;
nodes = (
(122,0,ls),
(139,0,o),
(147,3,o),
(147,8,cs),
(147,12,o),
(140,16,o),
(126,17,cs),
(107,18,ls),
(68,21,o),
(64,37,o),
(100,64,cs),
(352,252,ls),
(359,257,o),
(368,258,o),
(377,258,cs),
(566,258,ls),
(578,258,o),
(582,255,o),
(580,248,cs),
(494,48,ls),
(486,27,o),
(476,23,o),
(438,20,cs),
(406,17,ls),
(394,15,o),
(385,12,o),
(385,7,cs),
(385,3,o),
(390,0,o),
(404,0,cs),
(866,0,ls),
(885,0,o),
(900,6,o),
(906,17,cs),
(973,145,ls),
(977,153,o),
(971,157,o),
(960,157,cs),
(950,157,o),
(943,154,o),
(938,148,cs),
(906,105,ls),
(853,37,o),
(779,18,o),
(690,18,cs),
(605,18,o),
(582,32,o),
(597,67,cs),
(673,248,ls),
(676,255,o),
(685,258,o),
(697,258,cs),
(761,258,ls),
(802,258,o),
(818,251,o),
(816,218,cs),
(814,182,ls),
(814,176,o),
(822,172,o),
(833,173,cs),
(843,173,o),
(849,177,o),
(853,185,cs),
(922,348,ls),
(926,355,o),
(917,360,o),
(907,360,cs),
(897,360,o),
(891,356,o),
(885,350,cs),
(857,314,ls),
(838,291,o),
(812,280,o),
(773,280,cs),
(706,280,ls),
(695,280,o),
(689,284,o),
(691,291,cs),
(765,465,ls),
(776,492,o),
(803,502,o),
(874,502,cs),
(980,502,o),
(1025,473,o),
(1018,407,cs),
(1015,381,ls),
(1015,375,o),
(1021,371,o),
(1032,371,cs),
(1042,371,o),
(1050,376,o),
(1052,383,cs),
(1092,503,ls),
(1096,514,o),
(1086,520,o),
(1066,520,cs),
(559,520,ls),
(546,520,o),
(537,518,o),
(537,512,cs),
(537,508,o),
(540,505,o),
(550,503,cs),
(580,500,ls),
(614,496,o),
(626,493,o),
(599,473,cs),
(54,65,ls),
(20,39,o),
(-14,31,o),
(-41,26,cs),
(-57,23,ls),
(-66,21,o),
(-74,18,o),
(-74,10,cs),
(-74,4,o),
(-70,0,o),
(-61,0,cs)
);
},
{
closed = 1;
nodes = (
(660,482,ls),
(670,490,o),
(681,489,o),
(677,479,cs),
(598,291,ls),
(596,284,o),
(588,280,o),
(575,280,cs),
(415,280,ls),
(402,280,o),
(398,286,o),
(407,292,cs)
);
}
);
width = 1035;
}
);
metricLeft = A;
metricRight = E;
unicode = 198;
},
{
glyphname = B;
kernLeft = H;
lastChange = "2022-09-01 21:00:59 +0000";
layers = (
{
background = {
shapes = (
{
closed = 1;
nodes = (
(240,0,ls),
(434,0,o),
(588,76,o),
(588,173,cs),
(588,231,o),
(530,275,o),
(434,290,c),
(435,293,l),
(554,311,o),
(642,366,o),
(642,424,cs),
(642,480,o),
(559,520,o),
(442,520,cs),
(189,520,ls),
(175,520,o),
(166,518,o),
(166,512,cs),
(166,507,o),
(170,505,o),
(183,503,cs),
(209,501,ls),
(244,497,o),
(250,491,o),
(241,473,cs),
(62,48,ls),
(53,27,o),
(44,23,o),
(6,20,cs),
(-16,24,ls),
(-29,22,o),
(-36,17,o),
(-36,10,cs),
(-36,3,o),
(-31,0,o),
(-22,0,cs)
);
},
{
closed = 1;
nodes = (
(176,18,o),
(150,34,o),
(162,68,cs),
(236,241,ls),
(246,267,o),
(276,279,o),
(332,279,cs),
(432,279,o),
(491,241,o),
(491,176,cs),
(491,86,o),
(385,18,o),
(245,18,cs)
);
},
{
closed = 1;
nodes = (
(281,297,o),
(264,308,o),
(276,337,cs),
(334,473,ls),
(342,493,o),
(368,502,o),
(414,502,cs),
(496,502,o),
(546,472,o),
(546,422,cs),
(546,353,o),
(450,297,o),
(334,297,cs)
);
}
);
};
layerId = m002;
shapes = (
{
closed = 1;
nodes = (
(240,0,ls),
(434,0,o),
(588,76,o),
(588,173,cs),
(588,227,o),
(538,269,o),
(447,287,cs),
(438,289,o),
(438,293,o),
(447,295,cs),
(565,317,o),
(642,370,o),
(642,424,cs),
(642,480,o),
(559,520,o),
(442,520,cs),
(189,520,ls),
(175,520,o),
(166,518,o),
(166,512,cs),
(166,507,o),
(170,505,o),
(183,503,cs),
(209,501,ls),
(244,497,o),
(250,491,o),
(241,473,cs),
(62,48,ls),
(53,27,o),
(44,22,o),
(6,20,cs),
(-16,24,ls),
(-29,22,o),
(-36,17,o),
(-36,10,cs),
(-36,3,o),
(-31,0,o),
(-22,0,cs)
);
},
{
closed = 1;
nodes = (
(176,18,o),
(148,34,o),
(162,68,cs),
(236,241,ls),
(246,267,o),
(276,279,o),
(332,279,cs),
(432,279,o),
(491,241,o),
(491,176,cs),
(491,86,o),
(385,18,o),
(245,18,cs)
);
},
{
closed = 1;
nodes = (
(281,297,o),
(264,308,o),
(276,337,cs),
(334,473,ls),
(342,493,o),
(368,502,o),
(414,502,cs),
(496,502,o),
(546,472,o),
(546,422,cs),
(546,353,o),
(450,297,o),
(334,297,cs)
);
}
);
width = 634;
}
);
unicode = 66;
},
{
glyphname = C;
kernLeft = O;
kernRight = C;
lastChange = "2022-09-01 20:50:49 +0000";
layers = (
{
anchors = (
{
name = bottom;
pos = (229,0);
},
{
name = top;
pos = (375,720);
}
);
background = {
shapes = (
{
closed = 1;
nodes = (
(386,-7,o),
(444,0,o),
(475,6,cs),
(488,8,o),
(492,12,o),
(496,19,cs),
(554,132,ls),
(558,139,o),
(554,145,o),
(540,145,cs),
(531,145,o),
(526,142,o),
(521,137,cs),
(494,103,ls),
(443,37,o),
(389,12,o),
(323,12,cs),
(210,12,o),
(166,82,o),
(166,169,cs),
(166,293,o),
(316,508,o),
(500,508,cs),
(568,508,o),
(611,484,o),
(607,397,cs),
(606,369,ls),
(606,361,o),
(612,358,o),
(623,357,cs),
(632,357,o),
(641,360,o),
(643,369,cs),
(681,478,ls),
(684,485,o),
(682,489,o),
(673,494,cs),
(621,517,o),
(567,527,o),
(505,527,cs),
(245,527,o),
(72,328,o),
(72,190,cs),
(72,67,o),
(151,-7,o),
(338,-7,cs)
);
}
);
};
layerId = m002;
shapes = (
{
closed = 1;
nodes = (
(386,-7,o),
(451,0,o),
(482,6,cs),
(494,8,o),
(499,12,o),
(503,19,cs),
(555,132,ls),
(559,139,o),
(554,145,o),
(540,145,cs),
(531,145,o),
(526,142,o),
(521,137,cs),
(492,103,ls),
(436,38,o),
(389,14,o),
(323,14,cs),
(210,14,o),
(166,75,o),
(166,162,cs),
(166,293,o),
(320,507,o),
(491,507,cs),
(564,507,o),
(601,476,o),
(606,397,cs),
(607,369,ls),
(607,361,o),
(614,357,o),
(623,357,cs),
(634,357,o),
(641,360,o),
(643,369,cs),
(682,478,ls),
(685,485,o),
(682,489,o),
(673,494,cs),
(621,517,o),
(567,527,o),
(505,527,cs),
(245,527,o),
(72,328,o),
(72,182,cs),
(72,60,o),
(151,-7,o),
(338,-7,cs)
);
}
);
width = 628;
}
);
unicode = 67;
},
{
glyphname = D;
kernLeft = H;
kernRight = O;
lastChange = "2022-09-01 20:50:56 +0000";
layers = (
{
anchors = (
{
name = bottom;
pos = (209,0);
},
{
name = center;
pos = (292,360);
},
{
name = top;
pos = (365,720);
}
);
background = {
shapes = (
{
closed = 1;
nodes = (
(223,0,ls),
(436,0,o),
(615,100,o),
(681,258,cs),
(747,414,o),
(662,520,o),
(457,520,cs),
(189,520,ls),
(176,520,o),
(168,518,o),
(167,513,cs),
(164,507,o),
(168,505,o),
(179,503,cs),
(209,501,ls),
(245,497,o),
(250,493,o),
(241,473,cs),
(62,48,ls),
(55,31,o),
(38,22,o),
(6,20,cs),
(-20,23,ls),
(-29,21,o),
(-34,18,o),
(-35,11,cs),
(-37,4,o),
(-33,0,o),
(-23,0,cs)
);
},
{
closed = 1;
nodes = (
(170,19,o),
(151,33,o),
(167,71,cs),
(325,449,ls),
(340,484,o),
(384,502,o),
(448,502,cs),
(601,502,o),
(644,411,o),
(578,258,cs),
(513,103,o),
(393,19,o),
(237,19,cs)
);
}
);
};
layerId = m002;
shapes = (
{
closed = 1;
nodes = (
(240,0,ls),
(478,0,o),
(703,161,o),
(703,338,cs),
(703,458,o),
(606,520,o),
(455,520,cs),
(189,520,ls),
(175,520,o),
(166,518,o),
(166,512,cs),
(166,508,o),
(169,505,o),
(183,503,cs),
(209,501,ls),
(245,497,o),
(250,493,o),
(241,473,cs),
(62,48,ls),
(54,27,o),
(44,22,o),
(6,20,cs),
(-16,24,ls),
(-30,22,o),
(-36,17,o),
(-36,10,cs),
(-36,4,o),
(-32,0,o),
(-22,0,cs)
);
},
{
closed = 1;
nodes = (
(182,19,o),
(151,33,o),
(167,71,cs),
(325,449,ls),
(340,484,o),
(384,502,o),
(447,502,cs),
(550,502,o),
(612,462,o),
(612,386,cs),
(612,198,o),
(450,19,o),
(247,19,cs)
);
}
);
width = 708;
}
);
unicode = 68;
},
{
glyphname = Eth;
kernLeft = H;
kernRight = O;
lastChange = "2022-08-23 19:52:33 +0000";
layers = (
{
layerId = m002;
shapes = (
{
ref = D;
},
{
closed = 1;
nodes = (
(408,258,ls),
(416,258,o),
(423,262,o),
(424,266,cs),
(427,272,ls),
(429,276,o),
(424,279,o),
(416,279,cs),
(79,279,ls),
(71,279,o),
(64,276,o),
(63,272,cs),
(61,266,ls),
(60,262,o),
(63,258,o),
(71,258,cs)
);
}
);
width = 708;
}
);
unicode = 208;
},
{
glyphname = E;
kernLeft = H;
kernRight = E;
lastChange = "2022-09-01 20:51:22 +0000";
layers = (
{
anchors = (
{
name = bottom;
pos = (168,0);
},
{
name = ogonek;
pos = (326,0);
},
{
name = top;
pos = (334,720);
},
{
name = topleft;
pos = (127,720);
}
);
background = {
shapes = (
{
closed = 1;
nodes = (
(431,0,ls),
(451,0,o),
(466,6,o),
(470,17,cs),
(538,145,ls),
(542,153,o),
(536,157,o),
(526,157,cs),
(514,157,o),
(508,154,o),
(504,148,cs),
(461,93,ls),
(415,31,o),
(347,18,o),
(255,18,cs),
(169,18,o),
(147,32,o),
(161,67,cs),
(238,248,ls),
(240,255,o),
(250,258,o),
(262,258,cs),
(331,258,ls),
(370,258,o),
(389,251,o),
(385,218,cs),
(381,182,ls),
(381,176,o),
(386,173,o),
(397,173,cs),
(407,173,o),
(414,177,o),
(417,185,cs),
(486,348,ls),
(491,355,o),
(484,360,o),
(474,360,cs),
(462,360,o),
(457,356,o),
(452,350,cs),
(425,314,ls),
(408,291,o),
(381,280,o),
(342,280,cs),
(271,280,ls),
(259,280,o),
(254,284,o),
(256,291,cs),
(329,465,ls),
(342,492,o),
(368,502,o),
(439,502,cs),
(531,502,o),
(598,487,o),
(588,421,cs),
(581,381,ls),
(580,375,o),
(585,371,o),
(597,371,cs),
(607,371,o),
(615,376,o),
(618,383,cs),
(658,503,ls),
(661,514,o),
(651,520,o),
(631,520,cs),
(189,520,ls),
(175,520,o),
(166,518,o),
(166,512,cs),
(166,508,o),
(169,505,o),
(183,503,cs),
(209,501,ls),
(245,497,o),
(250,493,o),
(241,473,cs),
(62,48,ls),
(54,27,o),
(44,22,o),
(6,20,cs),
(-16,24,ls),
(-30,22,o),
(-36,17,o),
(-36,10,cs),
(-36,4,o),
(-32,0,o),
(-22,0,cs)
);
}
);
};
layerId = m002;
shapes = (
{
closed = 1;
nodes = (
(431,0,ls),
(451,0,o),
(466,6,o),
(470,17,cs),
(538,145,ls),
(542,153,o),
(536,157,o),
(526,157,cs),
(514,157,o),
(508,154,o),
(504,148,cs),
(473,108,ls),
(414,33,o),
(335,18,o),
(255,18,cs),
(169,18,o),
(147,32,o),
(161,67,cs),
(238,248,ls),
(240,255,o),
(250,258,o),
(262,258,cs),
(328,258,ls),
(368,258,o),
(384,251,o),
(382,218,cs),
(381,182,ls),
(381,176,o),
(386,173,o),
(397,173,cs),
(407,173,o),
(415,177,o),
(420,185,cs),
(488,348,ls),
(492,355,o),
(484,360,o),
(474,360,cs),
(462,360,o),
(457,356,o),
(452,350,cs),
(423,314,ls),
(405,291,o),
(378,280,o),
(338,280,cs),
(271,280,ls),
(259,280,o),
(254,284,o),
(256,291,cs),
(329,465,ls),
(342,492,o),
(368,502,o),
(439,502,cs),
(531,502,o),
(597,479,o),
(584,406,cs),
(581,381,ls),
(580,375,o),
(585,371,o),
(597,371,cs),
(607,371,o),
(615,376,o),
(618,383,cs),
(659,503,ls),
(662,514,o),
(651,520,o),
(631,520,cs),
(189,520,ls),
(175,520,o),
(166,518,o),
(166,512,cs),
(166,508,o),
(169,505,o),
(183,503,cs),
(209,501,ls),
(245,497,o),
(250,493,o),
(241,473,cs),
(62,48,ls),
(54,27,o),
(44,22,o),
(6,20,cs),
(-16,24,ls),
(-30,22,o),
(-36,17,o),
(-36,10,cs),
(-36,4,o),
(-32,0,o),
(-22,0,cs)
);
}
);
width = 600;
}
);
unicode = 69;
},
{
glyphname = F;
kernLeft = H;
lastChange = "2022-09-01 20:52:39 +0000";
layers = (
{
background = {
shapes = (
{
closed = 1;
nodes = (
(250,0,ls),
(264,0,o),
(273,3,o),
(273,8,cs),
(273,13,o),
(268,16,o),
(256,17,cs),
(186,22,ls),
(151,25,o),
(144,31,o),
(153,51,cs),
(238,248,ls),
(240,255,o),
(250,258,o),
(262,258,cs),
(314,258,ls),
(353,258,o),
(371,251,o),
(368,218,cs),
(363,183,ls),
(363,177,o),
(369,173,o),
(379,173,cs),
(390,173,o),
(397,178,o),
(400,185,cs),
(469,347,ls),
(474,354,o),
(465,359,o),
(455,359,cs),
(444,359,o),
(439,355,o),
(435,349,cs),
(408,314,ls),
(391,291,o),
(363,280,o),
(324,280,cs),
(271,280,ls),
(259,280,o),
(254,284,o),
(256,291,cs),
(328,461,ls),
(340,489,o),
(370,502,o),
(448,502,cs),
(522,502,o),
(582,487,o),
(572,421,cs),
(565,381,ls),
(564,375,o),
(570,371,o),
(581,371,cs),
(591,371,o),
(599,376,o),
(601,383,cs),
(642,503,ls),
(645,514,o),
(635,520,o),
(615,520,cs),
(189,520,ls),
(175,520,o),
(166,518,o),
(166,512,cs),
(166,508,o),
(169,505,o),
(183,503,cs),
(209,501,ls),
(245,497,o),
(250,493,o),
(241,473,cs),
(62,48,ls),
(54,27,o),
(44,22,o),
(6,20,cs),
(-16,24,ls),
(-30,22,o),
(-36,17,o),
(-36,10,cs),
(-36,4,o),
(-32,0,o),
(-22,0,cs)
);
}
);
};
layerId = m002;
shapes = (
{
closed = 1;
nodes = (
(250,0,ls),
(264,0,o),
(273,3,o),
(273,8,cs),
(273,13,o),
(268,16,o),
(256,17,cs),
(186,22,ls),
(151,25,o),
(144,31,o),
(153,51,cs),
(238,248,ls),
(240,255,o),
(250,258,o),
(262,258,cs),
(309,258,ls),
(350,258,o),
(363,251,o),
(363,218,cs),
(363,183,ls),
(363,177,o),
(369,173,o),
(379,173,cs),
(390,173,o),
(397,178,o),
(400,185,cs),
(469,347,ls),
(474,354,o),
(465,359,o),
(455,359,cs),
(444,359,o),
(440,355,o),
(435,349,cs),
(405,314,ls),
(385,291,o),
(360,280,o),
(320,280,cs),
(271,280,ls),
(259,280,o),
(254,284,o),
(256,291,cs),
(328,461,ls),
(340,489,o),
(370,502,o),
(447,502,cs),
(521,502,o),
(576,473,o),
(567,406,cs),
(565,381,ls),
(564,375,o),
(570,371,o),
(581,371,cs),
(591,371,o),
(599,376,o),
(601,383,cs),
(642,503,ls),
(645,514,o),
(635,520,o),
(615,520,cs),
(189,520,ls),
(175,520,o),
(166,518,o),
(166,512,cs),
(166,508,o),
(169,505,o),
(183,503,cs),
(209,501,ls),
(245,497,o),
(250,493,o),
(241,473,cs),
(62,48,ls),
(54,27,o),
(44,22,o),
(6,20,cs),
(-16,24,ls),
(-30,22,o),
(-36,17,o),
(-36,10,cs),
(-36,4,o),
(-32,0,o),
(-22,0,cs)
);
}
);
width = 544;
}
);
unicode = 70;
},
{
glyphname = G;
kernLeft = O;
kernRight = G;
lastChange = "2022-09-01 20:53:01 +0000";
layers = (
{
anchors = (
{
name = bottom;
pos = (228,0);
},
{
name = top;
pos = (394,720);
}
);
background = {
shapes = (
{
closed = 1;
nodes = (
(377,-7,o),
(427,6,o),
(470,20,cs),
(503,31,o),
(515,40,o),
(520,51,cs),
(597,232,ls),
(605,252,o),
(610,259,o),
(650,263,cs),
(669,264,ls),
(681,264,o),
(689,267,o),
(689,273,cs),
(689,278,o),
(682,280,o),
(672,280,cs),
(432,280,ls),
(417,280,o),
(408,277,o),
(408,272,cs),
(408,268,o),
(414,264,o),
(425,264,cs),
(473,261,ls),
(512,258,o),
(513,252,o),
(505,233,cs),
(439,75,ls),
(420,27,o),
(373,12,o),
(316,12,cs),
(224,12,o),
(161,65,o),
(161,170,cs),
(161,265,o),
(277,508,o),
(520,508,cs),
(589,508,o),
(631,484,o),
(627,408,cs),
(626,380,ls),
(626,374,o),
(631,371,o),
(642,371,cs),
(653,371,o),
(660,376,o),
(662,382,cs),
(703,493,ls),
(705,502,o),
(704,505,o),
(695,508,cs),
(658,519,o),
(605,527,o),
(527,527,cs),
(217,527,o),
(69,311,o),
(69,183,cs),
(69,60,o),
(160,-7,o),
(312,-7,cs)
);
}
);
};
layerId = m002;
shapes = (
{
closed = 1;
nodes = (
(377,-7,o),
(427,6,o),
(470,20,cs),
(503,31,o),
(515,40,o),
(520,51,cs),
(597,232,ls),
(605,252,o),
(610,259,o),
(650,263,cs),
(669,264,ls),
(681,264,o),
(689,267,o),
(689,273,cs),
(689,278,o),
(682,280,o),
(672,280,cs),
(432,280,ls),
(417,280,o),
(408,277,o),
(408,272,cs),
(408,268,o),
(414,264,o),
(425,264,cs),
(473,261,ls),
(512,258,o),
(513,252,o),
(505,233,cs),
(439,75,ls),
(420,27,o),
(373,12,o),
(316,12,cs),
(224,12,o),
(161,65,o),
(161,170,cs),
(161,265,o),
(277,508,o),
(520,508,cs),
(589,508,o),
(619,484,o),
(624,401,cs),
(626,380,ls),
(626,374,o),
(631,371,o),
(642,371,cs),
(653,371,o),
(660,376,o),
(662,382,cs),
(703,493,ls),
(705,502,o),
(704,505,o),
(695,508,cs),
(658,519,o),
(605,527,o),
(527,527,cs),
(217,527,o),
(69,311,o),
(69,183,cs),
(69,60,o),
(160,-7,o),
(312,-7,cs)
);
}
);
width = 680;
}
);
unicode = 71;
},
{
glyphname = H;
kernLeft = H;
kernRight = H;
lastChange = "2022-09-01 20:53:06 +0000";
layers = (
{
background = {
shapes = (
{
closed = 1;
nodes = (
(209,0,ls),
(222,0,o),
(230,3,o),
(232,8,cs),
(235,13,o),
(230,16,o),
(221,17,cs),
(186,20,ls),
(151,22,o),
(145,28,o),
(153,48,cs),
(238,248,ls),
(240,255,o),
(250,258,o),
(262,258,cs),
(523,258,ls),
(536,258,o),
(539,255,o),
(537,248,cs),
(452,48,ls),
(444,28,o),
(434,22,o),
(396,20,cs),
(359,17,ls),
(350,16,o),
(343,13,o),
(342,8,cs),
(338,3,o),
(344,0,o),
(356,0,cs),
(597,0,ls),
(610,0,o),
(618,3,o),
(620,8,cs),
(621,12,o),
(618,15,o),
(606,17,cs),
(576,20,ls),
(540,23,o),
(536,27,o),
(544,48,cs),
(723,473,ls),
(731,493,o),
(742,497,o),
(780,501,cs),
(812,503,ls),
(823,505,o),
(830,508,o),
(833,513,cs),
(835,518,o),
(829,520,o),
(816,520,cs),
(576,520,ls),
(564,520,o),
(555,518,o),
(553,512,cs),
(552,507,o),
(555,504,o),
(565,503,cs),
(599,501,ls),
(635,498,o),
(641,492,o),
(632,472,cs),
(555,291,ls),
(553,284,o),
(545,280,o),
(532,280,cs),
(271,280,ls),
(259,280,o),
(254,284,o),
(256,291,cs),
(334,472,ls),
(342,492,o),
(352,498,o),
(390,501,cs),
(427,503,ls),
(436,504,o),
(443,507,o),
(444,512,cs),
(447,518,o),
(442,520,o),
(429,520,cs),
(189,520,ls),
(176,520,o),
(168,518,o),
(167,513,cs),
(164,508,o),
(168,505,o),
(179,503,cs),
(209,501,ls),
(245,497,o),
(250,493,o),
(241,473,cs),
(62,48,ls),
(54,27,o),
(44,23,o),
(6,20,cs),
(-20,23,ls),
(-29,21,o),
(-34,17,o),
(-35,11,cs),
(-37,4,o),
(-33,0,o),
(-23,0,cs)
);
}
);
};
layerId = m002;
shapes = (
{
closed = 1;
nodes = (
(209,0,ls),
(224,0,o),
(235,3,o),
(235,8,cs),
(235,13,o),
(229,17,o),
(215,17,cs),
(186,20,ls),
(151,22,o),
(145,28,o),
(153,48,cs),
(238,248,ls),
(240,255,o),
(250,258,o),
(262,258,cs),
(523,258,ls),
(536,258,o),
(539,255,o),
(537,248,cs),
(452,48,ls),
(444,28,o),
(434,22,o),
(396,20,cs),
(363,17,ls),
(351,17,o),
(340,14,o),
(340,8,cs),
(340,3,o),
(345,0,o),
(359,0,cs),
(597,0,ls),
(611,0,o),
(620,3,o),
(620,8,cs),
(620,12,o),
(616,15,o),
(603,17,cs),
(576,20,ls),
(540,23,o),
(536,27,o),
(544,48,cs),
(723,473,ls),
(731,493,o),
(742,498,o),
(780,501,cs),
(807,503,ls),
(826,504,o),
(833,508,o),
(833,513,cs),
(833,518,o),
(828,520,o),
(814,520,cs),
(576,520,ls),
(561,520,o),
(552,518,o),
(552,512,cs),
(552,507,o),
(557,503,o),
(570,503,cs),
(599,501,ls),
(635,498,o),
(641,492,o),
(632,472,cs),
(555,291,ls),
(553,284,o),
(545,280,o),
(532,280,cs),
(271,280,ls),
(259,280,o),
(254,284,o),
(256,291,cs),
(334,472,ls),
(342,492,o),
(352,498,o),
(390,501,cs),
(422,503,ls),
(435,503,o),
(446,507,o),
(446,513,cs),
(446,517,o),
(440,520,o),
(427,520,cs),
(189,520,ls),
(175,520,o),
(166,518,o),
(166,512,cs),
(166,508,o),
(169,505,o),
(183,503,cs),
(209,501,ls),
(245,497,o),
(250,493,o),
(241,473,cs),
(62,48,ls),
(54,27,o),
(44,22,o),
(6,20,cs),
(-16,24,ls),
(-30,22,o),
(-36,17,o),
(-36,10,cs),
(-36,4,o),
(-32,0,o),
(-22,0,cs)
);
}
);
width = 721;
}
);
unicode = 72;
},
{
glyphname = Hbar;
kernLeft = H;
kernRight = H;
lastChange = "2022-08-23 19:52:53 +0000";
layers = (
{
layerId = m002;
shapes = (
{
ref = H;
},
{
closed = 1;
nodes = (
(766,384,ls),
(774,384,o),
(780,388,o),
(782,392,cs),
(784,398,ls),
(785,402,o),
(782,405,o),
(774,405,cs),
(132,405,ls),
(124,405,o),
(117,402,o),
(116,398,cs),
(114,392,ls),
(113,388,o),
(116,384,o),
(124,384,cs)
);
}
);
width = 721;
}
);
unicode = 294;
},
{
glyphname = I;
kernLeft = H;
kernRight = H;
lastChange = "2022-08-25 19:54:44 +0000";
layers = (
{
anchors = (
{
name = bottom;
pos = (66,0);
},
{
name = ogonek;
pos = (100,0);
},
{
name = top;
pos = (232,720);
},
{
name = topleft;
pos = (127,720);
}
);
background = {
shapes = (
{
closed = 1;
nodes = (
(209,0,ls),
(224,0,o),
(235,3,o),
(235,8,cs),
(235,13,o),
(229,17,o),
(215,17,cs),
(186,20,ls),
(151,22,o),
(145,28,o),
(153,48,cs),
(334,472,ls),
(342,492,o),
(352,498,o),
(388,501,cs),
(420,503,ls),
(432,503,o),
(443,507,o),
(443,513,cs),
(443,517,o),
(438,520,o),
(424,520,cs),
(189,520,ls),
(175,520,o),
(166,518,o),
(166,512,cs),
(166,508,o),
(169,505,o),
(183,503,cs),
(209,501,ls),
(245,497,o),
(250,493,o),
(241,473,cs),
(62,48,ls),
(54,27,o),
(44,22,o),
(6,20,cs),
(-16,24,ls),
(-30,22,o),
(-36,17,o),
(-36,10,cs),
(-36,4,o),
(-32,0,o),
(-22,0,cs)
);
}
);
};
layerId = m002;
shapes = (
{
closed = 1;
nodes = (
(206,0,ls),
(221,0,o),
(230,3,o),
(230,8,cs),
(230,12,o),
(227,15,o),
(213,17,cs),
(186,20,ls),
(151,23,o),
(145,27,o),
(153,48,cs),
(334,473,ls),
(342,493,o),
(352,498,o),
(390,501,cs),
(416,503,ls),
(435,504,o),
(443,508,o),
(443,513,cs),
(443,518,o),
(438,520,o),
(424,520,cs),
(189,520,ls),
(175,520,o),
(166,518,o),
(166,512,cs),
(166,508,o),
(169,505,o),
(183,503,cs),
(209,501,ls),
(245,497,o),
(250,493,o),
(241,473,cs),
(62,48,ls),
(54,27,o),
(44,22,o),
(6,20,cs),
(-16,24,ls),
(-30,22,o),
(-36,17,o),
(-36,10,cs),
(-36,4,o),
(-32,0,o),
(-22,0,cs)
);
}
);
width = 331;
}
);
unicode = 73;
},
{
glyphname = J;
kernRight = J;
lastChange = "2022-09-01 21:01:27 +0000";
layers = (
{
background = {
shapes = (
{
closed = 1;
nodes = (
(-4,-215,o),
(98,-84,o),
(147,31,cs),
(334,473,ls),
(342,493,o),
(352,498,o),
(390,501,cs),
(416,503,ls),
(435,504,o),
(443,508,o),
(443,513,cs),
(443,518,o),
(438,520,o),
(424,520,cs),
(189,520,ls),
(175,520,o),
(166,518,o),
(166,512,cs),
(166,508,o),
(169,505,o),
(183,503,cs),
(209,501,ls),
(245,497,o),
(250,493,o),
(241,473,cs),
(15,-65,ls),
(-1,-144,o),
(-23,-175,o),
(-48,-175,cs),
(-84,-175,o),
(-54,-109,o),
(-98,-109,cs),
(-122,-109,o),
(-144,-128,o),
(-150,-155,cs),
(-158,-191,o),
(-136,-215,o),
(-94,-215,cs)
);
}
);
};
layerId = m002;
shapes = (
{
closed = 1;
nodes = (
(-2,-215,o),
(98,-84,o),
(147,31,cs),
(334,473,ls),
(342,493,o),
(352,498,o),
(390,501,cs),
(416,503,ls),
(435,504,o),
(443,508,o),
(443,513,cs),
(443,518,o),
(438,520,o),
(424,520,cs),
(189,520,ls),
(175,520,o),
(166,518,o),
(166,512,cs),
(166,508,o),
(169,505,o),
(183,503,cs),
(209,501,ls),
(245,497,o),
(250,493,o),
(241,473,cs),
(15,-65,ls),
(-1,-144,o),
(-23,-175,o),
(-48,-175,cs),
(-84,-175,o),
(-58,-109,o),
(-107,-109,cs),
(-135,-109,o),
(-152,-134,o),
(-152,-161,cs),
(-152,-193,o),
(-127,-215,o),
(-89,-215,cs)
);
}
);
width = 332;
}
);
unicode = 74;
},
{
glyphname = K;
kernLeft = H;
kernRight = K;
lastChange = "2022-09-01 20:53:20 +0000";
layers = (
{
anchors = (
{
name = bottom;
pos = (221,0);
},
{
name = top;
pos = (357,720);
}
);
background = {
shapes = (
{
closed = 1;
nodes = (
(209,0,ls),
(224,0,o),
(232,3,o),
(232,8,cs),
(232,13,o),
(229,16,o),
(218,17,cs),
(186,20,ls),
(151,22,o),
(145,28,o),
(153,48,cs),
(334,472,ls),
(342,492,o),
(352,498,o),
(390,501,cs),
(424,503,ls),
(436,503,o),
(446,507,o),
(446,513,cs),
(446,518,o),
(439,520,o),
(425,520,cs),
(189,520,ls),
(175,520,o),
(166,518,o),
(166,512,cs),
(166,508,o),
(169,505,o),
(183,503,cs),
(209,501,ls),
(245,497,o),
(250,493,o),
(241,473,cs),
(62,48,ls),
(54,27,o),
(44,22,o),
(6,20,cs),
(-16,24,ls),
(-30,22,o),
(-36,17,o),
(-36,10,cs),
(-36,4,o),
(-32,0,o),
(-22,0,cs)
);
},
{
closed = 1;
nodes = (
(605,450,ls),
(664,488,o),
(697,499,o),
(751,502,cs),
(777,503,ls),
(792,504,o),
(799,508,o),
(799,513,cs),
(799,518,o),
(792,520,o),
(780,520,cs),
(554,520,ls),
(539,520,o),
(532,518,o),
(532,513,cs),
(532,508,o),
(538,505,o),
(552,503,cs),
(576,501,ls),
(611,497,o),
(606,484,o),
(567,459,cs),
(250,259,l),
(237,259,l),
(215,207,l)
);
},
{
closed = 1;
nodes = (
(310,274,l),
(307,265,l),
(316,265,l),
(430,54,ls),
(442,32,o),
(427,20,o),
(394,18,cs),
(370,17,ls),
(356,16,o),
(350,12,o),
(350,7,cs),
(350,3,o),
(354,0,o),
(368,0,cs),
(589,0,ls),
(603,0,o),
(611,3,o),
(611,8,cs),
(611,13,o),
(606,15,o),
(596,17,cs),
(567,20,ls),
(547,22,o),
(537,27,o),
(529,42,cs),
(378,315,l)
);
}
);
};
layerId = m002;
shapes = (
{
closed = 1;
nodes = (
(209,0,ls),
(224,0,o),
(232,3,o),
(232,8,cs),
(232,13,o),
(229,16,o),
(218,17,cs),
(186,20,ls),
(151,22,o),
(145,28,o),
(153,48,cs),
(213,190,ls),
(220,205,o),
(229,216,o),
(247,227,cs),
(298,258,ls),
(307,264,o),
(319,263,o),
(323,255,cs),
(430,54,ls),
(440,32,o),
(427,20,o),
(394,18,cs),
(370,17,ls),
(356,16,o),
(350,12,o),
(350,7,cs),
(350,3,o),
(354,0,o),
(368,0,cs),
(589,0,ls),
(603,0,o),
(611,3,o),
(611,8,cs),
(611,13,o),
(606,15,o),
(596,17,cs),
(567,20,ls),
(547,22,o),
(537,27,o),
(529,42,cs),
(388,298,ls),
(382,306,o),
(386,314,o),
(397,320,cs),
(605,450,ls),
(664,488,o),
(697,499,o),
(751,502,cs),
(777,503,ls),
(792,504,o),
(799,508,o),
(799,513,cs),
(799,518,o),
(792,520,o),
(780,520,cs),
(554,520,ls),
(539,520,o),
(532,518,o),
(532,513,cs),
(532,508,o),
(538,505,o),
(552,503,cs),
(576,501,ls),
(611,497,o),
(606,484,o),
(567,459,cs),
(267,270,ls),
(256,264,o),
(246,267,o),
(250,275,cs),
(334,472,ls),
(342,492,o),
(352,498,o),
(390,501,cs),
(424,503,ls),
(436,503,o),
(446,507,o),
(446,513,cs),
(446,518,o),
(439,520,o),
(425,520,cs),
(189,520,ls),
(175,520,o),
(166,518,o),
(166,512,cs),
(166,508,o),
(169,505,o),
(183,503,cs),
(209,501,ls),
(245,497,o),
(250,493,o),
(241,473,cs),
(62,48,ls),
(54,27,o),
(44,22,o),
(6,20,cs),
(-16,24,ls),
(-30,22,o),
(-36,17,o),
(-36,10,cs),
(-36,4,o),
(-32,0,o),
(-22,0,cs)
);
}
);
width = 660;
}
);
unicode = 75;
},
{
glyphname = L;
kernLeft = H;
kernRight = L;
lastChange = "2022-09-01 20:16:45 +0000";
layers = (
{
anchors = (
{
name = bottom;
pos = (148,0);
},
{
name = center;
pos = (231,360);
},
{
name = top;
pos = (228,720);
},
{
name = topright;
pos = (369,720);
}
);
background = {
shapes = (
{
closed = 1;
nodes = (
(394,0,ls),
(414,0,o),
(429,6,o),
(434,17,cs),
(508,152,ls),
(512,161,o),
(505,165,o),
(494,165,cs),
(484,165,o),
(477,162,o),
(474,156,cs),
(424,93,ls),
(378,32,o),
(310,18,o),
(250,18,cs),
(183,18,o),
(147,32,o),
(161,67,cs),
(334,472,ls),
(342,492,o),
(352,498,o),
(390,501,cs),
(427,503,ls),
(436,504,o),
(443,507,o),
(444,512,cs),
(447,518,o),
(442,520,o),
(429,520,cs),
(189,520,ls),
(175,520,o),
(166,518,o),
(166,512,cs),
(166,508,o),
(169,505,o),
(183,503,cs),
(209,501,ls),
(245,497,o),
(250,493,o),
(241,473,cs),
(62,48,ls),
(54,27,o),
(44,22,o),
(6,20,cs),
(-16,24,ls),
(-30,22,o),
(-36,17,o),
(-36,10,cs),
(-36,4,o),
(-32,0,o),
(-22,0,cs)
);
}
);
};
layerId = m002;
shapes = (
{
closed = 1;
nodes = (
(394,0,ls),
(414,0,o),
(429,6,o),
(434,17,cs),
(508,152,ls),
(512,161,o),
(505,165,o),
(494,165,cs),
(484,165,o),
(477,162,o),
(474,156,cs),
(434,105,ls),
(388,45,o),
(310,18,o),
(244,18,cs),
(183,18,o),
(147,32,o),
(161,67,cs),
(334,472,ls),
(342,492,o),
(352,498,o),
(390,501,cs),
(427,503,ls),
(436,504,o),
(443,507,o),
(444,512,cs),
(447,518,o),
(442,520,o),
(429,520,cs),
(189,520,ls),
(175,520,o),
(166,518,o),
(166,512,cs),
(166,508,o),
(169,505,o),
(183,503,cs),
(209,501,ls),
(245,497,o),
(250,493,o),
(241,473,cs),
(62,48,ls),
(54,27,o),
(44,22,o),
(6,20,cs),
(-16,24,ls),
(-30,22,o),
(-36,17,o),
(-36,10,cs),
(-36,4,o),
(-32,0,o),
(-22,0,cs)
);
}
);
width = 547;
}
);
unicode = 76;
},
{
glyphname = Lslash;
kernLeft = H;
kernRight = L;
lastChange = "2022-08-23 19:53:25 +0000";
layers = (
{
layerId = m002;
shapes = (
{
ref = L;
},
{
closed = 1;
nodes = (
(214,277,l),
(36,222,ls),
(28,219,o),
(24,215,o),
(28,212,cs),
(33,207,ls),
(37,203,o),
(43,202,o),
(51,205,cs),
(206,253,l)
);
},
{
closed = 1;
nodes = (
(208,249,l),
(394,306,ls),
(402,309,o),
(405,313,o),
(402,316,cs),
(397,321,ls),
(394,325,o),
(388,326,o),
(379,324,cs),
(215,273,l)
);
}
);
width = 547;
}
);
unicode = 321;
},
{
glyphname = M;
lastChange = "2022-09-01 20:53:28 +0000";
layers = (
{
background = {
shapes = (
{
closed = 1;
nodes = (
(351,7,o),
(359,9,o),
(367,19,cs),
(768,478,l),
(785,478,l),
(805,520,l),
(797,520,ls),
(773,520,o),
(758,514,o),
(747,502,cs),
(417,128,l),
(412,128,l),
(404,498,ls),
(404,513,o),
(390,520,o),
(365,520,cs),
(309,520,l),
(325,19,ls),
(325,9,o),
(334,7,o),
(343,7,cs)
);
},
{
closed = 1;
nodes = (
(761,0,ls),
(777,0,o),
(785,3,o),
(785,8,cs),
(785,12,o),
(782,16,o),
(765,17,cs),
(742,20,ls),
(706,23,o),
(702,27,o),
(708,48,cs),
(862,473,ls),
(871,493,o),
(881,497,o),
(919,501,cs),
(951,503,ls),
(965,505,o),
(973,508,o),
(973,513,cs),
(973,518,o),
(968,520,o),
(958,520,cs),
(805,520,l),
(780,495,l),
(618,48,ls),
(610,27,o),
(599,23,o),
(561,20,cs),
(529,17,ls),
(515,15,o),
(508,12,o),
(508,7,cs),
(508,3,o),
(513,0,o),
(527,0,cs)
);
},
{
closed = 1;
nodes = (
(335,520,l),
(206,520,ls),
(191,520,o),
(183,518,o),
(183,513,cs),
(183,508,o),
(187,504,o),
(204,503,cs),
(227,501,ls),
(264,497,o),
(271,493,o),
(262,473,cs),
(62,62,ls),
(49,35,o),
(30,22,o),
(-13,25,cs),
(-27,23,ls),
(-36,22,o),
(-43,18,o),
(-43,10,cs),
(-43,4,o),
(-39,0,o),
(-28,0,cs),
(150,0,ls),
(167,0,o),
(175,3,o),
(175,8,cs),
(175,12,o),
(170,16,o),
(159,17,cs),
(143,18,ls),
(100,22,o),
(90,35,o),
(103,62,cs),
(306,478,l),
(312,478,l)
);
}
);
};
guides = (
{
angle = 165.1125;
pos = (76,104);
showMeasurement = 1;
}
);
layerId = m002;
shapes = (
{
closed = 1;
nodes = (
(351,7,o),
(359,9,o),
(367,19,cs),
(752,460,ls),
(758,466,o),
(769,464,o),
(767,457,cs),
(618,48,ls),
(610,27,o),
(599,23,o),
(561,20,cs),
(529,17,ls),
(515,15,o),
(508,12,o),
(508,7,cs),
(508,3,o),
(513,0,o),
(527,0,cs),
(761,0,ls),
(777,0,o),
(785,3,o),
(785,8,cs),
(785,12,o),
(782,16,o),
(765,17,cs),
(742,20,ls),
(706,23,o),
(702,27,o),
(708,48,cs),
(862,473,ls),
(871,493,o),
(881,497,o),
(919,501,cs),
(951,503,ls),
(965,505,o),
(973,508,o),
(973,513,cs),
(973,518,o),
(968,520,o),
(958,520,cs),
(797,520,ls),
(773,520,o),
(758,514,o),
(747,502,cs),
(427,138,ls),
(422,133,o),
(412,133,o),
(412,139,cs),
(404,498,ls),
(404,513,o),
(390,520,o),
(365,520,cs),
(206,520,ls),
(191,520,o),
(183,518,o),
(183,513,cs),
(183,508,o),
(187,504,o),
(204,503,cs),
(227,501,ls),
(264,497,o),
(271,493,o),
(262,473,cs),
(62,62,ls),
(49,35,o),
(30,22,o),
(-13,25,cs),
(-27,23,ls),
(-36,22,o),
(-43,18,o),
(-43,10,cs),
(-43,4,o),
(-39,0,o),
(-28,0,cs),
(150,0,ls),
(167,0,o),
(175,3,o),
(175,8,cs),
(175,12,o),
(170,16,o),
(159,17,cs),
(143,18,ls),
(100,22,o),
(90,35,o),
(103,62,cs),
(298,460,ls),
(300,466,o),
(312,466,o),
(312,460,cs),
(325,19,ls),
(325,9,o),
(334,7,o),
(343,7,cs)
);
}
);
width = 880;
}
);
unicode = 77;
},
{
glyphname = N;
kernLeft = N;
kernRight = N;
lastChange = "2022-09-01 20:53:33 +0000";
layers = (
{
anchors = (
{
name = bottom;
pos = (212,0);
},
{
name = top;
pos = (378,720);
}
);
background = {
shapes = (
{
closed = 1;
nodes = (
(508,-7,o),
(521,-1,o),
(526,9,cs),
(714,458,ls),
(727,489,o),
(746,498,o),
(793,502,cs),
(812,503,ls),
(823,504,o),
(830,508,o),
(833,513,cs),
(835,518,o),
(829,520,o),
(816,520,cs),
(627,520,ls),
(614,520,o),
(606,518,o),
(605,513,cs),
(601,508,o),
(606,505,o),
(618,503,cs),
(641,502,ls),
(669,498,o),
(687,489,o),
(673,458,cs),
(530,119,l),
(523,119,l),
(352,504,ls),
(346,516,o),
(335,520,o),
(312,520,cs),
(184,520,ls),
(170,520,o),
(162,518,o),
(161,513,cs),
(159,508,o),
(162,505,o),
(175,503,cs),
(204,501,ls),
(241,497,o),
(247,493,o),
(239,473,cs),
(66,62,ls),
(54,35,o),
(34,22,o),
(-10,25,cs),
(-24,23,ls),
(-33,22,o),
(-38,17,o),
(-39,11,cs),
(-41,4,o),
(-37,0,o),
(-27,0,cs),
(153,0,ls),
(167,0,o),
(175,3,o),
(177,8,cs),
(178,12,o),
(175,16,o),
(162,17,cs),
(147,18,ls),
(105,22,o),
(95,35,o),
(107,62,cs),
(268,445,l),
(275,445,l),
(473,5,ls),
(476,-3,o),
(482,-7,o),
(494,-7,cs)
);
}
);
};
layerId = m002;
shapes = (
{
closed = 1;
nodes = (
(508,-7,o),
(521,-1,o),
(526,9,cs),
(714,458,ls),
(727,489,o),
(746,498,o),
(793,502,cs),
(812,503,ls),
(823,504,o),
(830,508,o),
(833,513,cs),
(835,518,o),
(829,520,o),
(816,520,cs),
(627,520,ls),
(614,520,o),
(606,518,o),
(605,513,cs),
(601,508,o),
(606,505,o),
(618,503,cs),
(641,502,ls),
(669,498,o),
(687,489,o),
(673,458,cs),
(535,130,ls),
(531,123,o),
(521,123,o),
(519,130,cs),
(352,504,ls),
(346,516,o),
(335,520,o),
(312,520,cs),
(184,520,ls),
(170,520,o),
(162,518,o),
(161,513,cs),
(159,508,o),
(162,505,o),
(175,503,cs),
(204,501,ls),
(241,497,o),
(247,493,o),
(239,473,cs),
(66,62,ls),
(54,35,o),
(34,22,o),
(-10,25,cs),
(-24,23,ls),
(-33,22,o),
(-38,17,o),
(-39,11,cs),
(-41,4,o),
(-37,0,o),
(-27,0,cs),
(153,0,ls),
(167,0,o),
(175,3,o),
(177,8,cs),
(178,12,o),
(175,16,o),
(162,17,cs),
(147,18,ls),
(105,22,o),
(95,35,o),
(107,62,cs),
(264,436,ls),
(267,440,o),
(276,440,o),
(279,436,cs),
(473,5,ls),
(476,-3,o),
(482,-7,o),
(494,-7,cs)
);
}
);
width = 716;
}
);
unicode = 78;
},
{
glyphname = Eng;
kernLeft = N;
kernRight = N;
lastChange = "2022-08-23 20:12:33 +0000";
layers = (
{
layerId = m002;
shapes = (
{
closed = 1;
nodes = (
(405,-156,o),
(476,-107,o),
(511,-26,cs),
(714,458,ls),
(727,489,o),
(746,498,o),
(793,502,cs),
(812,503,ls),
(823,504,o),
(830,508,o),
(833,513,cs),
(835,518,o),
(829,520,o),
(816,520,cs),
(627,520,ls),
(614,520,o),
(606,518,o),
(605,513,cs),
(601,508,o),
(606,505,o),
(618,503,cs),
(641,502,ls),
(669,498,o),
(687,489,o),
(673,458,cs),
(535,130,ls),
(531,123,o),
(521,123,o),
(519,130,cs),
(352,504,ls),
(346,516,o),
(335,520,o),
(312,520,cs),
(184,520,ls),
(170,520,o),
(162,518,o),
(161,513,cs),
(159,508,o),
(162,505,o),
(175,503,cs),
(204,501,ls),
(241,497,o),
(247,493,o),
(239,473,cs),
(66,62,ls),
(54,35,o),
(34,22,o),
(-10,25,cs),
(-24,23,ls),
(-33,22,o),
(-38,17,o),
(-39,11,cs),
(-41,4,o),
(-37,0,o),
(-27,0,cs),
(153,0,ls),
(167,0,o),
(175,3,o),
(177,8,cs),
(178,12,o),
(175,16,o),
(162,17,cs),
(147,18,ls),
(105,22,o),
(95,35,o),
(107,62,cs),
(264,436,ls),
(267,440,o),
(276,440,o),
(279,436,cs),
(450,54,ls),
(451,50,o),
(451,46,o),
(450,41,cs),
(398,-82,ls),
(378,-128,o),
(362,-136,o),
(344,-136,cs),
(293,-136,o),
(337,-76,o),
(270,-76,cs),
(246,-76,o),
(223,-87,o),
(223,-107,cs),
(223,-134,o),
(256,-156,o),
(319,-156,cs)
);
}
);
width = 716;
}
);
unicode = 330;
},
{
glyphname = O;
kernLeft = O;
kernRight = O;
lastChange = "2022-09-01 19:27:44 +0000";
layers = (
{
anchors = (
{
name = bottom;
pos = (211,0);
},
{
name = center;
pos = (294,360);
},
{
name = ogonek;
pos = (429,10);
},
{
name = top;
pos = (377,720);
},
{
name = topleft;
pos = (127,720);
},
{
name = topright;
pos = (601,450);
}
);
background = {
shapes = (
{
closed = 1;
nodes = (
(444,-7,o),
(628,110,o),
(691,261,cs),
(756,411,o),
(670,527,o),
(501,527,cs),
(331,527,o),
(147,411,o),
(83,261,cs),
(20,110,o),
(105,-7,o),
(275,-7,cs)
);
},
{
closed = 1;
nodes = (
(159,13,o),
(117,94,o),
(187,261,cs),
(258,427,o),
(368,508,o),
(492,508,cs),
(616,508,o),
(658,427,o),
(588,261,cs),
(518,94,o),
(407,13,o),
(283,13,cs)
);
}
);
};
layerId = m002;
shapes = (
{
closed = 1;
nodes = (
(506,-7,o),
(707,167,o),
(707,345,cs),
(707,465,o),
(621,527,o),
(484,527,cs),
(273,527,o),
(71,354,o),
(71,176,cs),
(71,55,o),
(158,-7,o),
(294,-7,cs)
);
},
{
closed = 1;
nodes = (
(205,12,o),
(161,51,o),
(161,128,cs),
(161,315,o),
(324,508,o),
(486,508,cs),
(574,508,o),
(618,469,o),
(618,393,cs),
(618,205,o),
(455,12,o),
(292,12,cs)
);
}
);
width = 714;
}
);
unicode = 79;
},
{
glyphname = Oslash;
kernLeft = O;
kernRight = O;
lastChange = "2022-08-23 19:53:48 +0000";
layers = (
{
background = {
shapes = (
{
closed = 1;
nodes = (
(46,-51,ls),
(53,-51,o),
(59,-49,o),
(62,-45,cs),
(676,512,ls),
(681,517,o),
(677,520,o),
(668,520,cs),
(656,520,ls),
(650,520,o),
(644,518,o),
(641,514,cs),
(26,-42,ls),
(21,-47,o),
(25,-51,o),
(34,-51,cs)
);
}
);
};
layerId = m002;
shapes = (
{
ref = O;
},
{
closed = 1;
nodes = (
(68,-43,ls),
(74,-43,o),
(79,-42,o),
(83,-37,cs),
(737,555,ls),
(742,560,o),
(738,564,o),
(729,564,cs),
(712,564,ls),
(705,564,o),
(699,562,o),
(696,558,cs),
(43,-35,ls),
(37,-40,o),
(41,-43,o),
(51,-43,cs)
);
}
);
width = 714;
}
);
unicode = 216;
},
{
glyphname = OE;
kernLeft = O;
kernRight = E;
lastChange = "2022-08-23 19:53:43 +0000";
layers = (
{
background = {
shapes = (
{
closed = 1;
nodes = (
(835,0,ls),
(854,0,o),
(869,6,o),
(874,17,cs),
(942,145,ls),
(945,153,o),
(938,157,o),
(928,157,cs),
(918,157,o),
(911,154,o),
(907,148,cs),
(875,108,ls),
(818,33,o),
(738,18,o),
(659,18,cs),
(573,18,o),
(550,32,o),
(565,67,cs),
(642,248,ls),
(644,255,o),
(653,258,o),
(665,258,cs),
(731,258,ls),
(770,258,o),
(787,251,o),
(785,218,cs),
(784,182,ls),
(784,176,o),
(790,173,o),
(800,173,cs),
(811,173,o),
(819,177,o),
(822,185,cs),
(891,348,ls),
(896,355,o),
(888,360,o),
(876,360,cs),
(866,360,o),
(859,356,o),
(856,350,cs),
(827,314,ls),
(808,291,o),
(782,280,o),
(742,280,cs),
(674,280,ls),
(662,280,o),
(658,284,o),
(660,291,cs),
(733,465,ls),
(744,492,o),
(770,502,o),
(843,502,cs),
(935,502,o),
(999,479,o),
(988,406,cs),
(984,381,ls),
(982,375,o),
(989,371,o),
(999,371,cs),
(1011,371,o),
(1018,376,o),
(1021,383,cs),
(1061,503,ls),
(1066,514,o),
(1055,520,o),
(1034,520,cs),
(592,520,ls),
(578,520,o),
(568,518,o),
(568,512,cs),
(568,508,o),
(573,505,o),
(585,503,cs),
(612,501,ls),
(649,497,o),
(653,493,o),
(645,473,cs),
(466,48,ls),
(458,27,o),
(447,22,o),
(408,20,cs),
(382,17,ls),
(363,16,o),
(355,12,o),
(355,7,cs),
(355,3,o),
(361,0,o),
(374,0,cs)
);
}
);
};
layerId = m002;
shapes = (
{
closed = 1;
nodes = (
(342,-7,o),
(384,0,o),
(443,0,cs),
(835,0,ls),
(854,0,o),
(869,6,o),
(874,17,cs),
(942,145,ls),
(945,153,o),
(937,157,o),
(928,157,cs),
(918,157,o),
(911,154,o),
(907,148,cs),
(874,105,ls),
(821,37,o),
(747,18,o),
(659,18,cs),
(575,18,o),
(550,31,o),
(565,67,cs),
(642,248,ls),
(644,255,o),
(653,258,o),
(665,258,cs),
(730,258,ls),
(769,258,o),
(785,251,o),
(784,218,cs),
(783,182,ls),
(783,177,o),
(790,173,o),
(799,173,cs),
(811,173,o),
(819,178,o),
(821,185,cs),
(890,348,ls),
(894,356,o),
(888,360,o),
(875,360,cs),
(866,360,o),
(859,355,o),
(856,350,cs),
(826,314,ls),
(805,291,o),
(780,280,o),
(741,280,cs),
(674,280,ls),
(661,280,o),
(658,283,o),
(660,291,cs),
(733,465,ls),
(744,492,o),
(770,502,o),
(843,502,cs),
(960,502,o),
(991,466,o),
(987,407,cs),
(984,381,ls),
(984,375,o),
(989,371,o),
(999,371,cs),
(1011,371,o),
(1018,376,o),
(1021,383,cs),
(1060,503,ls),
(1065,514,o),
(1055,520,o),
(1034,520,cs),
(662,520,ls),
(603,520,o),
(566,527,o),
(513,527,cs),
(227,527,o),
(69,324,o),
(69,169,cs),
(69,62,o),
(147,-7,o),
(289,-7,cs)
);
},
{
closed = 1;
nodes = (
(205,13,o),
(159,55,o),
(159,126,cs),
(159,250,o),
(254,507,o),
(511,507,cs),
(615,507,o),
(644,479,o),
(627,436,cs),
(478,84,ls),
(459,36,o),
(389,13,o),
(301,13,cs)
);
}
);
width = 1004;
}
);
metricLeft = O;
metricRight = E;
unicode = 338;
},
{
glyphname = P;
kernLeft = H;
lastChange = "2022-09-01 20:53:52 +0000";
layers = (
{
background = {
shapes = (
{
closed = 1;
nodes = (
(251,0,ls),
(266,0,o),
(275,3,o),
(275,9,cs),
(275,13,o),
(271,16,o),
(263,17,cs),
(200,21,ls),
(156,24,o),
(144,30,o),
(153,51,cs),
(229,225,ls),
(231,232,o),
(239,235,o),
(251,235,cs),
(346,235,ls),
(536,235,o),
(673,322,o),
(673,413,cs),
(673,479,o),
(596,520,o),
(462,520,cs),
(189,520,ls),
(175,520,o),
(166,518,o),
(166,512,cs),
(166,508,o),
(169,505,o),
(183,503,cs),
(209,501,ls),
(248,496,o),
(248,489,o),
(241,473,cs),
(62,48,ls),
(54,27,o),
(44,22,o),
(6,20,cs),
(-16,24,ls),
(-30,22,o),
(-36,17,o),
(-36,10,cs),
(-36,4,o),
(-32,0,o),
(-22,0,cs)
);
},
{
closed = 1;
nodes = (
(334,473,ls),
(342,494,o),
(370,502,o),
(425,502,cs),
(526,502,o),
(576,473,o),
(576,421,cs),
(576,360,o),
(506,253,o),
(329,253,cs),
(264,253,o),
(247,268,o),
(258,293,cs)
);
}
);
};
layerId = m002;
shapes = (
{
closed = 1;
nodes = (
(251,0,ls),
(266,0,o),
(275,3,o),
(275,9,cs),
(275,13,o),
(271,16,o),
(263,17,cs),
(200,21,ls),
(156,24,o),
(144,30,o),
(153,51,cs),
(228,224,ls),
(231,231,o),
(239,235,o),
(255,235,cs),
(334,235,ls),
(536,235,o),
(673,315,o),
(673,406,cs),
(673,471,o),
(592,520,o),
(447,520,cs),
(189,520,ls),
(175,520,o),
(166,518,o),
(166,512,cs),
(166,508,o),
(169,505,o),
(183,503,cs),
(209,501,ls),
(248,496,o),
(248,489,o),
(241,473,cs),
(62,48,ls),
(54,27,o),
(44,22,o),
(6,20,cs),
(-16,24,ls),
(-30,22,o),
(-36,17,o),
(-36,10,cs),
(-36,4,o),
(-32,0,o),
(-22,0,cs)
);
},
{
closed = 1;
nodes = (
(334,473,ls),
(342,494,o),
(370,502,o),
(425,502,cs),
(526,502,o),
(576,466,o),
(576,413,cs),
(576,345,o),
(506,253,o),
(329,253,cs),
(264,253,o),
(247,268,o),
(258,293,cs)
);
}
);
width = 620;
}
);
unicode = 80;
},
{
glyphname = Thorn;
kernLeft = H;
lastChange = "2022-08-23 19:53:56 +0000";
layers = (
{
background = {
shapes = (
{
closed = 1;
nodes = (
(238,0,ls),
(251,0,o),
(259,3,o),
(262,8,cs),
(263,12,o),
(259,15,o),
(247,17,cs),
(191,22,ls),
(155,26,o),
(150,31,o),
(158,51,cs),
(187,123,ls),
(192,130,o),
(200,133,o),
(212,133,cs),
(307,133,ls),
(459,133,o),
(590,191,o),
(624,274,cs),
(661,359,o),
(580,418,o),
(423,418,cs),
(332,418,ls),
(320,418,o),
(315,422,o),
(317,428,cs),
(335,469,ls),
(343,489,o),
(353,494,o),
(391,498,cs),
(453,503,ls),
(466,505,o),
(473,508,o),
(475,513,cs),
(476,518,o),
(470,520,o),
(458,520,cs),
(189,520,ls),
(176,520,o),
(168,518,o),
(167,513,cs),
(164,508,o),
(168,505,o),
(179,503,cs),
(209,501,ls),
(245,497,o),
(250,493,o),
(241,473,cs),
(62,48,ls),
(54,27,o),
(44,23,o),
(6,20,cs),
(-20,23,ls),
(-29,21,o),
(-34,17,o),
(-35,11,cs),
(-37,4,o),
(-33,0,o),
(-23,0,cs)
);
},
{
closed = 1;
nodes = (
(228,151,o),
(205,164,o),
(217,191,cs),
(293,371,ls),
(301,392,o),
(331,400,o),
(386,400,cs),
(509,400,o),
(559,354,o),
(527,276,cs),
(493,199,o),
(404,151,o),
(289,151,cs)
);
}
);
};
layerId = m002;
shapes = (
{
closed = 1;
nodes = (
(238,0,ls),
(253,0,o),
(262,3,o),
(262,8,cs),
(262,12,o),
(258,15,o),
(245,17,cs),
(186,22,ls),
(151,26,o),
(147,31,o),
(153,48,cs),
(185,122,ls),
(189,129,o),
(197,133,o),
(213,133,cs),
(291,133,ls),
(493,133,o),
(631,213,o),
(631,304,cs),
(631,369,o),
(550,418,o),
(405,418,cs),
(332,418,ls),
(320,418,o),
(312,422,o),
(315,429,cs),
(334,473,ls),
(340,489,o),
(352,496,o),
(390,498,cs),
(448,503,ls),
(467,504,o),
(475,508,o),
(475,513,cs),
(475,518,o),
(469,520,o),
(457,520,cs),
(189,520,ls),
(175,520,o),
(166,518,o),
(166,512,cs),
(166,508,o),
(169,505,o),
(183,503,cs),
(209,501,ls),
(245,497,o),
(250,493,o),
(241,473,cs),
(62,48,ls),
(54,27,o),
(44,22,o),
(6,20,cs),
(-16,24,ls),
(-30,22,o),
(-36,17,o),
(-36,10,cs),
(-36,4,o),
(-32,0,o),
(-22,0,cs)
);
},
{
closed = 1;
nodes = (
(222,151,o),
(205,167,o),
(215,191,cs),
(291,371,ls),
(299,392,o),
(328,400,o),
(384,400,cs),
(483,400,o),
(535,364,o),
(535,311,cs),
(535,243,o),
(465,151,o),
(288,151,cs)
);
}
);
width = 620;
}
);
unicode = 222;
},
{
glyphname = Q;
kernLeft = O;
kernRight = O;
lastChange = "2022-09-01 19:45:32 +0000";
layers = (
{
background = {
shapes = (
{
closed = 1;
nodes = (
(506,-7,o),
(707,167,o),
(707,345,cs),
(707,465,o),
(621,527,o),
(484,527,cs),
(273,527,o),
(71,354,o),
(71,176,cs),
(71,55,o),
(158,-7,o),
(294,-7,cs)
);
},
{
closed = 1;
nodes = (
(205,12,o),
(161,51,o),
(161,128,cs),
(161,315,o),
(324,508,o),
(486,508,cs),
(574,508,o),
(618,469,o),
(618,393,cs),
(618,205,o),
(455,12,o),
(292,12,cs)
);
},
{
closed = 1;
nodes = (
(452,-156,o),
(529,-110,o),
(554,-42,cs),
(557,-34,o),
(552,-29,o),
(540,-29,cs),
(532,-29,o),
(527,-31,o),
(522,-38,cs),
(494,-88,o),
(457,-104,o),
(405,-104,cs),
(316,-104,o),
(258,-44,o),
(148,-44,c),
(166,-50,l),
(398,11,l),
(360,21,l),
(66,-51,l),
(-8,-85,o),
(-32,-108,o),
(-32,-131,cs),
(-32,-146,o),
(-22,-154,o),
(-8,-154,c),
(49,-111,o),
(74,-64,o),
(135,-64,cs),
(204,-64,o),
(213,-156,o),
(356,-156,cs)
);
}
);
};
layerId = m002;
shapes = (
{
closed = 1;
nodes = (
(452,-156,o),
(529,-110,o),
(554,-42,cs),
(557,-34,o),
(552,-29,o),
(540,-29,cs),
(532,-29,o),
(527,-31,o),
(522,-38,cs),
(494,-88,o),
(457,-104,o),
(405,-104,cs),
(336,-104,o),
(285,-68,o),
(215,-51,cs),
(198,-48,o),
(197,-41,o),
(213,-37,cs),
(292,-17,ls),
(331,-7,o),
(356,-3,o),
(394,7,cs),
(566,50,o),
(707,196,o),
(707,345,cs),
(707,465,o),
(621,527,o),
(484,527,cs),
(273,527,o),
(71,354,o),
(71,176,cs),
(71,80,o),
(126,20,o),
(220,1,cs),
(237,-3,o),
(238,-8,o),
(221,-13,cs),
(66,-51,l),
(-8,-85,o),
(-32,-108,o),
(-32,-131,cs),
(-32,-146,o),
(-22,-154,o),
(-8,-154,cs),
(49,-111,o),
(74,-64,o),
(135,-64,cs),
(204,-64,o),
(213,-156,o),
(356,-156,cs)
);
},
{
closed = 1;
nodes = (
(205,12,o),
(161,51,o),
(161,128,cs),
(161,315,o),
(324,508,o),
(486,508,cs),
(574,508,o),
(618,469,o),
(618,393,cs),
(618,205,o),
(455,12,o),
(292,12,cs)
);
}
);
width = 715;
}
);
unicode = 81;
},
{
glyphname = R;
kernLeft = H;
kernRight = R;
lastChange = "2022-09-01 20:17:03 +0000";
layers = (
{
anchors = (
{
name = bottom;
pos = (224,0);
},
{
name = top;
pos = (360,720);
}
);
background = {
shapes = (
{
closed = 1;
nodes = (
(251,0,ls),
(264,0,o),
(273,3,o),
(273,8,cs),
(273,13,o),
(267,16,o),
(254,17,cs),
(195,21,ls),
(151,25,o),
(144,31,o),
(153,51,cs),
(230,226,ls),
(237,242,o),
(254,250,o),
(292,250,cs),
(361,250,ls),
(506,250,o),
(690,315,o),
(690,409,cs),
(690,469,o),
(614,520,o),
(458,520,cs),
(189,520,ls),
(175,520,o),
(166,518,o),
(166,512,cs),
(166,508,o),
(169,505,o),
(183,503,cs),
(209,501,ls),
(245,497,o),
(250,493,o),
(241,473,cs),
(62,48,ls),
(54,27,o),
(44,22,o),
(6,20,cs),
(-16,24,ls),
(-30,22,o),
(-36,17,o),
(-36,10,cs),
(-36,4,o),
(-32,0,o),
(-22,0,cs)
);
},
{
closed = 1;
nodes = (
(277,268,o),
(251,280,o),
(263,308,cs),
(334,473,ls),
(343,494,o),
(373,502,o),
(431,502,cs),
(552,502,o),
(593,468,o),
(593,415,cs),
(593,332,o),
(470,268,o),
(338,268,cs)
);
},
{
closed = 1;
nodes = (
(584,-7,o),
(627,11,o),
(627,25,cs),
(627,32,o),
(614,36,o),
(599,30,cs),
(582,22,o),
(573,21,o),
(559,21,cs),
(522,21,o),
(500,37,o),
(500,90,cs),
(500,164,ls),
(500,214,o),
(478,238,o),
(420,250,c),
(421,254,l),
(292,250,l),
(390,250,o),
(409,234,o),
(408,156,cs),
(407,76,ls),
(406,24,o),
(458,-7,o),
(531,-7,cs)
);
}
);
};
layerId = m002;
shapes = (
{
closed = 1;
nodes = (
(584,-7,o),
(627,11,o),
(627,25,cs),
(627,32,o),
(614,36,o),
(599,30,cs),
(582,22,o),
(573,21,o),
(559,21,cs),
(522,21,o),
(500,37,o),
(500,90,cs),
(500,164,ls),
(500,207,o),
(485,232,o),
(436,246,cs),
(425,249,o),
(427,254,o),
(438,256,cs),
(568,275,o),
(690,332,o),
(690,409,cs),
(690,469,o),
(614,520,o),
(458,520,cs),
(189,520,ls),
(175,520,o),
(166,518,o),
(166,512,cs),
(166,508,o),
(169,505,o),
(183,503,cs),
(209,501,ls),
(245,497,o),
(250,493,o),
(241,473,cs),
(62,48,ls),
(54,27,o),
(44,22,o),
(6,20,cs),
(-16,24,ls),
(-30,22,o),
(-36,17,o),
(-36,10,cs),
(-36,4,o),
(-32,0,o),
(-22,0,cs),
(251,0,ls),
(264,0,o),
(273,3,o),
(273,8,cs),
(273,13,o),
(267,16,o),
(254,17,cs),
(195,21,ls),
(151,25,o),
(144,31,o),
(153,51,cs),
(230,226,ls),
(237,242,o),
(254,250,o),
(292,250,cs),
(390,250,o),
(409,234,o),
(408,156,cs),
(407,76,ls),
(406,24,o),
(458,-7,o),
(531,-7,cs)
);
},
{
closed = 1;
nodes = (
(277,268,o),
(251,280,o),
(263,308,cs),
(334,473,ls),
(343,494,o),
(373,502,o),
(431,502,cs),
(552,502,o),
(593,468,o),
(593,415,cs),
(593,332,o),
(470,268,o),
(338,268,cs)
);
}
);
width = 695;
}
);
unicode = 82;
},
{
glyphname = S;
kernLeft = S;
kernRight = S;
lastChange = "2022-09-01 20:17:08 +0000";
layers = (
{
anchors = (
{
name = bottom;
pos = (163,0);
},
{
name = top;
pos = (309,720);
}
);
background = {
shapes = (
{
closed = 1;
nodes = (
(381,-7,o),
(494,54,o),
(494,139,cs),
(494,186,o),
(444,236,o),
(360,292,cs),
(268,351,o),
(241,381,o),
(241,423,cs),
(241,460,o),
(282,507,o),
(388,507,cs),
(484,507,o),
(515,465,o),
(515,392,cs),
(515,371,ls),
(515,364,o),
(522,359,o),
(532,359,cs),
(542,359,o),
(549,364,o),
(552,370,cs),
(589,475,ls),
(592,486,o),
(589,494,o),
(575,499,cs),
(532,518,o),
(477,527,o),
(399,527,cs),
(235,527,o),
(156,464,o),
(156,405,cs),
(156,355,o),
(198,314,o),
(289,258,cs),
(363,212,o),
(408,166,o),
(408,122,cs),
(408,57,o),
(336,15,o),
(237,15,cs),
(129,15,o),
(80,51,o),
(80,129,cs),
(80,157,ls),
(80,167,o),
(76,172,o),
(64,172,cs),
(54,172,o),
(46,167,o),
(44,159,cs),
(7,46,ls),
(2,36,o),
(6,31,o),
(15,27,cs),
(56,7,o),
(153,-7,o),
(229,-7,cs)
);
}
);
};
layerId = m002;
shapes = (
{
closed = 1;
nodes = (
(381,-7,o),
(494,54,o),
(494,139,cs),
(494,186,o),
(444,236,o),
(360,292,cs),
(268,351,o),
(241,381,o),
(241,423,cs),
(241,460,o),
(282,507,o),
(388,507,cs),
(484,507,o),
(508,465,o),
(514,387,cs),
(515,371,ls),
(518,364,o),
(522,359,o),
(532,359,cs),
(542,359,o),
(549,364,o),
(552,370,cs),
(589,475,ls),
(592,486,o),
(589,494,o),
(575,499,cs),
(532,518,o),
(477,527,o),
(399,527,cs),
(235,527,o),
(156,464,o),
(156,405,cs),
(156,355,o),
(198,314,o),
(289,258,cs),
(363,212,o),
(408,166,o),
(408,122,cs),
(408,57,o),
(336,15,o),
(237,15,cs),
(129,15,o),
(86,48,o),
(82,129,cs),
(80,157,ls),
(80,167,o),
(76,172,o),
(64,172,cs),
(54,172,o),
(46,167,o),
(44,159,cs),
(7,46,ls),
(2,36,o),
(6,31,o),
(15,27,cs),
(56,7,o),
(153,-7,o),
(229,-7,cs)
);
}
);
width = 561;
}
);
unicode = 83;
},
{
glyphname = Germandbls;
lastChange = "2022-08-18 20:20:07 +0000";
layers = (
{
background = {
shapes = (
{
ref = H;
}
);
};
guides = (
{
angle = 258.4797;
pos = (181,142);
}
);
layerId = m002;
shapes = (
{
closed = 1;
nodes = (
(546,-7,o),
(641,54,o),
(641,125,cs),
(641,191,o),
(582,244,o),
(485,304,c),
(475,275,l),
(760,431,l),
(711,497,o),
(634,527,o),
(515,527,cs),
(334,527,o),
(237,457,o),
(194,358,cs),
(62,48,ls),
(53,27,o),
(44,22,o),
(6,20,cs),
(-16,24,ls),
(-30,22,o),
(-36,17,o),
(-36,10,cs),
(-36,4,o),
(-32,0,o),
(-22,0,cs),
(108,0,ls),
(126,0,o),
(135,3,o),
(139,13,cs),
(290,369,ls),
(331,466,o),
(407,507,o),
(508,507,cs),
(600,507,o),
(658,465,o),
(674,405,c),
(706,433,l),
(413,272,l),
(434,258,ls),
(506,212,o),
(554,166,o),
(554,109,cs),
(554,57,o),
(501,15,o),
(415,15,cs),
(334,15,o),
(304,48,o),
(297,108,cs),
(292,136,ls),
(291,146,o),
(285,150,o),
(275,150,cs),
(264,150,o),
(255,146,o),
(253,138,cs),
(218,46,ls),
(214,36,o),
(217,31,o),
(227,27,cs),
(268,7,o),
(332,-7,o),
(407,-7,cs)
);
}
);
width = 712;
}
);
metricLeft = H;
metricRight = S;
unicode = 7838;
},
{
glyphname = T;
kernLeft = T;
kernRight = T;
lastChange = "2022-09-01 21:02:25 +0000";
layers = (
{
anchors = (
{
name = bottom;
pos = (172,0);
},
{
name = center;
pos = (255,360);
},
{
name = top;
pos = (338,720);
}
);
background = {
shapes = (
{
closed = 1;
nodes = (
(385,0,ls),
(398,0,o),
(406,3,o),
(406,8,cs),
(406,12,o),
(402,16,o),
(391,17,cs),
(329,22,ls),
(297,25,o),
(284,30,o),
(293,50,cs),
(477,484,ls),
(483,497,o),
(493,502,o),
(527,502,cs),
(606,502,o),
(659,487,o),
(649,421,cs),
(642,381,ls),
(641,375,o),
(645,371,o),
(656,371,cs),
(667,371,o),
(676,376,o),
(678,383,cs),
(721,514,ls),
(724,525,o),
(720,531,o),
(705,531,cs),
(688,531,o),
(678,520,o),
(593,520,cs),
(299,520,ls),
(214,520,o),
(220,531,o),
(195,531,cs),
(183,531,o),
(172,525,o),
(167,514,cs),
(100,383,ls),
(97,376,o),
(102,371,o),
(113,371,cs),
(123,371,o),
(131,375,o),
(135,381,cs),
(166,421,ls),
(213,484,o),
(284,502,o),
(351,502,cs),
(384,502,o),
(391,497,o),
(386,484,cs),
(202,50,ls),
(194,30,o),
(179,25,o),
(144,22,cs),
(89,17,ls),
(76,15,o),
(68,12,o),
(68,7,cs),
(68,3,o),
(72,0,o),
(86,0,cs)
);
}
);
};
layerId = m002;
shapes = (
{
closed = 1;
nodes = (
(385,0,ls),
(398,0,o),
(406,3,o),
(406,8,cs),
(406,12,o),
(402,16,o),
(391,17,cs),
(329,22,ls),
(297,25,o),
(284,30,o),
(293,50,cs),
(477,484,ls),
(483,497,o),
(493,502,o),
(527,502,cs),
(606,502,o),
(654,469,o),
(644,399,cs),
(642,381,ls),
(641,375,o),
(645,371,o),
(656,371,cs),
(667,371,o),
(676,376,o),
(678,383,cs),
(721,514,ls),
(724,525,o),
(720,531,o),
(705,531,cs),
(688,531,o),
(678,520,o),
(593,520,cs),
(299,520,ls),
(214,520,o),
(220,531,o),
(195,531,cs),
(183,531,o),
(172,525,o),
(167,514,cs),
(100,383,ls),
(97,376,o),
(102,371,o),
(113,371,cs),
(123,371,o),
(131,375,o),
(135,381,cs),
(156,408,ls),
(212,480,o),
(291,502,o),
(351,502,cs),
(384,502,o),
(391,497,o),
(386,484,cs),
(202,50,ls),
(194,30,o),
(179,25,o),
(144,22,cs),
(89,17,ls),
(76,15,o),
(68,12,o),
(68,7,cs),
(68,3,o),
(72,0,o),
(86,0,cs)
);
}
);
width = 610;
}
);
unicode = 84;
},
{
glyphname = U;
kernLeft = U;
kernRight = U;
lastChange = "2022-09-01 20:54:19 +0000";
layers = (
{
anchors = (
{
name = bottom;
pos = (210,0);
},
{
name = ogonek;
pos = (286,0);
},
{
name = top;
pos = (396,720);
},
{
name = topright;
pos = (588,450);
}
);
background = {
shapes = (
{
closed = 1;
nodes = (
(427,-7,o),
(545,51,o),
(582,139,cs),
(716,458,ls),
(729,484,o),
(747,498,o),
(780,501,cs),
(812,503,ls),
(823,505,o),
(830,507,o),
(833,513,cs),
(835,518,o),
(829,520,o),
(816,520,cs),
(626,520,ls),
(612,520,o),
(605,518,o),
(601,512,cs),
(600,507,o),
(605,504,o),
(614,503,cs),
(649,501,ls),
(678,498,o),
(687,484,o),
(674,457,cs),
(539,138,ls),
(509,65,o),
(427,22,o),
(319,22,cs),
(212,22,o),
(167,65,o),
(197,138,cs),
(338,472,ls),
(346,492,o),
(359,498,o),
(396,501,cs),
(432,503,ls),
(442,504,o),
(448,507,o),
(450,512,cs),
(452,518,o),
(447,520,o),
(434,520,cs),
(192,520,ls),
(177,520,o),
(168,518,o),
(168,512,cs),
(168,508,o),
(172,505,o),
(185,503,cs),
(212,501,ls),
(247,497,o),
(253,493,o),
(245,473,cs),
(103,139,ls),
(68,53,o),
(141,-7,o),
(284,-7,cs)
);
}
);
};
layerId = m002;
shapes = (
{
closed = 1;
nodes = (
(446,-7,o),
(545,51,o),
(582,139,cs),
(716,458,ls),
(729,484,o),
(747,498,o),
(780,501,cs),
(812,503,ls),
(827,505,o),
(833,507,o),
(833,513,cs),
(833,518,o),
(827,520,o),
(816,520,cs),
(626,520,ls),
(612,520,o),
(600,518,o),
(600,512,cs),
(600,507,o),
(607,503,o),
(619,503,cs),
(649,501,ls),
(678,498,o),
(687,484,o),
(674,457,cs),
(539,138,ls),
(509,65,o),
(440,22,o),
(325,22,cs),
(220,22,o),
(162,65,o),
(194,138,cs),
(336,472,ls),
(345,492,o),
(355,498,o),
(393,501,cs),
(430,503,ls),
(440,504,o),
(448,508,o),
(448,513,cs),
(448,518,o),
(443,520,o),
(430,520,cs),
(192,520,ls),
(177,520,o),
(168,518,o),
(168,512,cs),
(168,508,o),
(172,505,o),
(185,503,cs),
(212,501,ls),
(247,497,o),
(253,493,o),
(245,473,cs),
(103,139,ls),
(66,53,o),
(155,-7,o),
(298,-7,cs)
);
}
);
width = 711;
}
);
unicode = 85;
},
{
glyphname = V;
lastChange = "2022-09-01 20:54:24 +0000";
layers = (
{
background = {
shapes = (
{
closed = 1;
nodes = (
(229,-7,o),
(239,-5,o),
(247,4,cs),
(643,456,ls),
(667,483,o),
(689,498,o),
(724,502,cs),
(746,503,ls),
(758,505,o),
(767,507,o),
(767,513,cs),
(767,518,o),
(761,520,o),
(751,520,cs),
(559,520,ls),
(545,520,o),
(537,517,o),
(537,513,cs),
(537,508,o),
(540,505,o),
(557,503,cs),
(575,502,ls),
(615,499,o),
(623,484,o),
(599,456,cs),
(294,110,l),
(289,110,l),
(282,472,ls),
(282,493,o),
(291,501,o),
(321,502,cs),
(347,503,ls),
(363,504,o),
(374,507,o),
(374,513,cs),
(374,518,o),
(369,520,o),
(356,520,cs),
(139,520,ls),
(124,520,o),
(116,518,o),
(116,513,cs),
(116,508,o),
(122,505,o),
(132,503,cs),
(150,502,ls),
(183,497,o),
(191,489,o),
(192,462,cs),
(206,4,ls),
(206,-5,o),
(214,-7,o),
(222,-7,cs)
);
}
);
};
layerId = m002;
shapes = (
{
closed = 1;
nodes = (
(229,-7,o),
(239,-5,o),
(247,4,cs),
(643,456,ls),
(667,483,o),
(689,498,o),
(724,502,cs),
(746,503,ls),
(758,505,o),
(767,507,o),
(767,513,cs),
(767,518,o),
(761,520,o),
(751,520,cs),
(559,520,ls),
(545,520,o),
(537,517,o),
(537,513,cs),
(537,508,o),
(540,505,o),
(557,503,cs),
(575,502,ls),
(615,499,o),
(623,484,o),
(599,456,cs),
(309,128,ls),
(302,119,o),
(289,121,o),
(289,130,cs),
(282,472,ls),
(282,493,o),
(291,501,o),
(321,502,cs),
(347,503,ls),
(363,504,o),
(374,507,o),
(374,513,cs),
(374,518,o),
(369,520,o),
(356,520,cs),
(139,520,ls),
(124,520,o),
(116,518,o),
(116,513,cs),
(116,508,o),
(122,505,o),
(132,503,cs),
(150,502,ls),
(183,497,o),
(191,489,o),
(192,462,cs),
(206,4,ls),
(206,-5,o),
(214,-7,o),
(222,-7,cs)
);
}
);
width = 606;
}
);
unicode = 86;
},
{
glyphname = W;
kernLeft = W;
kernRight = W;
lastChange = "2022-09-01 20:54:28 +0000";
layers = (
{
anchors = (
{
name = bottom;
pos = (268,0);
},
{
name = top;
pos = (444,720);
}
);
background = {
shapes = (
{
closed = 1;
nodes = (
(499,-7,o),
(506,-5,o),
(514,4,cs),
(911,456,ls),
(945,495,o),
(959,502,o),
(984,503,cs),
(998,503,ls),
(1017,504,o),
(1025,507,o),
(1025,513,cs),
(1025,518,o),
(1018,520,o),
(1006,520,cs),
(857,520,ls),
(843,520,o),
(835,518,o),
(835,513,cs),
(835,508,o),
(839,505,o),
(852,503,cs),
(865,502,ls),
(896,498,o),
(894,484,o),
(871,456,cs),
(568,113,l),
(559,113,l),
(553,472,ls),
(553,493,o),
(559,500,o),
(582,502,cs),
(598,503,ls),
(614,505,o),
(621,508,o),
(621,513,cs),
(621,518,o),
(616,520,o),
(605,520,cs),
(427,520,ls),
(412,520,o),
(404,517,o),
(404,512,cs),
(404,507,o),
(408,505,o),
(421,503,cs),
(438,502,ls),
(458,499,o),
(461,489,o),
(462,462,cs),
(477,4,ls),
(477,-5,o),
(484,-7,o),
(492,-7,cs)
);
},
{
closed = 1;
nodes = (
(521,344,l),
(294,109,l),
(289,109,l),
(281,472,ls),
(281,493,o),
(298,499,o),
(328,502,cs),
(344,503,ls),
(356,505,o),
(368,508,o),
(368,513,cs),
(368,518,o),
(362,520,o),
(351,520,cs),
(139,520,ls),
(126,520,o),
(116,518,o),
(116,513,cs),
(116,508,o),
(122,505,o),
(132,503,cs),
(150,502,ls),
(183,497,o),
(191,489,o),
(192,462,cs),
(206,4,ls),
(206,-5,o),
(214,-7,o),
(222,-7,cs),
(229,-7,o),
(236,-5,o),
(245,4,cs),
(531,312,l)
);
},
{
closed = 1;
nodes = (
(535,286,l),
(697,456,ls),
(727,489,o),
(744,502,o),
(769,503,cs),
(784,503,ls),
(802,504,o),
(811,507,o),
(811,513,cs),
(811,518,o),
(805,520,o),
(790,520,cs),
(665,520,ls),
(651,520,o),
(643,518,o),
(643,513,cs),
(643,508,o),
(649,505,o),
(660,503,cs),
(673,502,ls),
(689,501,o),
(693,493,o),
(659,456,cs),
(526,318,l)
);
}
);
};
layerId = m002;
shapes = (
{
closed = 1;
nodes = (
(499,-7,o),
(506,-5,o),
(514,4,cs),
(911,456,ls),
(945,495,o),
(959,502,o),
(984,503,cs),
(998,503,ls),
(1017,504,o),
(1025,507,o),
(1025,513,cs),
(1025,518,o),
(1018,520,o),
(1006,520,cs),
(857,520,ls),
(843,520,o),
(835,518,o),
(835,513,cs),
(835,508,o),
(839,505,o),
(852,503,cs),
(865,502,ls),
(896,498,o),
(894,484,o),
(871,456,cs),
(581,128,ls),
(574,119,o),
(559,120,o),
(559,128,cs),
(557,248,ls),
(555,292,o),
(570,321,o),
(606,360,cs),
(697,456,ls),
(727,489,o),
(744,502,o),
(769,503,cs),
(784,503,ls),
(802,504,o),
(811,507,o),
(811,513,cs),
(811,518,o),
(805,520,o),
(790,520,cs),
(665,520,ls),
(651,520,o),
(643,518,o),
(643,513,cs),
(643,508,o),
(649,505,o),
(660,503,cs),
(673,502,ls),
(689,501,o),
(693,493,o),
(659,456,cs),
(576,371,ls),
(568,363,o),
(555,364,o),
(555,374,cs),
(553,472,ls),
(553,493,o),
(559,500,o),
(582,502,cs),
(598,503,ls),
(614,505,o),
(621,508,o),
(621,513,cs),
(621,518,o),
(616,520,o),
(605,520,cs),
(427,520,ls),
(412,520,o),
(404,517,o),
(404,512,cs),
(404,507,o),
(408,505,o),
(421,503,cs),
(438,502,ls),
(458,499,o),
(461,489,o),
(462,462,cs),
(467,349,ls),
(468,306,o),
(453,275,o),
(417,238,cs),
(309,124,ls),
(301,116,o),
(289,117,o),
(289,126,cs),
(281,472,ls),
(281,493,o),
(298,499,o),
(328,502,cs),
(344,503,ls),
(356,505,o),
(368,508,o),
(368,513,cs),
(368,518,o),
(362,520,o),
(351,520,cs),
(139,520,ls),
(126,520,o),
(116,518,o),
(116,513,cs),
(116,508,o),
(122,505,o),
(132,503,cs),
(150,502,ls),
(183,497,o),
(191,489,o),
(192,462,cs),
(206,4,ls),
(206,-5,o),
(214,-7,o),
(222,-7,cs),
(229,-7,o),
(236,-5,o),
(245,4,cs),
(448,223,ls),
(458,232,o),
(470,230,o),
(470,219,cs),
(477,4,ls),
(477,-5,o),
(484,-7,o),
(492,-7,cs)
);
}
);
width = 864;
}
);
unicode = 87;
},
{
glyphname = X;
lastChange = "2022-09-01 20:54:34 +0000";
layers = (
{
background = {
shapes = (
{
closed = 1;
nodes = (
(596,0,ls),
(612,0,o),
(621,3,o),
(621,8,cs),
(621,13,o),
(616,17,o),
(605,17,cs),
(580,20,ls),
(559,21,o),
(539,26,o),
(530,48,cs),
(362,472,ls),
(354,490,o),
(370,498,o),
(402,502,cs),
(429,503,ls),
(443,505,o),
(452,508,o),
(455,513,cs),
(457,518,o),
(450,520,o),
(434,520,cs),
(205,520,ls),
(191,520,o),
(182,518,o),
(179,513,cs),
(177,508,o),
(183,505,o),
(197,503,cs),
(221,502,ls),
(244,499,o),
(262,494,o),
(270,472,cs),
(438,48,ls),
(444,31,o),
(427,22,o),
(396,20,cs),
(369,17,ls),
(352,16,o),
(344,13,o),
(344,8,cs),
(344,3,o),
(351,0,o),
(363,0,cs)
);
},
{
closed = 1;
nodes = (
(193,0,ls),
(210,0,o),
(218,3,o),
(218,8,cs),
(218,13,o),
(213,16,o),
(201,17,cs),
(166,22,ls),
(133,26,o),
(136,34,o),
(161,55,cs),
(361,225,l),
(386,225,l),
(345,283,l),
(353,261,o),
(346,251,o),
(331,238,cs),
(125,65,ls),
(91,37,o),
(56,26,o),
(-2,28,cs),
(-18,25,ls),
(-30,23,o),
(-36,18,o),
(-36,11,cs),
(-36,6,o),
(-33,0,o),
(-21,0,cs)
);
},
{
closed = 1;
nodes = (
(442,271,o),
(448,281,o),
(465,294,cs),
(658,455,ls),
(691,484,o),
(726,495,o),
(773,500,cs),
(793,502,ls),
(810,503,o),
(816,507,o),
(818,512,cs),
(820,516,o),
(816,520,o),
(797,520,cs),
(592,520,ls),
(575,520,o),
(567,518,o),
(566,513,cs),
(564,508,o),
(568,505,o),
(584,503,cs),
(619,498,ls),
(651,494,o),
(649,485,o),
(623,465,cs),
(434,306,l),
(408,306,l),
(451,248,l)
);
}
);
};
layerId = m002;
shapes = (
{
closed = 1;
nodes = (
(193,0,ls),
(210,0,o),
(218,3,o),
(218,8,cs),
(218,13,o),
(213,16,o),
(201,17,cs),
(166,22,ls),
(133,26,o),
(136,34,o),
(161,55,cs),
(353,219,ls),
(360,224,o),
(368,224,o),
(370,218,cs),
(438,48,ls),
(444,31,o),
(427,22,o),
(396,20,cs),
(369,17,ls),
(352,16,o),
(344,13,o),
(344,8,cs),
(344,3,o),
(351,0,o),
(363,0,cs),
(596,0,ls),
(612,0,o),
(621,3,o),
(621,8,cs),
(621,13,o),
(616,17,o),
(605,17,cs),
(580,20,ls),
(559,21,o),
(539,26,o),
(530,48,cs),
(451,248,ls),
(442,271,o),
(448,281,o),
(465,294,cs),
(658,455,ls),
(691,484,o),
(726,495,o),
(773,500,cs),
(793,502,ls),
(810,503,o),
(816,507,o),
(818,512,cs),
(820,516,o),
(816,520,o),
(797,520,cs),
(592,520,ls),
(575,520,o),
(567,518,o),
(566,513,cs),
(564,508,o),
(568,505,o),
(584,503,cs),
(619,498,ls),
(651,494,o),
(649,485,o),
(623,465,cs),
(442,314,ls),
(435,309,o),
(427,310,o),
(425,314,cs),
(362,472,ls),
(354,490,o),
(370,498,o),
(402,502,cs),
(429,503,ls),
(443,505,o),
(452,508,o),
(455,513,cs),
(457,518,o),
(450,520,o),
(434,520,cs),
(205,520,ls),
(191,520,o),
(182,518,o),
(179,513,cs),
(177,508,o),
(183,505,o),
(197,503,cs),
(221,502,ls),
(244,499,o),
(262,494,o),
(270,472,cs),
(346,277,ls),
(353,258,o),
(345,249,o),
(331,238,cs),
(125,65,ls),
(91,37,o),
(56,26,o),
(-2,28,cs),
(-18,25,ls),
(-30,23,o),
(-36,18,o),
(-36,11,cs),
(-36,6,o),
(-33,0,o),
(-21,0,cs)
);
}
);
width = 721;
}
);
unicode = 88;
},
{
glyphname = Y;
kernLeft = Y;
kernRight = Y;
lastChange = "2022-09-01 21:02:35 +0000";
layers = (
{
anchors = (
{
name = bottom;
pos = (180,0);
},
{
name = top;
pos = (356,720);
},
{
name = topleft;
pos = (127,720);
}
);
background = {
shapes = (
{
closed = 1;
nodes = (
(389,0,ls),
(405,0,o),
(413,3,o),
(413,8,cs),
(413,13,o),
(407,15,o),
(393,17,cs),
(342,22,ls),
(308,26,o),
(299,30,o),
(307,50,cs),
(381,226,ls),
(388,241,o),
(398,252,o),
(416,266,cs),
(670,456,ls),
(713,488,o),
(733,500,o),
(758,502,cs),
(773,503,ls),
(787,505,o),
(795,508,o),
(795,513,cs),
(795,518,o),
(788,520,o),
(776,520,cs),
(585,520,ls),
(573,520,o),
(565,518,o),
(565,513,cs),
(565,508,o),
(572,504,o),
(583,503,cs),
(611,502,ls),
(651,498,o),
(656,481,o),
(623,456,cs),
(378,272,l),
(369,272,l),
(282,472,ls),
(273,492,o),
(291,501,o),
(321,502,cs),
(347,503,ls),
(367,504,o),
(374,508,o),
(374,513,cs),
(374,518,o),
(369,520,o),
(356,520,cs),
(139,520,ls),
(125,520,o),
(115,518,o),
(115,513,cs),
(115,508,o),
(121,505,o),
(131,503,cs),
(141,502,ls),
(169,498,o),
(178,490,o),
(185,474,cs),
(285,252,ls),
(291,241,o),
(292,232,o),
(288,220,cs),
(215,50,ls),
(208,30,o),
(193,25,o),
(158,22,cs),
(95,17,ls),
(83,16,o),
(76,12,o),
(76,7,cs),
(76,3,o),
(80,0,o),
(94,0,cs)
);
}
);
};
layerId = m002;
shapes = (
{
closed = 1;
nodes = (
(389,0,ls),
(405,0,o),
(413,3,o),
(413,8,cs),
(413,13,o),
(407,15,o),
(393,17,cs),
(342,22,ls),
(308,26,o),
(299,30,o),
(307,50,cs),
(381,226,ls),
(388,241,o),
(398,252,o),
(416,266,cs),
(670,456,ls),
(713,488,o),
(733,500,o),
(758,502,cs),
(773,503,ls),
(787,505,o),
(795,508,o),
(795,513,cs),
(795,518,o),
(788,520,o),
(776,520,cs),
(585,520,ls),
(573,520,o),
(565,518,o),
(565,513,cs),
(565,508,o),
(572,504,o),
(583,503,cs),
(611,502,ls),
(651,498,o),
(656,481,o),
(623,456,cs),
(389,280,ls),
(379,272,o),
(368,274,o),
(365,280,cs),
(282,472,ls),
(273,492,o),
(291,501,o),
(321,502,cs),
(347,503,ls),
(367,504,o),
(374,508,o),
(374,513,cs),
(374,518,o),
(369,520,o),
(356,520,cs),
(139,520,ls),
(125,520,o),
(115,518,o),
(115,513,cs),
(115,508,o),
(121,505,o),
(131,503,cs),
(141,502,ls),
(169,498,o),
(178,490,o),
(185,474,cs),
(285,252,ls),
(291,241,o),
(292,232,o),
(288,220,cs),
(215,50,ls),
(208,30,o),
(193,25,o),
(158,22,cs),
(95,17,ls),
(83,16,o),
(76,12,o),
(76,7,cs),
(76,3,o),
(80,0,o),
(94,0,cs)
);
}
);
width = 632;
}
);
unicode = 89;
},
{
glyphname = Z;
kernLeft = Z;
kernRight = Z;
lastChange = "2022-08-31 20:25:35 +0000";
layers = (
{
anchors = (
{
name = bottom;
pos = (155,0);
},
{
name = center;
pos = (238,360);
},
{
name = top;
pos = (321,720);
}
);
background = {
shapes = (
{
closed = 1;
nodes = (
(404,0,ls),
(423,0,o),
(438,6,o),
(443,17,cs),
(518,152,ls),
(521,161,o),
(513,165,o),
(504,165,cs),
(493,165,o),
(488,162,o),
(483,156,cs),
(429,93,ls),
(377,32,o),
(324,22,o),
(247,22,cs),
(63,22,l),
(64,26,l),
(654,499,ls),
(670,513,o),
(662,520,o),
(637,520,cs),
(345,520,ls),
(263,520,o),
(267,535,o),
(246,535,cs),
(230,535,o),
(223,529,o),
(217,518,cs),
(136,383,ls),
(131,376,o),
(139,371,o),
(150,371,cs),
(160,371,o),
(166,375,o),
(170,381,cs),
(205,416,ls),
(267,482,o),
(329,498,o),
(396,498,cs),
(549,498,l),
(547,495,l),
(-31,29,ls),
(-43,11,o),
(-38,0,o),
(-19,0,cs)
);
}
);
};
layerId = m002;
shapes = (
{
closed = 1;
nodes = (
(404,0,ls),
(423,0,o),
(438,6,o),
(443,17,cs),
(518,152,ls),
(521,161,o),
(513,165,o),
(504,165,cs),
(493,165,o),
(488,162,o),
(483,156,cs),
(429,93,ls),
(379,35,o),
(310,22,o),
(235,22,cs),
(89,22,ls),
(74,22,o),
(68,26,o),
(77,34,cs),
(654,499,ls),
(670,513,o),
(662,520,o),
(637,520,cs),
(345,520,ls),
(263,520,o),
(267,535,o),
(246,535,cs),
(230,535,o),
(223,529,o),
(217,518,cs),
(136,383,ls),
(131,376,o),
(139,371,o),
(150,371,cs),
(160,371,o),
(166,375,o),
(170,381,cs),
(205,416,ls),
(267,482,o),
(329,498,o),
(408,498,cs),
(528,498,ls),
(540,498,o),
(546,494,o),
(537,486,cs),
(-31,29,ls),
(-43,11,o),
(-38,0,o),
(-19,0,cs)
);
}
);
width = 565;
}
);
unicode = 90;
},
{
glyphname = a;
kernLeft = a;
kernRight = a;
lastChange = "2022-09-01 20:17:48 +0000";
layers = (
{
anchors = (
{
name = bottom;
pos = (178,0);
},
{
name = ogonek;
pos = (363,0);
},
{
name = top;
pos = (296,510);
}
);
background = {
shapes = (
{
closed = 1;
nodes = (
(186,-7,o),
(255,26,o),
(327,98,cs),
(367,138,l),
(407,138,l),
(488,340,l),
(478,340,l),
(461,361,o),
(429,373,o),
(384,373,cs),
(212,373,o),
(17,219,o),
(17,82,cs),
(17,24,o),
(54,-7,o),
(118,-7,cs)
);
},
{
closed = 1;
nodes = (
(125,31,o),
(107,40,o),
(107,74,cs),
(107,199,o),
(263,354,o),
(379,354,cs),
(415,354,o),
(436,339,o),
(436,311,cs),
(436,230,o),
(256,31,o),
(151,31,cs)
);
},
{
closed = 1;
nodes = (
(599,128,o),
(597,134,o),
(584,134,cs),
(575,134,o),
(570,132,o),
(567,127,cs),
(535,64,o),
(504,35,o),
(462,35,cs),
(430,35,o),
(423,51,o),
(436,82,cs),
(554,359,ls),
(557,365,o),
(550,369,o),
(540,369,cs),
(530,369,o),
(522,366,o),
(512,359,cs),
(447,313,l),
(350,82,ls),
(325,27,o),
(359,-7,o),
(427,-7,cs),
(506,-7,o),
(562,30,o),
(597,120,cs)
);
}
);
};
guides = (
{
angle = -26.565;
pos = (205,61);
showMeasurement = 1;
}
);
layerId = m002;
shapes = (
{
closed = 1;
nodes = (
(185,-7,o),
(255,26,o),
(353,124,cs),
(359,130,o),
(369,128,o),
(367,122,cs),
(350,82,ls),
(325,27,o),
(359,-7,o),
(427,-7,cs),
(506,-7,o),
(562,30,o),
(597,120,cs),
(599,128,o),
(597,134,o),
(584,134,cs),
(575,134,o),
(570,132,o),
(567,127,cs),
(535,64,o),
(504,35,o),
(462,35,cs),
(430,35,o),
(423,51,o),
(436,82,cs),
(554,359,ls),
(557,365,o),
(550,369,o),
(540,369,cs),
(530,369,o),
(520,366,o),
(500,350,cs),
(494,346,o),
(491,344,o),
(484,344,cs),
(477,344,o),
(474,346,o),
(468,350,cs),
(448,366,o),
(416,373,o),
(384,373,cs),
(212,373,o),
(17,219,o),
(17,82,cs),
(17,24,o),
(54,-7,o),
(117,-7,cs)
);
},
{
closed = 1;
nodes = (
(123,31,o),
(107,40,o),
(107,74,cs),
(107,199,o),
(263,354,o),
(379,354,cs),
(415,354,o),
(436,339,o),
(436,311,cs),
(436,230,o),
(256,31,o),
(151,31,cs)
);
}
);
width = 627;
}
);
unicode = 97;
},
{
glyphname = ae;
kernLeft = a;
kernRight = e;
lastChange = "2022-08-23 19:55:07 +0000";
layers = (
{
layerId = m002;
shapes = (
{
closed = 1;
nodes = (
(187,-7,o),
(262,26,o),
(360,124,cs),
(408,173,o),
(421,181,o),
(478,180,c),
(554,359,ls),
(557,365,o),
(550,369,o),
(540,369,cs),
(530,369,o),
(520,366,o),
(500,350,cs),
(494,346,o),
(491,344,o),
(484,344,cs),
(477,344,o),
(474,346,o),
(468,350,cs),
(448,366,o),
(416,373,o),
(384,373,cs),
(212,373,o),
(17,219,o),
(17,82,cs),
(17,24,o),
(56,-7,o),
(121,-7,cs)
);
},
{
closed = 1;
nodes = (
(123,31,o),
(107,40,o),
(107,74,cs),
(107,199,o),
(263,354,o),
(379,354,cs),
(415,354,o),
(436,339,o),
(436,311,cs),
(436,230,o),
(256,31,o),
(151,31,cs)
);
},
{
closed = 1;
nodes = (
(623,-7,o),
(705,37,o),
(761,122,cs),
(766,128,o),
(764,134,o),
(752,134,cs),
(744,134,o),
(739,133,o),
(737,128,cs),
(695,65,o),
(627,31,o),
(561,31,cs),
(501,31,o),
(465,60,o),
(465,114,cs),
(465,121,o),
(465,128,o),
(466,135,cs),
(467,145,o),
(477,151,o),
(496,153,cs),
(696,178,o),
(829,247,o),
(829,313,cs),
(829,349,o),
(795,373,o),
(713,373,cs),
(559,373,o),
(373,236,o),
(373,109,cs),
(373,35,o),
(434,-7,o),
(528,-7,cs)
);
},
{
closed = 1;
nodes = (
(519,272,o),
(626,354,o),
(704,354,cs),
(734,354,o),
(747,344,o),
(747,325,cs),
(747,265,o),
(661,195,o),
(497,171,cs),
(484,168,o),
(475,173,o),
(478,180,cs)
);
}
);
width = 818;
}
);
metricRight = e;
unicode = 230;
},
{
glyphname = b;
kernRight = o;
lastChange = "2022-09-01 20:59:06 +0000";
layers = (
{
background = {
shapes = (
{
closed = 1;
nodes = (
(352,-7,o),
(553,147,o),
(553,285,cs),
(553,343,o),
(512,373,o),
(447,373,cs),
(379,373,o),
(314,341,o),
(241,272,cs),
(209,240,ls),
(204,234,o),
(193,235,o),
(195,242,cs),
(316,526,ls),
(319,533,o),
(314,537,o),
(304,537,cs),
(297,537,o),
(291,536,o),
(284,532,cs),
(254,518,o),
(204,512,o),
(140,506,cs),
(130,505,o),
(123,502,o),
(122,498,cs),
(121,493,o),
(125,489,o),
(139,489,cs),
(178,486,ls),
(204,484,o),
(210,479,o),
(202,462,cs),
(54,115,ls),
(20,34,o),
(90,-7,o),
(179,-7,cs)
);
},
{
closed = 1;
nodes = (
(148,12,o),
(126,27,o),
(126,55,cs),
(126,150,o),
(316,335,o),
(413,335,cs),
(448,335,o),
(460,321,o),
(460,286,cs),
(460,167,o),
(300,12,o),
(184,12,cs)
);
}
);
};
guides = (
{
angle = 90;
pos = (370,382);
}
);
layerId = m002;
shapes = (
{
closed = 1;
nodes = (
(352,-7,o),
(553,147,o),
(553,285,cs),
(553,343,o),
(512,373,o),
(447,373,cs),
(379,373,o),
(306,341,o),
(209,240,cs),
(204,234,o),
(193,235,o),
(195,242,cs),
(316,526,ls),
(319,533,o),
(314,537,o),
(304,537,cs),
(297,537,o),
(291,536,o),
(284,532,cs),
(254,518,o),
(204,512,o),
(140,506,cs),
(130,505,o),
(123,502,o),
(122,498,cs),
(121,493,o),
(125,489,o),
(139,489,cs),
(178,486,ls),
(204,484,o),
(210,479,o),
(202,462,cs),
(54,115,ls),
(20,34,o),
(90,-7,o),
(179,-7,cs)
);
},
{
closed = 1;
nodes = (
(148,12,o),
(126,27,o),
(126,55,cs),
(126,150,o),
(316,335,o),
(413,335,cs),
(448,335,o),
(460,321,o),
(460,286,cs),
(460,167,o),
(300,12,o),
(184,12,cs)
);
}
);
width = 570;
}
);
unicode = 98;
},
{
glyphname = c;
kernLeft = o;
kernRight = c;
lastChange = "2022-09-01 20:18:01 +0000";
layers = (
{
anchors = (
{
name = bottom;
pos = (131,0);
},
{
name = top;
pos = (265,510);
}
);
background = {
shapes = (
{
closed = 1;
nodes = (
(292,-7,o),
(389,51,o),
(416,129,cs),
(422,142,o),
(421,145,o),
(409,145,cs),
(400,145,o),
(394,143,o),
(391,138,cs),
(344,65,o),
(290,31,o),
(221,31,cs),
(150,31,o),
(113,63,o),
(113,122,cs),
(113,234,o),
(230,354,o),
(338,354,cs),
(384,354,o),
(397,338,o),
(397,277,cs),
(397,248,ls),
(397,241,o),
(402,238,o),
(413,238,cs),
(421,238,o),
(425,241,o),
(429,247,cs),
(465,342,ls),
(467,349,o),
(466,350,o),
(458,354,cs),
(427,367,o),
(396,373,o),
(351,373,cs),
(191,373,o),
(20,240,o),
(20,110,cs),
(20,42,o),
(90,-7,o),
(187,-7,cs)
);
}
);
};
guides = (
{
angle = 78.25;
pos = (337,405);
}
);
layerId = m002;
shapes = (
{
closed = 1;
nodes = (
(292,-7,o),
(389,51,o),
(416,129,cs),
(422,142,o),
(421,145,o),
(409,145,cs),
(400,145,o),
(394,143,o),
(391,138,cs),
(344,65,o),
(290,31,o),
(221,31,cs),
(150,31,o),
(113,63,o),
(113,122,cs),
(113,234,o),
(229,353,o),
(329,353,cs),
(365,353,o),
(382,343,o),
(388,299,cs),
(394,248,ls),
(396,241,o),
(400,237,o),
(412,237,cs),
(420,237,o),
(425,241,o),
(429,247,cs),
(465,342,ls),
(467,349,o),
(466,350,o),
(458,354,cs),
(427,367,o),
(396,373,o),
(351,373,cs),
(191,373,o),
(20,240,o),
(20,110,cs),
(20,42,o),
(90,-7,o),
(187,-7,cs)
);
}
);
width = 465;
}
);
unicode = 99;
},
{
glyphname = d;
kernLeft = o;
kernRight = d;
lastChange = "2022-09-01 20:59:12 +0000";
layers = (
{
anchors = (
{
name = bottom;
pos = (178,0);
},
{
name = center;
pos = (237,255);
},
{
name = top;
pos = (349,740);
},
{
name = topright;
pos = (501,740);
}
);
background = {
shapes = (
{
closed = 1;
nodes = (
(186,-7,o),
(255,26,o),
(327,98,cs),
(360,131,l),
(400,131,l),
(488,340,l),
(478,340,l),
(461,361,o),
(429,373,o),
(384,373,cs),
(212,373,o),
(17,219,o),
(17,82,cs),
(17,24,o),
(54,-7,o),
(118,-7,cs)
);
},
{
closed = 1;
nodes = (
(125,31,o),
(107,40,o),
(107,74,cs),
(107,199,o),
(263,354,o),
(379,354,cs),
(415,354,o),
(436,339,o),
(436,311,cs),
(436,230,o),
(256,31,o),
(151,31,cs)
);
},
{
closed = 1;
nodes = (
(345,82,ls),
(321,27,o),
(354,-7,o),
(423,-7,cs),
(503,-7,o),
(562,30,o),
(597,120,cs),
(599,128,o),
(597,134,o),
(584,134,cs),
(575,134,o),
(570,132,o),
(567,127,cs),
(535,64,o),
(504,35,o),
(462,35,cs),
(430,35,o),
(423,51,o),
(436,82,cs),
(624,526,ls),
(627,533,o),
(621,537,o),
(612,537,cs),
(605,537,o),
(599,536,o),
(592,532,cs),
(562,518,o),
(512,512,o),
(448,506,cs),
(438,505,o),
(431,502,o),
(430,498,cs),
(429,493,o),
(434,489,o),
(447,489,cs),
(486,486,ls),
(512,484,o),
(519,479,o),
(511,462,cs)
);
}
);
};
layerId = m002;
shapes = (
{
closed = 1;
nodes = (
(186,-7,o),
(262,27,o),
(346,118,cs),
(352,123,o),
(362,122,o),
(360,116,cs),
(345,82,ls),
(321,27,o),
(354,-7,o),
(423,-7,cs),
(503,-7,o),
(562,30,o),
(597,120,cs),
(599,128,o),
(597,134,o),
(584,134,cs),
(575,134,o),
(570,132,o),
(567,127,cs),
(535,64,o),
(504,35,o),
(462,35,cs),
(430,35,o),
(423,51,o),
(436,82,cs),
(624,526,ls),
(627,533,o),
(621,537,o),
(612,537,cs),
(605,537,o),
(599,536,o),
(592,532,cs),
(562,518,o),
(512,512,o),
(448,506,cs),
(438,505,o),
(431,502,o),
(430,498,cs),
(429,493,o),
(434,489,o),
(447,489,cs),
(486,486,ls),
(512,484,o),
(519,479,o),
(511,462,cs),
(468,367,ls),
(466,360,o),
(458,359,o),
(446,363,cs),
(429,369,o),
(408,373,o),
(384,373,cs),
(212,373,o),
(17,219,o),
(17,82,cs),
(17,24,o),
(54,-7,o),
(118,-7,cs)
);
},
{
closed = 1;
nodes = (
(125,31,o),
(107,40,o),
(107,74,cs),
(107,199,o),
(263,354,o),
(379,354,cs),
(415,354,o),
(436,339,o),
(436,311,cs),
(436,230,o),
(256,31,o),
(151,31,cs)
);
}
);
width = 627;
}
);
unicode = 100;
},
{
glyphname = eth;
kernLeft = o;
kernRight = o;
lastChange = "2022-08-23 19:55:36 +0000";
layers = (
{
background = {
shapes = (
{
closed = 1;
nodes = (
(314,-7,o),
(438,72,o),
(486,189,cs),
(554,347,o),
(439,497,o),
(224,527,cs),
(209,529,o),
(198,524,o),
(197,518,cs),
(194,513,o),
(198,510,o),
(208,508,cs),
(351,480,o),
(417,419,o),
(421,320,cs),
(422,312,o),
(413,310,o),
(404,314,cs),
(381,325,o),
(350,330,o),
(314,330,cs),
(189,330,o),
(68,260,o),
(28,166,cs),
(-9,98,o),
(55,-7,o),
(179,-7,cs)
);
},
{
closed = 1;
nodes = (
(100,13,o),
(78,60,o),
(122,162,cs),
(164,264,o),
(224,311,o),
(312,311,cs),
(405,311,o),
(430,258,o),
(386,157,cs),
(345,60,o),
(281,13,o),
(191,13,cs)
);
}
);
};
layerId = m002;
shapes = (
{
closed = 1;
nodes = (
(407,-7,o),
(504,155,o),
(504,259,cs),
(504,384,o),
(398,504,o),
(229,542,cs),
(212,546,o),
(201,541,o),
(201,533,cs),
(201,530,o),
(205,527,o),
(212,525,cs),
(353,485,o),
(421,411,o),
(421,307,cs),
(421,301,o),
(412,300,o),
(404,304,cs),
(376,320,o),
(342,328,o),
(297,328,cs),
(133,328,o),
(25,212,o),
(25,128,cs),
(25,52,o),
(98,-7,o),
(210,-7,cs)
);
},
{
closed = 1;
nodes = (
(140,12,o),
(107,48,o),
(107,102,cs),
(107,163,o),
(161,310,o),
(298,310,cs),
(373,310,o),
(407,269,o),
(407,220,cs),
(407,144,o),
(353,12,o),
(213,12,cs)
);
}
);
width = 537;
}
);
unicode = 240;
},
{
glyphname = dcroat;
kernLeft = o;
kernRight = d;
lastChange = "2022-08-23 19:55:32 +0000";
layers = (
{
layerId = m002;
shapes = (
{
ref = d;
},
{
closed = 1;
nodes = (
(653,417,ls),
(661,417,o),
(668,421,o),
(670,425,cs),
(673,431,ls),
(674,435,o),
(670,438,o),
(662,438,cs),
(299,438,ls),
(291,438,o),
(284,435,o),
(283,431,cs),
(281,425,ls),
(277,421,o),
(282,417,o),
(290,417,cs)
);
}
);
width = 627;
}
);
unicode = 273;
},
{
glyphname = e;
kernLeft = o;
kernRight = e;
lastChange = "2022-09-01 20:18:09 +0000";
layers = (
{
anchors = (
{
name = bottom;
pos = (115,0);
},
{
name = ogonek;
pos = (175,0);
},
{
name = top;
pos = (273,510);
}
);
background = {
shapes = (
{
closed = 1;
nodes = (
(266,-7,o),
(347,37,o),
(405,122,cs),
(408,128,o),
(406,134,o),
(396,134,cs),
(388,134,o),
(382,133,o),
(379,128,cs),
(337,65,o),
(270,31,o),
(204,31,cs),
(144,31,o),
(107,60,o),
(107,114,cs),
(107,226,o),
(248,354,o),
(346,354,cs),
(377,354,o),
(390,344,o),
(390,325,cs),
(390,260,o),
(289,183,o),
(99,167,c),
(99,149,l),
(321,168,o),
(473,243,o),
(473,313,cs),
(473,349,o),
(438,373,o),
(355,373,cs),
(202,373,o),
(16,236,o),
(16,109,cs),
(16,35,o),
(77,-7,o),
(170,-7,cs)
);
}
);
};
layerId = m002;
shapes = (
{
closed = 1;
nodes = (
(266,-7,o),
(347,37,o),
(405,122,cs),
(408,128,o),
(406,134,o),
(396,134,cs),
(388,134,o),
(382,133,o),
(379,128,cs),
(337,65,o),
(270,31,o),
(204,31,cs),
(144,31,o),
(107,60,o),
(107,114,cs),
(107,121,o),
(107,128,o),
(108,135,cs),
(109,145,o),
(121,151,o),
(139,153,cs),
(338,178,o),
(473,247,o),
(473,313,cs),
(473,349,o),
(438,373,o),
(355,373,cs),
(202,373,o),
(16,236,o),
(16,109,cs),
(16,35,o),
(77,-7,o),
(170,-7,cs)
);
},
{
closed = 1;
nodes = (
(161,272,o),
(268,354,o),
(346,354,cs),
(377,354,o),
(390,344,o),
(390,325,cs),
(390,265,o),
(304,195,o),
(140,171,cs),
(126,168,o),
(117,173,o),
(122,180,cs)
);
}
);
width = 460;
}
);
unicode = 101;
},
{
glyphname = f;
kernLeft = f;
lastChange = "2022-09-01 20:59:24 +0000";
layers = (
{
background = {
shapes = (
{
closed = 1;
nodes = (
(85,0,ls),
(103,0,o),
(115,5,o),
(118,15,cs),
(258,341,ls),
(261,346,o),
(266,348,o),
(275,348,cs),
(390,348,ls),
(402,348,o),
(412,352,o),
(414,359,cs),
(416,364,o),
(408,369,o),
(394,369,cs),
(289,369,ls),
(277,369,o),
(271,371,o),
(274,378,cs),
(300,440,ls),
(325,500,o),
(354,518,o),
(396,518,cs),
(460,518,o),
(407,460,o),
(482,460,cs),
(512,460,o),
(535,474,o),
(535,496,cs),
(535,524,o),
(493,541,o),
(431,541,cs),
(316,541,o),
(228,479,o),
(194,398,cs),
(185,374,o),
(160,369,o),
(106,369,cs),
(92,369,o),
(82,365,o),
(82,359,cs),
(82,353,o),
(89,348,o),
(103,348,cs),
(131,348,ls),
(160,348,o),
(170,340,o),
(162,321,cs),
(33,20,ls),
(28,8,o),
(38,0,o),
(61,0,cs)
);
}
);
};
guides = (
{
pos = (244,748);
}
);
layerId = m002;
shapes = (
{
closed = 1;
nodes = (
(98,0,ls),
(108,0,o),
(114,3,o),
(116,8,cs),
(258,341,ls),
(261,346,o),
(266,348,o),
(275,348,cs),
(390,348,ls),
(402,348,o),
(412,352,o),
(414,359,cs),
(416,364,o),
(408,369,o),
(394,369,cs),
(289,369,ls),
(277,369,o),
(271,371,o),
(274,378,cs),
(300,440,ls),
(325,500,o),
(354,518,o),
(396,518,cs),
(460,518,o),
(407,460,o),
(482,460,cs),
(512,460,o),
(535,474,o),
(535,496,cs),
(535,524,o),
(493,541,o),
(431,541,cs),
(316,541,o),
(228,479,o),
(194,398,cs),
(185,374,o),
(160,369,o),
(106,369,cs),
(92,369,o),
(82,365,o),
(82,359,cs),
(82,353,o),
(89,348,o),
(103,348,cs),
(131,348,ls),
(160,348,o),
(170,340,o),
(162,321,cs),
(29,9,ls),
(26,3,o),
(30,0,o),
(43,0,cs)
);
}
);
width = 361;
}
);
unicode = 102;
},
{
glyphname = g;
kernLeft = g;
kernRight = g;
lastChange = "2022-09-01 20:59:30 +0000";
layers = (
{
anchors = (
{
name = bottom;
pos = (95,-205);
},
{
name = top;
pos = (260,510);
}
);
background = {
shapes = (
{
closed = 1;
nodes = (
(285,-156,o),
(425,-113,o),
(425,-41,cs),
(425,-3,o),
(389,29,o),
(271,51,cs),
(170,70,o),
(160,75,o),
(160,85,cs),
(160,94,o),
(176,103,o),
(255,124,cs),
(331,144,ls),
(421,169,o),
(493,223,o),
(493,281,cs),
(493,307,o),
(480,329,o),
(457,344,c),
(457,348,l),
(568,348,ls),
(584,348,o),
(596,352,o),
(596,359,cs),
(596,365,o),
(589,369,o),
(573,369,cs),
(420,369,ls),
(386,369,o),
(370,373,o),
(338,373,cs),
(208,373,o),
(86,302,o),
(86,224,cs),
(86,176,o),
(136,141,o),
(213,134,c),
(213,132,l),
(160,116,ls),
(98,99,o),
(76,85,o),
(76,65,cs),
(76,53,o),
(83,43,o),
(118,32,c),
(118,29,l),
(77,19,ls),
(-29,-12,o),
(-68,-59,o),
(-68,-111,cs),
(-68,-172,o),
(-13,-216,o),
(123,-156,cs)
);
},
{
closed = 1;
nodes = (
(34,-138,o),
(-6,-151,o),
(-6,-98,cs),
(-6,-56,o),
(16,-8,o),
(164,21,c),
(229,8,ls),
(309,-8,o),
(336,-26,o),
(336,-55,cs),
(336,-110,o),
(239,-138,o),
(138,-138,cs)
);
},
{
closed = 1;
nodes = (
(200,149,o),
(175,170,o),
(175,212,cs),
(175,285,o),
(251,358,o),
(335,358,cs),
(379,358,o),
(404,336,o),
(404,295,cs),
(404,222,o),
(327,149,o),
(244,149,cs)
);
}
);
};
layerId = m002;
shapes = (
{
closed = 1;
nodes = (
(285,-156,o),
(425,-113,o),
(425,-43,cs),
(425,-6,o),
(393,22,o),
(294,41,cs),
(182,65,ls),
(124,76,o),
(114,90,o),
(140,99,cs),
(193,116,ls),
(231,129,o),
(253,133,o),
(284,138,cs),
(405,151,o),
(493,214,o),
(493,282,cs),
(493,306,o),
(482,329,o),
(459,344,cs),
(448,353,o),
(443,359,o),
(451,368,cs),
(462,380,o),
(478,386,o),
(497,386,cs),
(527,386,o),
(523,371,o),
(559,371,cs),
(589,371,o),
(611,383,o),
(611,402,cs),
(611,421,o),
(590,432,o),
(553,432,cs),
(501,432,o),
(451,410,o),
(422,374,cs),
(416,369,o),
(409,366,o),
(398,369,cs),
(384,371,o),
(365,373,o),
(346,373,cs),
(201,373,o),
(86,302,o),
(86,224,cs),
(86,190,o),
(109,161,o),
(158,145,cs),
(176,139,o),
(175,132,o),
(158,127,cs),
(56,94,ls),
(25,84,o),
(34,57,o),
(85,40,cs),
(103,33,o),
(99,26,o),
(80,20,cs),
(-38,-30,o),
(-68,-72,o),
(-68,-118,cs),
(-68,-172,o),
(-13,-216,o),
(123,-156,cs)
);
},
{
closed = 1;
nodes = (
(34,-138,o),
(-8,-151,o),
(-8,-101,cs),
(-8,-60,o),
(16,-20,o),
(112,8,cs),
(139,17,o),
(172,19,o),
(204,12,cs),
(229,7,ls),
(314,-10,o),
(336,-29,o),
(336,-60,cs),
(336,-109,o),
(239,-138,o),
(138,-138,cs)
);
},
{
closed = 1;
nodes = (
(175,285,o),
(251,358,o),
(335,358,cs),
(379,358,o),
(404,343,o),
(404,295,cs),
(404,222,o),
(327,149,o),
(244,149,cs),
(200,149,o),
(175,167,o),
(175,212,cs)
);
}
);
width = 530;
}
);
unicode = 103;
},
{
glyphname = h;
kernLeft = h;
kernRight = n;
lastChange = "2022-09-01 20:59:43 +0000";
layers = (
{
background = {
shapes = (
{
closed = 1;
nodes = (
(485,-7,o),
(549,21,o),
(599,120,cs),
(603,128,o),
(600,134,o),
(588,134,cs),
(578,134,o),
(573,132,o),
(570,127,cs),
(531,55,o),
(500,35,o),
(465,35,cs),
(436,35,o),
(423,48,o),
(436,75,cs),
(537,285,ls),
(566,344,o),
(530,373,o),
(466,373,cs),
(397,373,o),
(309,332,o),
(232,252,cs),
(185,201,l),
(178,201,l),
(316,526,ls),
(319,533,o),
(314,537,o),
(304,537,cs),
(297,537,o),
(291,536,o),
(284,532,cs),
(254,518,o),
(204,512,o),
(140,506,cs),
(130,505,o),
(123,502,o),
(122,498,cs),
(121,493,o),
(125,489,o),
(139,489,cs),
(178,486,ls),
(204,484,o),
(210,479,o),
(202,462,cs),
(14,20,ls),
(8,8,o),
(18,0,o),
(41,0,cs),
(66,0,ls),
(85,0,o),
(97,5,o),
(100,15,cs),
(162,160,o),
(331,342,o),
(430,342,cs),
(455,342,o),
(473,330,o),
(453,292,cs),
(352,82,ls),
(323,22,o),
(362,-7,o),
(425,-7,cs)
);
}
);
};
guides = (
{
angle = 76.9884;
pos = (153,627);
}
);
layerId = m002;
shapes = (
{
closed = 1;
nodes = (
(485,-7,o),
(549,21,o),
(599,120,cs),
(603,128,o),
(600,134,o),
(588,134,cs),
(578,134,o),
(573,132,o),
(570,127,cs),
(531,55,o),
(500,35,o),
(465,35,cs),
(436,35,o),
(423,48,o),
(436,75,cs),
(537,285,ls),
(566,344,o),
(530,373,o),
(466,373,cs),
(397,373,o),
(306,335,o),
(200,217,cs),
(194,211,o),
(184,212,o),
(186,219,cs),
(316,526,ls),
(319,533,o),
(314,537,o),
(304,537,cs),
(297,537,o),
(291,536,o),
(284,532,cs),
(254,518,o),
(204,512,o),
(140,506,cs),
(130,505,o),
(123,502,o),
(122,498,cs),
(121,493,o),
(125,489,o),
(139,489,cs),
(178,486,ls),
(204,484,o),
(210,479,o),
(202,462,cs),
(9,9,ls),
(7,3,o),
(12,0,o),
(24,0,cs),
(79,0,ls),
(90,0,o),
(95,3,o),
(98,8,cs),
(160,158,o),
(332,342,o),
(430,342,cs),
(455,342,o),
(473,330,o),
(453,292,cs),
(352,82,ls),
(323,22,o),
(362,-7,o),
(425,-7,cs)
);
}
);
width = 629;
}
);
unicode = 104;
},
{
glyphname = hbar;
kernLeft = h;
kernRight = n;
lastChange = "2022-08-23 19:55:55 +0000";
layers = (
{
layerId = m002;
shapes = (
{
ref = h;
},
{
closed = 1;
nodes = (
(473,417,ls),
(480,417,o),
(486,421,o),
(489,425,cs),
(492,431,ls),
(493,435,o),
(489,438,o),
(482,438,cs),
(117,438,ls),
(109,438,o),
(103,435,o),
(102,431,cs),
(99,425,ls),
(97,421,o),
(100,417,o),
(108,417,cs)
);
}
);
width = 629;
}
);
unicode = 295;
},
{
glyphname = i;
kernLeft = i;
kernRight = i;
lastChange = "2022-09-01 20:59:49 +0000";
layers = (
{
anchors = (
{
name = bottom;
pos = (85,0);
}
);
background = {
shapes = (
{
closed = 1;
nodes = (
(221,-7,o),
(297,26,o),
(354,133,c),
(323,133,l),
(273,55,o),
(237,34,o),
(204,34,cs),
(177,34,o),
(174,47,o),
(183,68,cs),
(279,297,ls),
(301,351,o),
(274,373,o),
(215,373,cs),
(156,373,o),
(80,340,o),
(23,232,c),
(54,232,l),
(105,310,o),
(140,332,o),
(174,332,cs),
(200,332,o),
(205,319,o),
(195,298,c),
(98,69,ls),
(76,14,o),
(103,-7,o),
(161,-7,cs)
);
},
{
closed = 1;
nodes = (
(309,437,o),
(345,454,o),
(345,480,cs),
(345,500,o),
(319,513,o),
(283,513,cs),
(246,513,o),
(212,496,o),
(212,470,cs),
(212,451,o),
(237,437,o),
(270,437,cs)
);
}
);
};
guides = (
{
angle = 76.985;
pos = (132,206);
}
);
layerId = m002;
shapes = (
{
closed = 1;
nodes = (
(218,-7,o),
(294,23,o),
(352,122,cs),
(356,130,o),
(352,135,o),
(342,135,cs),
(334,135,o),
(327,133,o),
(323,126,cs),
(275,54,o),
(238,34,o),
(206,34,cs),
(179,34,o),
(175,47,o),
(184,68,cs),
(282,297,ls),
(304,351,o),
(276,373,o),
(215,373,cs),
(159,373,o),
(85,343,o),
(28,243,cs),
(23,235,o),
(28,230,o),
(38,230,cs),
(46,230,o),
(53,234,o),
(56,240,cs),
(105,311,o),
(141,332,o),
(174,332,cs),
(200,332,o),
(205,319,o),
(195,298,cs),
(98,69,ls),
(76,14,o),
(103,-7,o),
(161,-7,cs)
);
},
{
closed = 1;
nodes = (
(309,437,o),
(345,454,o),
(345,480,cs),
(345,500,o),
(319,513,o),
(283,513,cs),
(246,513,o),
(212,496,o),
(212,470,cs),
(212,451,o),
(237,437,o),
(270,437,cs)
);
}
);
width = 381;
}
);
unicode = 105;
},
{
glyphname = idotless;
kernLeft = i;
kernRight = i;
lastChange = "2022-08-23 19:56:03 +0000";
layers = (
{
anchors = (
{
name = bottom;
pos = (85,0);
},
{
name = ogonek;
pos = (159,0);
},
{
name = top;
pos = (203,510);
}
);
layerId = m002;
shapes = (
{
closed = 1;
nodes = (
(218,-7,o),
(294,23,o),
(352,122,cs),
(356,130,o),
(352,135,o),
(342,135,cs),
(334,135,o),
(327,133,o),
(323,126,cs),
(275,54,o),
(238,34,o),
(206,34,cs),
(179,34,o),
(175,47,o),
(184,68,cs),
(282,297,ls),
(304,351,o),
(276,373,o),
(215,373,cs),
(159,373,o),
(85,343,o),
(28,243,cs),
(23,235,o),
(28,230,o),
(38,230,cs),
(46,230,o),
(53,234,o),
(56,240,cs),
(105,311,o),
(141,332,o),
(174,332,cs),
(200,332,o),
(205,319,o),
(195,298,cs),
(98,69,ls),
(76,14,o),
(103,-7,o),
(161,-7,cs)
);
}
);
width = 381;
}
);
unicode = 305;
},
{
glyphname = j;
kernLeft = j;
kernRight = j;
lastChange = "2022-09-01 20:59:53 +0000";
layers = (
{
background = {
shapes = (
{
closed = 1;
nodes = (
(273,318,ls),
(271,335,o),
(258,343,o),
(232,343,cs),
(187,343,o),
(132,313,o),
(94,282,cs),
(64,260,o),
(45,238,o),
(46,229,cs),
(46,226,o),
(54,224,o),
(60,224,cs),
(70,224,o),
(77,243,o),
(117,272,cs),
(145,292,o),
(164,300,o),
(178,300,cs),
(187,300,o),
(191,297,o),
(192,292,cs),
(192,288,o),
(187,282,o),
(169,241,cs),
(150,200,o),
(115,119,o),
(54,-36,cs),
(43,-69,o),
(33,-92,o),
(21,-108,cs),
(6,-133,o),
(-6,-191,o),
(-18,-191,cs),
(-36,-191,o),
(-42,-170,o),
(-44,-146,cs),
(-45,-122,o),
(-52,-109,o),
(-73,-109,cs),
(-101,-109,o),
(-109,-132,o),
(-107,-151,cs),
(-105,-190,o),
(-77,-215,o),
(-42,-215,cs),
(6,-156,o),
(51,-135,o),
(85,-104,cs),
(115,-76,o),
(138,-39,o),
(152,-2,cs),
(189,89,o),
(235,187,o),
(258,253,cs),
(268,283,o),
(274,306,o),
(273,317,cs)
);
}
);
};
guides = (
{
angle = 76.8603;
pos = (74,95);
}
);
layerId = m002;
shapes = (
{
closed = 1;
nodes = (
(39,-156,o),
(112,-107,o),
(145,-26,cs),
(283,297,ls),
(306,351,o),
(277,373,o),
(215,373,cs),
(159,373,o),
(85,343,o),
(28,243,cs),
(23,235,o),
(28,230,o),
(38,230,cs),
(46,230,o),
(53,234,o),
(56,240,cs),
(105,311,o),
(141,332,o),
(174,332,cs),
(200,332,o),
(205,319,o),
(195,298,cs),
(33,-82,ls),
(14,-128,o),
(-2,-188,o),
(-16,-188,cs),
(-54,-188,o),
(-21,-106,o),
(-72,-106,cs),
(-90,-106,o),
(-107,-120,o),
(-107,-148,cs),
(-107,-186,o),
(-82,-215,o),
(-35,-215,cs)
);
},
{
closed = 1;
nodes = (
(309,437,o),
(345,454,o),
(345,480,cs),
(345,500,o),
(319,513,o),
(283,513,cs),
(246,513,o),
(212,496,o),
(212,470,cs),
(212,451,o),
(237,437,o),
(270,437,cs)
);
}
);
width = 352;
}
);
unicode = 106;
},
{
glyphname = jdotless;
kernLeft = j;
kernRight = j;
lastChange = "2022-08-23 19:56:16 +0000";
layers = (
{
layerId = m002;
shapes = (
{
closed = 1;
nodes = (
(39,-156,o),
(112,-107,o),
(145,-26,cs),
(283,297,ls),
(306,351,o),
(277,373,o),
(215,373,cs),
(159,373,o),
(85,343,o),
(28,243,cs),
(23,235,o),
(28,230,o),
(38,230,cs),
(46,230,o),
(53,234,o),
(56,240,cs),
(105,311,o),
(141,332,o),
(174,332,cs),
(200,332,o),
(205,319,o),
(195,298,cs),
(33,-82,ls),
(14,-128,o),
(-2,-188,o),
(-16,-188,cs),
(-54,-188,o),
(-21,-106,o),
(-72,-106,cs),
(-90,-106,o),
(-107,-120,o),
(-107,-148,cs),
(-107,-186,o),
(-82,-215,o),
(-35,-215,cs)
);
}
);
width = 352;
}
);
unicode = 567;
},
{
glyphname = k;
kernLeft = h;
kernRight = k;
lastChange = "2022-09-01 20:19:58 +0000";
layers = (
{
anchors = (
{
name = bottom;
pos = (165,0);
},
{
name = top;
pos = (336,740);
}
);
background = {
shapes = (
{
closed = 1;
nodes = (
(66,0,ls),
(82,0,o),
(92,6,o),
(97,15,cs),
(114,55,ls),
(132,99,o),
(153,137,o),
(170,157,cs),
(182,171,o),
(191,176,o),
(205,176,cs),
(220,176,o),
(229,171,o),
(238,158,cs),
(310,54,ls),
(340,12,o),
(374,-7,o),
(421,-7,cs),
(497,-7,o),
(546,39,o),
(555,120,cs),
(557,130,o),
(553,134,o),
(542,134,cs),
(532,134,o),
(528,131,o),
(527,125,cs),
(511,56,o),
(492,32,o),
(452,32,cs),
(425,32,o),
(409,41,o),
(393,65,cs),
(304,190,l),
(455,218,o),
(562,274,o),
(562,325,cs),
(562,354,o),
(523,373,o),
(465,373,cs),
(385,373,o),
(312,341,o),
(250,280,cs),
(200,231,l),
(189,231,l),
(316,526,ls),
(319,533,o),
(315,537,o),
(302,537,cs),
(297,537,o),
(291,536,o),
(284,532,cs),
(259,521,o),
(215,513,o),
(140,506,cs),
(130,505,o),
(123,502,o),
(122,498,cs),
(121,493,o),
(126,489,o),
(139,489,cs),
(178,486,ls),
(204,484,o),
(210,479,o),
(202,462,cs),
(14,20,ls),
(8,8,o),
(18,0,o),
(41,0,cs)
);
},
{
closed = 1;
nodes = (
(285,291,o),
(376,350,o),
(440,350,cs),
(467,350,o),
(478,342,o),
(478,323,cs),
(478,264,o),
(367,210,o),
(205,193,c)
);
}
);
};
guides = (
{
pos = (230,271);
},
{
angle = 76.9307;
pos = (80,49);
},
{
angle = 256.8689;
pos = (82,334);
}
);
layerId = m002;
shapes = (
{
closed = 1;
nodes = (
(497,-7,o),
(546,39,o),
(555,120,cs),
(557,130,o),
(553,134,o),
(542,134,cs),
(532,134,o),
(528,131,o),
(527,125,cs),
(511,56,o),
(492,32,o),
(452,32,cs),
(425,32,o),
(409,41,o),
(393,65,cs),
(316,173,ls),
(308,183,o),
(315,191,o),
(335,196,cs),
(469,225,o),
(562,277,o),
(562,325,cs),
(562,354,o),
(523,373,o),
(465,373,cs),
(385,373,o),
(312,341,o),
(250,280,cs),
(206,238,ls),
(201,232,o),
(191,234,o),
(193,240,cs),
(316,526,ls),
(319,533,o),
(315,537,o),
(302,537,cs),
(297,537,o),
(291,536,o),
(284,532,cs),
(259,521,o),
(215,513,o),
(140,506,cs),
(130,505,o),
(123,502,o),
(122,498,cs),
(121,493,o),
(126,489,o),
(139,489,cs),
(178,486,ls),
(204,484,o),
(209,479,o),
(202,462,cs),
(9,9,ls),
(7,3,o),
(12,0,o),
(24,0,cs),
(76,0,ls),
(86,0,o),
(91,3,o),
(94,8,cs),
(114,55,ls),
(131,99,o),
(153,137,o),
(170,157,cs),
(182,171,o),
(191,176,o),
(205,176,cs),
(220,176,o),
(229,171,o),
(238,158,cs),
(310,54,ls),
(340,12,o),
(374,-7,o),
(421,-7,cs)
);
},
{
closed = 1;
nodes = (
(294,296,o),
(379,350,o),
(440,350,cs),
(467,350,o),
(478,342,o),
(478,323,cs),
(478,267,o),
(379,217,o),
(235,196,cs),
(218,195,o),
(210,200,o),
(218,208,cs)
);
}
);
width = 591;
}
);
unicode = 107;
},
{
glyphname = l;
kernLeft = h;
kernRight = l;
lastChange = "2022-09-01 20:39:59 +0000";
layers = (
{
anchors = (
{
name = bottom;
pos = (61,0);
},
{
name = center;
pos = (147,370);
},
{
name = top;
pos = (169,710);
},
{
name = topright;
pos = (267,740);
}
);
guides = (
{
angle = 256.8603;
pos = (63,254);
}
);
layerId = m002;
shapes = (
{
closed = 1;
nodes = (
(155,-7,o),
(231,23,o),
(289,122,cs),
(293,130,o),
(289,135,o),
(277,135,cs),
(270,135,o),
(263,133,o),
(259,126,cs),
(212,54,o),
(175,34,o),
(143,34,cs),
(116,34,o),
(112,47,o),
(121,68,cs),
(316,526,ls),
(319,533,o),
(314,537,o),
(304,537,cs),
(297,537,o),
(291,536,o),
(284,532,cs),
(254,518,o),
(204,512,o),
(140,506,cs),
(130,505,o),
(123,502,o),
(122,498,cs),
(121,493,o),
(125,489,o),
(139,489,cs),
(178,486,ls),
(204,484,o),
(210,479,o),
(202,462,cs),
(34,69,ls),
(10,14,o),
(39,-7,o),
(98,-7,cs)
);
}
);
width = 317;
}
);
unicode = 108;
},
{
glyphname = lslash;
kernLeft = h;
kernRight = l;
lastChange = "2022-08-23 20:01:07 +0000";
layers = (
{
layerId = m002;
shapes = (
{
pos = (31,0);
ref = l;
},
{
closed = 1;
nodes = (
(214,277,l),
(36,222,ls),
(28,219,o),
(24,215,o),
(28,212,cs),
(33,207,ls),
(37,203,o),
(43,202,o),
(51,205,cs),
(206,253,l)
);
},
{
closed = 1;
nodes = (
(208,249,l),
(394,306,ls),
(402,309,o),
(405,313,o),
(402,316,cs),
(397,321,ls),
(394,325,o),
(388,326,o),
(379,324,cs),
(215,273,l)
);
}
);
width = 359;
}
);
unicode = 322;
},
{
glyphname = m;
kernLeft = n;
kernRight = n;
lastChange = "2022-09-01 19:49:06 +0000";
layers = (
{
background = {
shapes = (
{
closed = 1;
nodes = (
(467,17,cs),
(526,153,o),
(698,342,o),
(785,342,cs),
(811,342,o),
(828,330,o),
(810,292,cs),
(707,82,ls),
(678,22,o),
(718,-7,o),
(782,-7,cs),
(841,-7,o),
(905,21,o),
(954,120,cs),
(959,128,o),
(956,134,o),
(943,134,cs),
(934,134,o),
(928,132,o),
(926,127,cs),
(889,55,o),
(856,35,o),
(820,35,cs),
(792,35,o),
(779,48,o),
(792,75,cs),
(892,285,ls),
(922,344,o),
(885,373,o),
(821,373,cs),
(752,373,o),
(674,333,o),
(600,252,cs),
(554,201,l),
(547,201,l),
(583,285,ls),
(608,344,o),
(576,373,o),
(512,373,cs),
(443,373,o),
(365,333,o),
(291,252,cs),
(245,201,l),
(238,201,l),
(279,297,ls),
(301,351,o),
(274,373,o),
(215,373,cs),
(159,373,o),
(85,343,o),
(28,243,cs),
(23,235,o),
(28,230,o),
(38,230,cs),
(46,230,o),
(53,234,o),
(56,240,cs),
(105,311,o),
(141,332,o),
(174,332,cs),
(200,332,o),
(205,319,o),
(195,298,cs),
(77,20,ls),
(71,8,o),
(82,0,o),
(105,0,cs),
(125,0,ls),
(144,0,o),
(156,5,o),
(160,15,cs),
(222,160,o),
(390,342,o),
(476,342,cs),
(501,342,o),
(515,330,o),
(500,292,cs),
(384,20,ls),
(378,8,o),
(389,0,o),
(412,0,cs),
(432,0,ls),
(451,0,o),
(461,5,o)
);
}
);
};
layerId = m002;
shapes = (
{
closed = 1;
nodes = (
(841,-7,o),
(905,21,o),
(954,120,cs),
(959,128,o),
(956,134,o),
(943,134,cs),
(934,134,o),
(928,132,o),
(926,127,cs),
(889,55,o),
(856,35,o),
(820,35,cs),
(792,35,o),
(779,48,o),
(792,75,cs),
(892,285,ls),
(922,344,o),
(885,373,o),
(821,373,cs),
(752,373,o),
(668,334,o),
(568,217,cs),
(564,211,o),
(553,212,o),
(555,219,cs),
(583,285,ls),
(608,344,o),
(576,373,o),
(512,373,cs),
(443,373,o),
(361,332,o),
(259,217,cs),
(254,211,o),
(244,212,o),
(246,219,cs),
(279,297,ls),
(301,351,o),
(274,373,o),
(215,373,cs),
(159,373,o),
(85,343,o),
(28,243,cs),
(23,235,o),
(28,230,o),
(38,230,cs),
(46,230,o),
(53,234,o),
(56,240,cs),
(105,311,o),
(141,332,o),
(174,332,cs),
(200,332,o),
(205,319,o),
(195,298,cs),
(70,9,ls),
(68,3,o),
(72,0,o),
(85,0,cs),
(139,0,ls),
(150,0,o),
(155,3,o),
(158,8,cs),
(221,159,o),
(390,342,o),
(476,342,cs),
(501,342,o),
(515,330,o),
(500,292,cs),
(378,9,ls),
(376,3,o),
(381,0,o),
(393,0,cs),
(444,0,ls),
(455,0,o),
(460,3,o),
(462,8,cs),
(528,160,o),
(698,342,o),
(785,342,cs),
(811,342,o),
(828,330,o),
(810,292,cs),
(707,82,ls),
(678,22,o),
(718,-7,o),
(782,-7,cs)
);
}
);
width = 986;
}
);
metricRight = n;
unicode = 109;
},
{
glyphname = n;
kernLeft = n;
kernRight = n;
lastChange = "2022-08-31 18:09:38 +0000";
layers = (
{
anchors = (
{
name = bottom;
pos = (202,0);
},
{
name = top;
pos = (320,510);
}
);
background = {
shapes = (
{
closed = 1;
nodes = (
(550,-7,o),
(620,26,o),
(665,134,c),
(634,134,l),
(597,56,o),
(561,35,o),
(523,35,cs),
(496,35,o),
(483,48,o),
(496,75,cs),
(597,285,ls),
(626,344,o),
(590,373,o),
(526,373,cs),
(457,373,o),
(369,332,o),
(292,252,cs),
(245,201,l),
(220,201,l),
(153,0,l),
(222,162,o),
(388,342,o),
(489,342,cs),
(514,342,o),
(531,330,o),
(513,292,cs),
(412,82,ls),
(382,22,o),
(422,-7,o),
(485,-7,cs)
);
},
{
closed = 1;
nodes = (
(153,0,l),
(279,297,ls),
(301,351,o),
(274,373,o),
(215,373,cs),
(156,373,o),
(80,340,o),
(23,232,c),
(54,232,l),
(105,310,o),
(140,332,o),
(174,332,cs),
(200,332,o),
(205,319,o),
(195,298,c),
(69,0,l)
);
}
);
};
guides = (
{
pos = (500,186);
}
);
layerId = m002;
shapes = (
{
closed = 1;
nodes = (
(68,3,o),
(72,0,o),
(85,0,cs),
(139,0,ls),
(150,0,o),
(155,3,o),
(158,8,cs),
(220,157,o),
(390,342,o),
(489,342,cs),
(514,342,o),
(531,330,o),
(513,292,cs),
(412,82,ls),
(382,22,o),
(422,-7,o),
(485,-7,cs),
(545,-7,o),
(608,21,o),
(659,120,cs),
(662,128,o),
(660,134,o),
(646,134,cs),
(637,134,o),
(632,132,o),
(629,127,cs),
(592,55,o),
(559,35,o),
(523,35,cs),
(496,35,o),
(483,48,o),
(496,75,cs),
(597,285,ls),
(626,344,o),
(590,373,o),
(526,373,cs),
(457,373,o),
(362,334,o),
(259,217,cs),
(254,211,o),
(244,212,o),
(246,219,cs),
(279,297,ls),
(301,351,o),
(274,373,o),
(215,373,cs),
(159,373,o),
(85,343,o),
(28,243,cs),
(23,235,o),
(28,230,o),
(38,230,cs),
(46,230,o),
(53,234,o),
(56,240,cs),
(105,311,o),
(141,332,o),
(174,332,cs),
(200,332,o),
(205,319,o),
(195,298,cs),
(70,9,ls)
);
}
);
width = 689;
}
);
unicode = 110;
},
{
glyphname = eng;
kernLeft = n;
kernRight = j;
lastChange = "2022-08-23 20:01:41 +0000";
layers = (
{
background = {
shapes = (
{
closed = 1;
nodes = (
(68,3,o),
(72,0,o),
(85,0,cs),
(139,0,ls),
(150,0,o),
(155,3,o),
(158,8,cs),
(220,157,o),
(390,342,o),
(489,342,cs),
(514,342,o),
(531,330,o),
(513,292,cs),
(412,82,ls),
(382,22,o),
(422,-7,o),
(485,-7,cs),
(545,-7,o),
(608,21,o),
(659,120,cs),
(662,128,o),
(660,134,o),
(646,134,cs),
(637,134,o),
(632,132,o),
(629,127,cs),
(592,55,o),
(559,35,o),
(523,35,cs),
(496,35,o),
(483,48,o),
(496,75,cs),
(597,285,ls),
(626,344,o),
(590,373,o),
(526,373,cs),
(457,373,o),
(362,334,o),
(259,217,cs),
(254,211,o),
(244,212,o),
(246,219,cs),
(279,297,ls),
(301,351,o),
(274,373,o),
(215,373,cs),
(159,373,o),
(85,343,o),
(28,243,cs),
(23,235,o),
(28,230,o),
(38,230,cs),
(46,230,o),
(53,234,o),
(56,240,cs),
(105,311,o),
(141,332,o),
(174,332,cs),
(200,332,o),
(205,319,o),
(195,298,cs),
(70,9,ls)
);
}
);
};
layerId = m002;
shapes = (
{
closed = 1;
nodes = (
(342,-156,o),
(408,-106,o),
(447,-26,cs),
(597,285,ls),
(624,344,o),
(590,373,o),
(526,373,cs),
(457,373,o),
(362,334,o),
(259,217,cs),
(254,211,o),
(244,212,o),
(246,219,cs),
(279,297,ls),
(301,351,o),
(274,373,o),
(215,373,cs),
(159,373,o),
(85,343,o),
(28,243,cs),
(23,235,o),
(28,230,o),
(38,230,cs),
(46,230,o),
(53,234,o),
(56,240,cs),
(105,311,o),
(141,332,o),
(174,332,cs),
(200,332,o),
(205,319,o),
(195,298,cs),
(70,9,ls),
(68,3,o),
(72,0,o),
(85,0,cs),
(139,0,ls),
(150,0,o),
(155,3,o),
(158,8,cs),
(220,157,o),
(390,342,o),
(489,342,cs),
(514,342,o),
(530,330,o),
(513,292,cs),
(336,-82,ls),
(314,-128,o),
(299,-136,o),
(281,-136,cs),
(230,-136,o),
(274,-76,o),
(206,-76,cs),
(183,-76,o),
(160,-87,o),
(160,-107,cs),
(160,-134,o),
(193,-156,o),
(255,-156,cs)
);
}
);
width = 658;
}
);
unicode = 331;
},
{
glyphname = o;
kernLeft = o;
kernRight = o;
lastChange = "2022-08-31 20:21:46 +0000";
layers = (
{
anchors = (
{
name = bottom;
pos = (148,0);
},
{
name = center;
pos = (207,255);
},
{
name = ogonek;
pos = (316,10);
},
{
name = top;
pos = (266,510);
},
{
name = topright;
pos = (456,450);
}
);
background = {
shapes = (
{
closed = 1;
nodes = (
(393,-7,o),
(546,105,o),
(546,228,cs),
(546,315,o),
(468,373,o),
(350,373,cs),
(182,373,o),
(28,261,o),
(28,138,cs),
(28,51,o),
(106,-7,o),
(224,-7,cs)
);
},
{
closed = 1;
nodes = (
(152,12,o),
(117,47,o),
(117,112,cs),
(117,234,o),
(237,354,o),
(356,354,cs),
(422,354,o),
(457,320,o),
(457,254,cs),
(457,133,o),
(337,12,o),
(217,12,cs)
);
}
);
};
layerId = m002;
shapes = (
{
closed = 1;
nodes = (
(355,-7,o),
(520,109,o),
(520,235,cs),
(520,320,o),
(452,373,o),
(343,373,cs),
(191,373,o),
(26,258,o),
(26,132,cs),
(26,46,o),
(94,-7,o),
(204,-7,cs)
);
},
{
closed = 1;
nodes = (
(144,11,o),
(116,42,o),
(116,102,cs),
(116,224,o),
(232,355,o),
(344,355,cs),
(402,355,o),
(430,325,o),
(430,265,cs),
(430,144,o),
(312,11,o),
(201,11,cs)
);
}
);
width = 547;
}
);
unicode = 111;
},
{
glyphname = oslash;
kernLeft = o;
kernRight = o;
lastChange = "2022-08-23 20:01:47 +0000";
layers = (
{
layerId = m002;
shapes = (
{
ref = o;
},
{
closed = 1;
nodes = (
(34,-36,ls),
(41,-36,o),
(46,-35,o),
(51,-31,cs),
(520,396,ls),
(526,401,o),
(521,405,o),
(512,405,cs),
(500,405,ls),
(493,405,o),
(488,403,o),
(484,399,cs),
(15,-27,ls),
(9,-32,o),
(14,-36,o),
(23,-36,cs)
);
}
);
width = 547;
}
);
unicode = 248;
},
{
glyphname = oe;
kernLeft = o;
kernRight = e;
lastChange = "2022-08-23 20:01:51 +0000";
layers = (
{
layerId = m002;
shapes = (
{
closed = 1;
nodes = (
(355,-7,o),
(506,109,o),
(506,235,cs),
(506,320,o),
(452,373,o),
(343,373,cs),
(191,373,o),
(26,258,o),
(26,132,cs),
(26,46,o),
(94,-7,o),
(204,-7,cs)
);
},
{
closed = 1;
nodes = (
(144,11,o),
(116,42,o),
(116,102,cs),
(116,224,o),
(232,355,o),
(344,355,cs),
(402,355,o),
(430,325,o),
(430,265,cs),
(430,144,o),
(312,11,o),
(201,11,cs)
);
},
{
closed = 1;
nodes = (
(645,-7,o),
(727,37,o),
(784,122,cs),
(788,128,o),
(785,134,o),
(775,134,cs),
(767,134,o),
(761,133,o),
(759,128,cs),
(716,65,o),
(650,31,o),
(583,31,cs),
(523,31,o),
(486,60,o),
(486,114,cs),
(486,121,o),
(486,128,o),
(488,135,cs),
(489,145,o),
(500,151,o),
(519,153,cs),
(718,178,o),
(852,247,o),
(852,313,cs),
(852,349,o),
(818,373,o),
(735,373,cs),
(582,373,o),
(396,236,o),
(396,109,cs),
(396,35,o),
(457,-7,o),
(550,-7,cs)
);
},
{
closed = 1;
nodes = (
(540,272,o),
(649,354,o),
(726,354,cs),
(757,354,o),
(769,344,o),
(769,325,cs),
(769,265,o),
(684,195,o),
(520,171,cs),
(506,168,o),
(497,173,o),
(501,180,cs)
);
}
);
width = 839;
}
);
metricRight = e;
unicode = 339;
},
{
glyphname = p;
kernLeft = n;
kernRight = o;
lastChange = "2022-08-31 17:39:19 +0000";
layers = (
{
background = {
shapes = (
{
closed = 1;
nodes = (
(138,-148,ls),
(152,-148,o),
(160,-145,o),
(160,-139,cs),
(160,-135,o),
(155,-133,o),
(136,-131,cs),
(102,-128,ls),
(69,-125,o),
(60,-122,o),
(69,-99,cs),
(281,402,ls),
(285,414,o),
(274,422,o),
(253,422,cs),
(229,422,ls),
(209,422,o),
(198,416,o),
(194,406,cs),
(-15,-138,ls),
(-22,-168,o),
(-32,-176,o),
(-59,-180,cs),
(-73,-182,ls),
(-82,-183,o),
(-89,-187,o),
(-89,-194,cs),
(-89,-200,o),
(-86,-205,o),
(-76,-205,cs)
);
},
{
closed = 1;
nodes = (
(371,-7,o),
(568,118,o),
(568,249,cs),
(568,333,o),
(476,373,o),
(346,373,cs),
(238,373,o),
(141,348,o),
(72,322,cs),
(63,319,o),
(60,315,o),
(60,312,cs),
(60,305,o),
(76,303,o),
(87,308,cs),
(167,336,o),
(247,354,o),
(325,354,cs),
(423,354,o),
(476,326,o),
(476,263,cs),
(476,138,o),
(324,12,o),
(202,12,cs),
(147,12,o),
(125,38,o),
(151,95,c),
(79,30,l),
(97,8,o),
(141,-7,o),
(200,-7,cs)
);
}
);
};
layerId = m002;
shapes = (
{
closed = 1;
nodes = (
(138,-148,ls),
(152,-148,o),
(160,-145,o),
(160,-139,cs),
(160,-135,o),
(155,-133,o),
(136,-131,cs),
(102,-128,ls),
(69,-125,o),
(60,-122,o),
(69,-99,cs),
(108,-4,ls),
(112,3,o),
(121,4,o),
(132,2,cs),
(152,-3,o),
(175,-7,o),
(200,-7,cs),
(371,-7,o),
(568,118,o),
(568,249,cs),
(568,333,o),
(476,373,o),
(346,373,cs),
(327,373,o),
(308,372,o),
(289,371,cs),
(275,369,o),
(268,373,o),
(271,381,cs),
(281,402,ls),
(285,414,o),
(274,422,o),
(253,422,cs),
(229,422,ls),
(209,422,o),
(198,416,o),
(194,406,cs),
(177,365,ls),
(174,355,o),
(166,350,o),
(150,346,cs),
(122,339,o),
(97,331,o),
(72,322,cs),
(63,319,o),
(60,315,o),
(60,312,cs),
(60,305,o),
(71,302,o),
(87,308,cs),
(103,314,o),
(117,319,o),
(136,324,cs),
(151,328,o),
(160,323,o),
(156,315,cs),
(-15,-138,ls),
(-22,-168,o),
(-32,-176,o),
(-59,-180,cs),
(-73,-182,ls),
(-82,-183,o),
(-89,-187,o),
(-89,-194,cs),
(-89,-200,o),
(-86,-205,o),
(-76,-205,cs)
);
},
{
closed = 1;
nodes = (
(250,329,ls),
(256,345,o),
(281,354,o),
(325,354,cs),
(423,354,o),
(476,326,o),
(476,263,cs),
(476,138,o),
(324,12,o),
(202,12,cs),
(151,12,o),
(130,35,o),
(145,83,c)
);
}
);
width = 596;
}
);
unicode = 112;
},
{
glyphname = thorn;
kernLeft = h;
kernRight = o;
lastChange = "2022-08-23 20:02:04 +0000";
layers = (
{
layerId = m002;
shapes = (
{
closed = 1;
nodes = (
(122,-148,ls),
(136,-148,o),
(144,-145,o),
(144,-139,cs),
(144,-135,o),
(139,-133,o),
(121,-131,cs),
(86,-128,ls),
(53,-125,o),
(44,-122,o),
(53,-99,cs),
(92,-4,ls),
(95,3,o),
(105,4,o),
(116,2,cs),
(136,-3,o),
(159,-7,o),
(184,-7,cs),
(355,-7,o),
(553,118,o),
(553,249,cs),
(553,333,o),
(460,373,o),
(331,373,cs),
(310,373,o),
(292,372,o),
(273,371,cs),
(259,369,o),
(253,373,o),
(255,381,cs),
(320,526,ls),
(323,533,o),
(317,537,o),
(308,537,cs),
(300,537,o),
(294,536,o),
(289,532,cs),
(258,518,o),
(204,512,o),
(140,506,cs),
(130,505,o),
(123,502,o),
(122,498,cs),
(121,493,o),
(125,489,o),
(139,489,cs),
(178,486,ls),
(204,484,o),
(210,479,o),
(202,462,cs),
(161,365,ls),
(158,355,o),
(150,350,o),
(133,346,cs),
(106,339,o),
(80,331,o),
(56,322,cs),
(47,319,o),
(44,315,o),
(44,312,cs),
(44,305,o),
(55,302,o),
(71,308,cs),
(87,314,o),
(102,319,o),
(121,324,cs),
(135,328,o),
(144,323,o),
(140,315,cs),
(-27,-138,ls),
(-34,-168,o),
(-44,-176,o),
(-71,-180,cs),
(-85,-182,ls),
(-94,-183,o),
(-101,-187,o),
(-101,-194,cs),
(-101,-200,o),
(-98,-205,o),
(-88,-205,cs)
);
},
{
closed = 1;
nodes = (
(135,12,o),
(114,35,o),
(130,83,c),
(235,329,ls),
(240,345,o),
(264,354,o),
(309,354,cs),
(407,354,o),
(460,326,o),
(460,263,cs),
(460,138,o),
(308,12,o),
(186,12,cs)
);
}
);
width = 580;
}
);
unicode = 254;
},
{
glyphname = q;
kernLeft = o;
lastChange = "2022-09-01 20:20:31 +0000";
layers = (
{
background = {
shapes = (
{
closed = 1;
nodes = (
(186,-7,o),
(256,26,o),
(327,98,cs),
(365,138,l),
(407,138,l),
(488,340,l),
(478,340,l),
(461,361,o),
(429,373,o),
(384,373,cs),
(212,373,o),
(17,219,o),
(17,82,cs),
(17,24,o),
(54,-7,o),
(118,-7,cs)
);
},
{
closed = 1;
nodes = (
(125,31,o),
(107,40,o),
(107,74,cs),
(107,199,o),
(263,354,o),
(379,354,cs),
(415,354,o),
(436,339,o),
(436,311,cs),
(436,230,o),
(256,31,o),
(151,31,cs)
);
},
{
closed = 1;
nodes = (
(415,-148,ls),
(430,-148,o),
(438,-145,o),
(438,-139,cs),
(438,-135,o),
(432,-133,o),
(414,-131,cs),
(391,-128,ls),
(360,-126,o),
(351,-122,o),
(360,-99,cs),
(554,359,ls),
(557,365,o),
(550,369,o),
(540,369,cs),
(530,369,o),
(522,366,o),
(512,359,cs),
(447,313,l),
(271,-99,ls),
(262,-122,o),
(250,-128,o),
(214,-130,cs),
(182,-132,ls),
(169,-133,o),
(160,-135,o),
(160,-140,cs),
(160,-144,o),
(164,-148,o),
(177,-148,cs)
);
}
);
};
guides = (
{
angle = 76.918;
pos = (375,305);
}
);
layerId = m002;
shapes = (
{
closed = 1;
nodes = (
(415,-148,ls),
(430,-148,o),
(438,-145,o),
(438,-139,cs),
(438,-135,o),
(432,-133,o),
(414,-131,cs),
(391,-128,ls),
(360,-126,o),
(351,-122,o),
(360,-99,cs),
(554,359,ls),
(557,365,o),
(550,369,o),
(540,369,cs),
(530,369,o),
(520,366,o),
(500,350,cs),
(494,346,o),
(491,344,o),
(484,344,cs),
(477,344,o),
(474,346,o),
(468,350,cs),
(448,366,o),
(416,373,o),
(384,373,cs),
(212,373,o),
(17,219,o),
(17,82,cs),
(17,24,o),
(54,-7,o),
(118,-7,cs),
(186,-7,o),
(261,24,o),
(352,123,cs),
(356,129,o),
(368,128,o),
(365,122,cs),
(271,-99,ls),
(262,-122,o),
(250,-128,o),
(214,-130,cs),
(182,-132,ls),
(169,-133,o),
(160,-135,o),
(160,-140,cs),
(160,-144,o),
(164,-148,o),
(177,-148,cs)
);
},
{
closed = 1;
nodes = (
(125,31,o),
(107,40,o),
(107,74,cs),
(107,199,o),
(263,354,o),
(379,354,cs),
(415,354,o),
(436,339,o),
(436,311,cs),
(436,230,o),
(256,31,o),
(151,31,cs)
);
}
);
width = 562;
}
);
unicode = 113;
},
{
glyphname = r;
kernLeft = n;
kernRight = r;
lastChange = "2022-09-01 19:37:15 +0000";
layers = (
{
anchors = (
{
name = bottom;
pos = (86,0);
},
{
name = top;
pos = (243,510);
}
);
background = {
shapes = (
{
closed = 1;
nodes = (
(279,297,ls),
(301,351,o),
(274,373,o),
(215,373,cs),
(159,373,o),
(85,343,o),
(28,243,cs),
(23,235,o),
(28,230,o),
(38,230,cs),
(46,230,o),
(53,234,o),
(56,240,cs),
(105,311,o),
(141,332,o),
(174,332,cs),
(200,332,o),
(205,319,o),
(195,298,cs),
(77,20,ls),
(71,8,o),
(82,0,o),
(105,0,cs),
(125,0,ls),
(144,0,o),
(156,5,o),
(160,15,cs)
);
},
{
closed = 1;
nodes = (
(224,169,o),
(352,332,o),
(406,332,cs),
(439,332,o),
(422,294,o),
(477,294,cs),
(511,294,o),
(535,310,o),
(535,334,cs),
(535,358,o),
(511,373,o),
(462,373,cs),
(393,373,o),
(345,344,o),
(293,280,cs),
(262,241,l),
(241,241,l),
(160,15,l)
);
}
);
};
layerId = m002;
shapes = (
{
closed = 1;
nodes = (
(139,0,ls),
(150,0,o),
(155,3,o),
(158,8,cs),
(223,169,o),
(352,332,o),
(406,332,cs),
(439,332,o),
(422,294,o),
(477,294,cs),
(511,294,o),
(535,310,o),
(535,334,cs),
(535,358,o),
(511,373,o),
(462,373,cs),
(393,373,o),
(344,344,o),
(277,261,cs),
(273,255,o),
(262,257,o),
(264,263,cs),
(279,297,ls),
(301,350,o),
(274,373,o),
(215,373,cs),
(159,373,o),
(85,343,o),
(28,243,cs),
(23,235,o),
(28,230,o),
(38,230,cs),
(46,230,o),
(53,234,o),
(56,240,cs),
(105,311,o),
(141,332,o),
(174,332,cs),
(200,332,o),
(205,319,o),
(195,298,cs),
(70,9,ls),
(68,3,o),
(72,0,o),
(85,0,cs)
);
}
);
width = 486;
}
);
unicode = 114;
},
{
glyphname = s;
kernLeft = s;
kernRight = s;
lastChange = "2022-09-01 21:00:18 +0000";
layers = (
{
anchors = (
{
name = bottom;
pos = (89,0);
},
{
name = top;
pos = (207,510);
}
);
background = {
shapes = (
{
closed = 1;
nodes = (
(334,105,ls),
(329,145,o),
(283,176,o),
(236,207,cs),
(194,235,o),
(153,263,o),
(151,294,cs),
(145,326,o),
(186,354,o),
(244,354,cs),
(304,354,o),
(324,327,o),
(335,303,cs),
(345,277,o),
(344,252,o),
(365,252,cs),
(379,252,o),
(381,257,o),
(396,292,cs),
(402,313,o),
(407,330,o),
(406,344,cs),
(406,354,o),
(335,372,o),
(262,372,cs),
(151,372,o),
(78,314,o),
(83,257,cs),
(89,219,o),
(126,191,o),
(170,165,cs),
(214,139,o),
(255,110,o),
(258,73,cs),
(261,42,o),
(218,10,o),
(161,10,cs),
(71,10,o),
(38,56,o),
(34,107,cs),
(32,131,o),
(30,136,o),
(17,136,cs),
(2,136,o),
(1,131,o),
(-5,145,cs),
(-14,96,o),
(-18,56,o),
(-17,38,cs),
(-17,32,o),
(-8,24,o),
(3,12,cs),
(34,2,o),
(83,-8,o),
(129,-8,cs),
(187,-8,o),
(244,4,o),
(282,26,cs),
(316,46,o),
(336,74,o),
(334,105,cs)
);
}
);
};
layerId = m002;
shapes = (
{
closed = 1;
nodes = (
(251,-7,o),
(334,37,o),
(334,99,cs),
(334,131,o),
(312,156,o),
(240,208,cs),
(185,248,o),
(152,270,o),
(152,302,cs),
(152,332,o),
(191,356,o),
(247,356,cs),
(310,356,o),
(324,333,o),
(331,275,cs),
(335,241,ls),
(336,234,o),
(340,230,o),
(350,230,cs),
(356,230,o),
(362,234,o),
(365,240,cs),
(402,337,ls),
(405,343,o),
(402,346,o),
(394,349,cs),
(363,365,o),
(316,373,o),
(268,373,cs),
(161,373,o),
(83,333,o),
(83,272,cs),
(83,240,o),
(113,212,o),
(172,171,cs),
(239,123,o),
(264,104,o),
(264,70,cs),
(264,31,o),
(217,12,o),
(161,12,cs),
(97,12,o),
(46,36,o),
(43,91,cs),
(39,126,ls),
(39,133,o),
(33,136,o),
(25,136,cs),
(17,136,o),
(10,133,o),
(9,127,cs),
(-15,44,ls),
(-16,36,o),
(-15,31,o),
(-9,26,cs),
(21,4,o),
(95,-7,o),
(153,-7,cs)
);
}
);
width = 399;
}
);
unicode = 115;
},
{
glyphname = germandbls;
kernLeft = f;
kernRight = s;
lastChange = "2022-08-23 20:02:28 +0000";
layers = (
{
background = {
shapes = (
{
closed = 1;
nodes = (
(526,-7,o),
(610,33,o),
(635,95,cs),
(654,142,o),
(626,182,o),
(558,212,cs),
(476,249,o),
(457,266,o),
(468,292,cs),
(492,349,o),
(705,378,o),
(739,461,cs),
(756,496,o),
(718,541,o),
(603,541,c),
(455,541,o),
(337,473,o),
(304,393,cs),
(297,377,o),
(271,366,o),
(229,364,cs),
(218,363,o),
(212,360,o),
(210,355,cs),
(208,351,o),
(213,348,o),
(222,348,cs),
(253,348,ls),
(273,348,o),
(282,342,o),
(277,331,cs),
(158,48,ls),
(150,28,o),
(138,20,o),
(100,18,cs),
(66,17,ls),
(54,16,o),
(47,12,o),
(46,8,cs),
(44,3,o),
(49,0,o),
(62,0,cs),
(201,0,ls),
(218,0,o),
(230,5,o),
(235,14,c),
(402,411,ls),
(432,485,o),
(511,518,o),
(588,518,cs),
(651,518,o),
(670,497,o),
(656,465,cs),
(616,370,o),
(435,354,o),
(400,274,cs),
(385,234,o),
(408,204,o),
(485,170,cs),
(549,142,o),
(573,112,o),
(557,74,cs),
(539,36,o),
(489,12,o),
(442,12,cs),
(384,12,o),
(365,32,o),
(365,101,cs),
(365,109,o),
(361,113,o),
(351,113,cs),
(340,113,o),
(331,108,o),
(328,100,cs),
(298,20,ls),
(294,14,o),
(297,10,o),
(304,7,cs),
(329,-1,o),
(365,-7,o),
(415,-7,cs)
);
}
);
};
layerId = m002;
shapes = (
{
closed = 1;
nodes = (
(460,-7,o),
(522,54,o),
(522,100,cs),
(522,138,o),
(494,167,o),
(435,200,cs),
(368,236,o),
(352,258,o),
(352,277,cs),
(352,357,o),
(624,380,o),
(624,464,cs),
(624,506,o),
(562,535,o),
(467,535,cs),
(324,535,o),
(236,477,o),
(201,405,cs),
(187,378,o),
(159,369,o),
(121,369,cs),
(106,369,o),
(97,366,o),
(97,360,cs),
(97,356,o),
(102,354,o),
(109,354,cs),
(138,351,ls),
(161,349,o),
(169,340,o),
(162,325,cs),
(45,48,ls),
(36,28,o),
(25,20,o),
(-9,25,cs),
(-35,23,ls),
(-44,22,o),
(-49,17,o),
(-50,11,cs),
(-52,4,o),
(-48,0,o),
(-38,0,cs),
(89,0,ls),
(106,0,o),
(117,5,o),
(122,14,cs),
(291,417,ls),
(319,484,o),
(384,513,o),
(460,513,cs),
(514,513,o),
(544,495,o),
(544,464,cs),
(544,366,o),
(284,354,o),
(284,253,cs),
(284,224,o),
(312,196,o),
(373,163,cs),
(422,137,o),
(447,118,o),
(447,82,cs),
(447,36,o),
(408,12,o),
(343,12,cs),
(273,12,o),
(255,39,o),
(254,109,cs),
(254,118,o),
(251,122,o),
(238,122,cs),
(229,122,o),
(221,118,o),
(218,111,cs),
(189,31,ls),
(186,25,o),
(187,21,o),
(195,17,cs),
(235,2,o),
(293,-7,o),
(335,-7,cs)
);
}
);
width = 564;
}
);
metricLeft = f;
unicode = 223;
},
{
glyphname = t;
kernLeft = t;
kernRight = t;
lastChange = "2022-09-01 20:40:20 +0000";
layers = (
{
anchors = (
{
name = bottom;
pos = (98,0);
},
{
name = center;
pos = (136,255);
},
{
name = top;
pos = (195,510);
},
{
name = topright;
pos = (298,760);
}
);
background = {
shapes = (
{
closed = 1;
nodes = (
(198,-7,o),
(270,20,o),
(319,134,c),
(290,134,l),
(253,56,o),
(214,35,o),
(174,35,cs),
(144,35,o),
(132,48,o),
(141,69,cs),
(310,469,l),
(227,469,l),
(60,76,ls),
(34,18,o),
(76,-7,o),
(135,-7,cs)
);
},
{
closed = 1;
nodes = (
(382,348,l),
(391,369,l),
(91,369,l),
(82,348,l)
);
}
);
};
guides = (
{
pos = (15,186);
}
);
layerId = m002;
shapes = (
{
closed = 1;
nodes = (
(193,-7,o),
(258,16,o),
(309,114,cs),
(317,129,o),
(314,134,o),
(301,134,cs),
(293,134,o),
(289,132,o),
(284,125,cs),
(245,54,o),
(213,35,o),
(174,35,cs),
(144,35,o),
(132,48,o),
(141,69,cs),
(253,333,ls),
(256,343,o),
(270,348,o),
(289,348,cs),
(360,348,ls),
(378,348,o),
(388,353,o),
(388,359,cs),
(388,365,o),
(382,369,o),
(365,369,cs),
(290,369,ls),
(277,369,o),
(271,373,o),
(274,379,cs),
(307,460,ls),
(309,466,o),
(304,469,o),
(292,469,cs),
(238,469,ls),
(228,469,o),
(222,467,o),
(220,461,cs),
(187,383,ls),
(184,373,o),
(170,369,o),
(152,369,cs),
(105,369,ls),
(92,369,o),
(82,364,o),
(82,358,cs),
(82,353,o),
(89,348,o),
(100,348,cs),
(151,348,ls),
(162,348,o),
(169,344,o),
(167,337,cs),
(56,76,ls),
(33,18,o),
(76,-7,o),
(135,-7,cs)
);
}
);
width = 360;
}
);
unicode = 116;
},
{
glyphname = u;
kernLeft = u;
kernRight = u;
lastChange = "2022-09-01 20:40:25 +0000";
layers = (
{
anchors = (
{
name = bottom;
pos = (195,0);
},
{
name = ogonek;
pos = (378,0);
},
{
name = top;
pos = (293,510);
},
{
name = topright;
pos = (554,450);
}
);
background = {
shapes = (
{
closed = 1;
nodes = (
(223,-7,o),
(304,37,o),
(378,115,cs),
(425,166,l),
(432,166,l),
(391,70,ls),
(370,19,o),
(391,-7,o),
(455,-7,cs),
(527,-7,o),
(596,41,o),
(643,122,cs),
(649,130,o),
(643,136,o),
(632,136,cs),
(624,136,o),
(618,133,o),
(614,127,cs),
(573,65,o),
(535,35,o),
(497,35,cs),
(473,35,o),
(465,46,o),
(475,69,cs),
(593,349,ls),
(599,360,o),
(589,369,o),
(566,369,cs),
(545,369,ls),
(527,369,o),
(514,364,o),
(511,354,cs),
(443,197,o),
(274,25,o),
(187,25,cs),
(160,25,o),
(153,41,o),
(170,75,cs),
(276,284,ls),
(304,339,o),
(282,373,o),
(218,373,cs),
(139,373,o),
(70,327,o),
(29,246,cs),
(25,238,o),
(29,232,o),
(41,232,cs),
(51,232,o),
(55,235,o),
(59,240,cs),
(89,299,o),
(132,335,o),
(174,335,cs),
(198,335,o),
(205,319,o),
(192,292,cs),
(87,82,ls),
(61,29,o),
(87,-7,o),
(152,-7,cs)
);
}
);
};
layerId = m002;
shapes = (
{
closed = 1;
nodes = (
(223,-7,o),
(310,36,o),
(413,151,cs),
(417,157,o),
(429,156,o),
(425,150,cs),
(391,70,ls),
(370,19,o),
(391,-7,o),
(455,-7,cs),
(527,-7,o),
(596,41,o),
(643,122,cs),
(649,130,o),
(643,136,o),
(632,136,cs),
(624,136,o),
(618,133,o),
(614,127,cs),
(573,65,o),
(535,35,o),
(497,35,cs),
(473,35,o),
(466,46,o),
(475,69,cs),
(599,359,ls),
(601,366,o),
(597,369,o),
(584,369,cs),
(531,369,ls),
(521,369,o),
(515,366,o),
(513,360,cs),
(448,205,o),
(274,25,o),
(187,25,cs),
(160,25,o),
(153,41,o),
(170,75,cs),
(276,284,ls),
(304,339,o),
(282,373,o),
(218,373,cs),
(139,373,o),
(70,327,o),
(29,246,cs),
(25,238,o),
(29,232,o),
(41,232,cs),
(51,232,o),
(55,235,o),
(59,240,cs),
(89,299,o),
(132,335,o),
(174,335,cs),
(198,335,o),
(205,319,o),
(192,292,cs),
(87,82,ls),
(61,29,o),
(87,-7,o),
(152,-7,cs)
);
}
);
width = 672;
}
);
unicode = 117;
},
{
glyphname = v;
lastChange = "2022-09-01 20:40:32 +0000";
layers = (
{
background = {
shapes = (
{
closed = 1;
nodes = (
(374,-7,o),
(553,150,o),
(553,296,cs),
(553,347,o),
(531,373,o),
(489,373,cs),
(461,373,o),
(444,362,o),
(444,344,cs),
(444,315,o),
(493,301,o),
(493,240,cs),
(493,139,o),
(346,19,o),
(224,19,cs),
(174,19,o),
(155,41,o),
(175,82,cs),
(279,297,ls),
(301,344,o),
(279,373,o),
(220,373,cs),
(141,373,o),
(72,324,o),
(23,232,c),
(54,232,l),
(99,302,o),
(135,332,o),
(174,332,cs),
(197,332,o),
(205,320,o),
(194,298,cs),
(92,89,ls),
(66,33,o),
(113,-7,o),
(206,-7,c)
);
}
);
};
layerId = m002;
shapes = (
{
closed = 1;
nodes = (
(354,-7,o),
(527,150,o),
(527,296,cs),
(527,347,o),
(505,373,o),
(462,373,cs),
(435,373,o),
(417,362,o),
(417,344,cs),
(417,315,o),
(467,301,o),
(467,240,cs),
(467,139,o),
(320,19,o),
(218,19,cs),
(174,19,o),
(155,41,o),
(175,82,cs),
(279,297,ls),
(301,344,o),
(279,373,o),
(220,373,cs),
(144,373,o),
(78,328,o),
(28,242,cs),
(24,235,o),
(30,230,o),
(39,230,cs),
(49,230,o),
(54,234,o),
(59,239,cs),
(100,304,o),
(135,332,o),
(172,332,cs),
(195,332,o),
(204,320,o),
(193,298,cs),
(91,89,ls),
(64,33,o),
(113,-7,o),
(200,-7,cs)
);
}
);
width = 545;
}
);
unicode = 118;
},
{
glyphname = w;
kernLeft = w;
kernRight = w;
lastChange = "2022-09-01 20:49:11 +0000";
layers = (
{
anchors = (
{
name = bottom;
pos = (246,0);
},
{
name = top;
pos = (396,510);
}
);
background = {
shapes = (
{
closed = 1;
nodes = (
(259,-7,o),
(329,32,o),
(385,99,c),
(398,99,l),
(501,353,l),
(482,354,l),
(399,125,o),
(285,19,o),
(198,19,cs),
(169,19,o),
(152,33,o),
(168,66,cs),
(279,297,ls),
(301,344,o),
(279,373,o),
(220,373,cs),
(144,373,o),
(78,328,o),
(28,242,cs),
(24,235,o),
(30,230,o),
(39,230,cs),
(49,230,o),
(54,234,o),
(59,239,cs),
(100,304,o),
(135,332,o),
(172,332,cs),
(195,332,o),
(204,320,o),
(193,298,cs),
(87,80,ls),
(62,26,o),
(108,-7,o),
(184,-7,cs)
);
},
{
closed = 1;
nodes = (
(642,-7,o),
(783,150,o),
(783,296,cs),
(783,347,o),
(775,373,o),
(733,373,cs),
(705,373,o),
(688,362,o),
(688,344,cs),
(688,315,o),
(723,301,o),
(723,240,cs),
(723,139,o),
(605,19,o),
(501,19,cs),
(467,19,o),
(451,35,o),
(462,66,cs),
(565,349,ls),
(568,360,o),
(559,369,o),
(537,369,cs),
(515,369,ls),
(497,369,o),
(485,364,o),
(482,354,cs),
(382,80,ls),
(363,26,o),
(407,-7,o),
(484,-7,cs)
);
}
);
};
guides = (
{
angle = 78.8592;
pos = (389,288);
},
{
angle = 78.6901;
pos = (331,325);
}
);
layerId = m002;
shapes = (
{
closed = 1;
nodes = (
(261,-7,o),
(320,36,o),
(370,90,cs),
(376,96,o),
(386,94,o),
(384,88,cs),
(361,26,o),
(407,-7,o),
(484,-7,cs),
(642,-7,o),
(783,150,o),
(783,296,cs),
(783,347,o),
(775,373,o),
(733,373,cs),
(705,373,o),
(688,362,o),
(688,344,cs),
(688,315,o),
(723,301,o),
(723,240,cs),
(723,139,o),
(605,19,o),
(501,19,cs),
(467,19,o),
(451,35,o),
(462,66,cs),
(568,359,ls),
(572,366,o),
(566,369,o),
(554,369,cs),
(503,369,ls),
(492,369,o),
(486,366,o),
(484,360,c),
(402,137,o),
(284,19,o),
(198,19,cs),
(169,19,o),
(152,33,o),
(168,66,cs),
(279,297,ls),
(301,344,o),
(279,373,o),
(220,373,cs),
(144,373,o),
(78,328,o),
(28,242,cs),
(24,235,o),
(30,230,o),
(39,230,cs),
(49,230,o),
(54,234,o),
(59,239,cs),
(100,304,o),
(135,332,o),
(172,332,cs),
(195,332,o),
(204,320,o),
(193,298,cs),
(87,80,ls),
(62,26,o),
(108,-7,o),
(182,-7,cs)
);
}
);
width = 805;
}
);
unicode = 119;
},
{
glyphname = x;
lastChange = "2022-09-01 20:49:22 +0000";
layers = (
{
background = {
shapes = (
{
closed = 1;
nodes = (
(434,-7,o),
(508,23,o),
(531,122,cs),
(532,130,o),
(529,135,o),
(519,135,cs),
(511,135,o),
(503,133,o),
(500,126,cs),
(477,54,o),
(438,31,o),
(405,31,cs),
(378,31,o),
(362,42,o),
(359,72,cs),
(331,304,ls),
(324,354,o),
(293,373,o),
(239,373,cs),
(184,373,o),
(106,343,o),
(74,243,cs),
(71,235,o),
(78,230,o),
(89,230,cs),
(97,230,o),
(103,234,o),
(106,240,cs),
(129,311,o),
(167,332,o),
(205,332,cs),
(227,332,o),
(240,322,o),
(244,298,cs),
(273,69,ls),
(279,14,o),
(314,-7,o),
(379,-7,cs)
);
},
{
closed = 1;
nodes = (
(259,194,l),
(209,102,o),
(150,33,o),
(103,33,cs),
(64,33,o),
(80,71,o),
(24,71,cs),
(-8,99,o),
(-24,77,o),
(-24,46,cs),
(-24,13,o),
(-4,-10,o),
(44,-7,cs),
(115,-7,o),
(175,26,o),
(227,92,cs),
(258,133,l),
(274,133,l)
);
},
{
closed = 1;
nodes = (
(342,189,l),
(365,264,o),
(434,332,o),
(480,332,cs),
(515,332,o),
(500,294,o),
(557,294,cs),
(591,294,o),
(612,310,o),
(612,332,cs),
(612,356,o),
(585,373,o),
(537,373,cs),
(466,373,o),
(408,341,o),
(354,274,cs),
(343,258,l),
(328,258,l)
);
}
);
};
layerId = m002;
shapes = (
{
closed = 1;
nodes = (
(115,-7,o),
(176,26,o),
(227,92,cs),
(250,123,ls),
(255,129,o),
(264,129,o),
(266,122,cs),
(273,69,ls),
(279,14,o),
(314,-7,o),
(379,-7,cs),
(434,-7,o),
(508,23,o),
(531,122,cs),
(532,130,o),
(529,135,o),
(519,135,cs),
(511,135,o),
(503,133,o),
(500,126,cs),
(477,54,o),
(438,31,o),
(405,31,cs),
(378,31,o),
(362,42,o),
(359,72,cs),
(346,178,ls),
(345,190,o),
(345,200,o),
(351,214,cs),
(379,278,o),
(439,332,o),
(480,332,cs),
(515,332,o),
(500,294,o),
(557,294,cs),
(591,294,o),
(612,310,o),
(612,332,cs),
(612,356,o),
(585,373,o),
(537,373,cs),
(470,373,o),
(415,345,o),
(352,269,cs),
(346,264,o),
(336,264,o),
(335,270,cs),
(331,304,ls),
(325,354,o),
(293,373,o),
(239,373,cs),
(184,373,o),
(106,343,o),
(74,243,cs),
(71,235,o),
(78,230,o),
(89,230,cs),
(97,230,o),
(103,234,o),
(106,240,cs),
(129,311,o),
(167,332,o),
(205,332,cs),
(227,332,o),
(240,322,o),
(244,298,cs),
(254,208,ls),
(255,195,o),
(254,185,o),
(246,172,cs),
(200,91,o),
(147,33,o),
(103,33,cs),
(64,33,o),
(80,71,o),
(24,71,cs),
(-8,99,o),
(-24,77,o),
(-24,46,cs),
(-24,13,o),
(-4,-10,o),
(44,-7,cs)
);
}
);
width = 596;
}
);
unicode = 120;
},
{
glyphname = y;
kernLeft = y;
kernRight = y;
lastChange = "2022-09-01 20:21:06 +0000";
layers = (
{
anchors = (
{
name = bottom;
pos = (149,0);
},
{
name = top;
pos = (267,510);
}
);
background = {
shapes = (
{
closed = 1;
nodes = (
(191,-156,o),
(539,128,o),
(539,296,cs),
(539,347,o),
(519,373,o),
(476,373,cs),
(448,373,o),
(431,362,o),
(431,344,cs),
(431,315,o),
(480,301,o),
(480,240,cs),
(480,173,o),
(394,85,o),
(304,17,c),
(298,17,l),
(277,304,ls),
(274,354,o),
(240,373,o),
(186,373,cs),
(131,373,o),
(53,343,o),
(21,243,cs),
(18,235,o),
(25,230,o),
(36,230,cs),
(44,230,o),
(51,234,o),
(53,240,cs),
(76,311,o),
(114,332,o),
(152,332,cs),
(174,332,o),
(189,322,o),
(191,298,cs),
(210,38,ls),
(217,-55,o),
(107,-125,o),
(9,-125,cs),
(-45,-173,o),
(-21,-106,o),
(-72,-106,cs),
(-90,-106,o),
(-107,-120,o),
(-107,-148,cs),
(-107,-186,o),
(-78,-215,o),
(-27,-215,cs)
);
}
);
};
layerId = m002;
shapes = (
{
closed = 1;
nodes = (
(191,-156,o),
(539,128,o),
(539,296,cs),
(539,347,o),
(519,373,o),
(476,373,cs),
(448,373,o),
(431,362,o),
(431,344,cs),
(431,315,o),
(480,301,o),
(480,240,cs),
(480,177,o),
(405,94,o),
(314,24,cs),
(306,18,o),
(297,20,o),
(297,26,cs),
(277,304,ls),
(274,354,o),
(240,373,o),
(186,373,cs),
(131,373,o),
(53,343,o),
(21,243,cs),
(18,235,o),
(25,230,o),
(36,230,cs),
(44,230,o),
(51,234,o),
(53,240,cs),
(76,311,o),
(114,332,o),
(152,332,cs),
(174,332,o),
(189,322,o),
(191,298,cs),
(210,38,ls),
(217,-55,o),
(107,-125,o),
(9,-125,cs),
(-45,-173,o),
(-21,-106,o),
(-72,-106,cs),
(-90,-106,o),
(-107,-120,o),
(-107,-148,cs),
(-107,-186,o),
(-78,-215,o),
(-27,-215,cs)
);
}
);
width = 553;
}
);
metricRight = v;
unicode = 121;
},
{
glyphname = z;
kernLeft = z;
kernRight = z;
lastChange = "2022-09-01 20:49:33 +0000";
layers = (
{
anchors = (
{
name = bottom;
pos = (139,0);
},
{
name = center;
pos = (198,255);
},
{
name = top;
pos = (257,510);
}
);
background = {
shapes = (
{
closed = 1;
nodes = (
(30,-7,o),
(76,23,o),
(91,48,c),
(424,290,ls),
(485,334,o),
(531,341,o),
(531,361,cs),
(531,369,o),
(523,373,o),
(511,373,cs),
(480,373,o),
(438,343,o),
(423,317,c),
(61,55,l),
(15,41,o),
(-13,31,o),
(-13,6,cs),
(-13,-3,o),
(-9,-9,o),
(0,-7,cs)
);
},
{
closed = 1;
nodes = (
(432,134,o),
(425,132,o),
(425,125,cs),
(425,67,o),
(402,43,o),
(351,43,cs),
(301,43,o),
(229,69,o),
(172,69,cs),
(141,69,o),
(126,65,o),
(114,58,c),
(92,58,l),
(76,41,l),
(83,41,o),
(95,42,o),
(103,42,cs),
(187,42,o),
(236,-7,o),
(314,-7,cs),
(382,-7,o),
(458,24,o),
(458,122,cs),
(458,129,o),
(452,134,o),
(442,134,cs)
);
},
{
closed = 1;
nodes = (
(82,230,o),
(89,234,o),
(89,240,cs),
(89,298,o),
(113,323,o),
(164,323,cs),
(213,323,o),
(268,293,o),
(343,293,cs),
(367,293,o),
(384,298,o),
(397,304,c),
(417,304,l),
(435,321,l),
(427,320,o),
(415,320,o),
(407,320,cs),
(323,320,o),
(279,373,o),
(201,373,cs),
(132,373,o),
(56,343,o),
(56,243,cs),
(56,235,o),
(62,230,o),
(72,230,cs)
);
}
);
};
guides = (
{
pos = (29,319);
},
{
pos = (29,186);
}
);
layerId = m002;
shapes = (
{
closed = 1;
nodes = (
(24,-7,o),
(59,10,o),
(76,31,cs),
(83,38,o),
(97,42,o),
(117,42,cs),
(179,42,o),
(218,-7,o),
(314,-7,cs),
(382,-7,o),
(458,24,o),
(458,122,cs),
(458,129,o),
(452,134,o),
(442,134,cs),
(432,134,o),
(425,132,o),
(425,125,cs),
(425,67,o),
(402,43,o),
(351,43,cs),
(301,43,o),
(229,69,o),
(172,69,cs),
(156,69,o),
(145,67,o),
(136,65,cs),
(123,62,o),
(117,66,o),
(124,71,cs),
(424,290,ls),
(485,334,o),
(531,341,o),
(531,361,cs),
(531,369,o),
(523,373,o),
(511,373,cs),
(484,373,o),
(450,350,o),
(431,329,cs),
(427,323,o),
(422,320,o),
(409,320,cs),
(316,320,o),
(304,373,o),
(201,373,cs),
(132,373,o),
(56,343,o),
(56,243,cs),
(56,235,o),
(62,230,o),
(72,230,cs),
(82,230,o),
(89,234,o),
(89,240,cs),
(89,298,o),
(113,323,o),
(164,323,cs),
(213,323,o),
(268,293,o),
(338,293,cs),
(351,293,o),
(367,295,o),
(376,297,cs),
(388,300,o),
(394,297,o),
(385,290,cs),
(61,55,l),
(15,41,o),
(-13,31,o),
(-13,6,cs),
(-13,-3,o),
(-9,-9,o),
(0,-7,cs)
);
}
);
width = 509;
}
);
unicode = 122;
},
{
glyphname = a.ss01;
kernLeft = a;
kernRight = a;
lastChange = "2022-08-27 16:36:11 +0000";
layers = (
{
background = {
shapes = (
{
closed = 1;
nodes = (
(186,-7,o),
(255,26,o),
(327,98,cs),
(367,138,l),
(407,138,l),
(488,340,l),
(478,340,l),
(461,361,o),
(429,373,o),
(384,373,cs),
(212,373,o),
(17,219,o),
(17,82,cs),
(17,24,o),
(54,-7,o),
(118,-7,cs)
);
},
{
closed = 1;
nodes = (
(125,31,o),
(107,40,o),
(107,74,cs),
(107,199,o),
(263,354,o),
(379,354,cs),
(415,354,o),
(436,339,o),
(436,311,cs),
(436,230,o),
(256,31,o),
(151,31,cs)
);
},
{
closed = 1;
nodes = (
(599,128,o),
(597,134,o),
(584,134,cs),
(575,134,o),
(570,132,o),
(567,127,cs),
(535,64,o),
(504,35,o),
(462,35,cs),
(430,35,o),
(423,51,o),
(436,82,cs),
(554,359,ls),
(557,365,o),
(550,369,o),
(540,369,cs),
(530,369,o),
(522,366,o),
(512,359,cs),
(447,313,l),
(350,82,ls),
(325,27,o),
(359,-7,o),
(427,-7,cs),
(506,-7,o),
(562,30,o),
(597,120,cs)
);
}
);
};
guides = (
{
angle = -26.565;
pos = (205,61);
showMeasurement = 1;
}
);
layerId = m002;
shapes = (
{
closed = 1;
nodes = (
(185,-7,o),
(255,26,o),
(353,124,cs),
(359,130,o),
(369,128,o),
(367,122,cs),
(350,82,ls),
(325,27,o),
(359,-7,o),
(427,-7,cs),
(506,-7,o),
(562,30,o),
(597,120,cs),
(599,128,o),
(597,134,o),
(584,134,cs),
(575,134,o),
(570,132,o),
(567,127,cs),
(535,64,o),
(504,35,o),
(462,35,cs),
(430,35,o),
(423,51,o),
(436,82,cs),
(554,359,ls),
(557,365,o),
(550,369,o),
(540,369,cs),
(530,369,o),
(520,366,o),
(500,350,cs),
(494,346,o),
(491,344,o),
(484,344,cs),
(477,344,o),
(474,346,o),
(468,350,cs),
(448,366,o),
(416,373,o),
(384,373,cs),
(212,373,o),
(17,219,o),
(17,82,cs),
(17,24,o),
(54,-7,o),
(117,-7,cs)
);
},
{
closed = 1;
nodes = (
(123,31,o),
(107,40,o),
(107,74,cs),
(107,199,o),
(263,354,o),
(379,354,cs),
(415,354,o),
(436,339,o),
(436,311,cs),
(436,230,o),
(256,31,o),
(151,31,cs)
);
}
);
width = 627;
}
);
},
{
glyphname = c.ss01;
kernLeft = o;
kernRight = c;
lastChange = "2022-08-27 16:33:08 +0000";
layers = (
{
anchors = (
{
name = bottom;
pos = (131,0);
},
{
name = top;
pos = (265,510);
}
);
background = {
shapes = (
{
closed = 1;
nodes = (
(292,-7,o),
(389,51,o),
(416,129,cs),
(422,142,o),
(421,145,o),
(409,145,cs),
(400,145,o),
(394,143,o),
(391,138,cs),
(344,65,o),
(290,31,o),
(221,31,cs),
(150,31,o),
(113,63,o),
(113,122,cs),
(113,234,o),
(230,354,o),
(338,354,cs),
(384,354,o),
(397,338,o),
(397,277,cs),
(397,248,ls),
(397,241,o),
(402,238,o),
(413,238,cs),
(421,238,o),
(425,241,o),
(429,247,cs),
(465,342,ls),
(467,349,o),
(466,350,o),
(458,354,cs),
(427,367,o),
(396,373,o),
(351,373,cs),
(191,373,o),
(20,240,o),
(20,110,cs),
(20,42,o),
(90,-7,o),
(187,-7,cs)
);
}
);
};
guides = (
{
angle = 78.25;
pos = (337,405);
}
);
layerId = m002;
shapes = (
{
closed = 1;
nodes = (
(292,-7,o),
(389,51,o),
(416,129,cs),
(422,142,o),
(421,145,o),
(409,145,cs),
(400,145,o),
(394,143,o),
(391,138,cs),
(344,65,o),
(290,31,o),
(221,31,cs),
(150,31,o),
(113,63,o),
(113,122,cs),
(113,234,o),
(229,353,o),
(329,353,cs),
(365,353,o),
(382,343,o),
(388,299,cs),
(394,248,ls),
(396,241,o),
(400,237,o),
(412,237,cs),
(420,237,o),
(425,241,o),
(429,247,cs),
(465,342,ls),
(467,349,o),
(466,350,o),
(458,354,cs),
(427,367,o),
(396,373,o),
(351,373,cs),
(191,373,o),
(20,240,o),
(20,110,cs),
(20,42,o),
(90,-7,o),
(187,-7,cs)
);
}
);
width = 465;
}
);
},
{
glyphname = d.ss01;
kernLeft = o;
kernRight = d;
lastChange = "2022-08-27 16:36:33 +0000";
layers = (
{
background = {
shapes = (
{
closed = 1;
nodes = (
(186,-7,o),
(255,26,o),
(327,98,cs),
(360,131,l),
(400,131,l),
(488,340,l),
(478,340,l),
(461,361,o),
(429,373,o),
(384,373,cs),
(212,373,o),
(17,219,o),
(17,82,cs),
(17,24,o),
(54,-7,o),
(118,-7,cs)
);
},
{
closed = 1;
nodes = (
(125,31,o),
(107,40,o),
(107,74,cs),
(107,199,o),
(263,354,o),
(379,354,cs),
(415,354,o),
(436,339,o),
(436,311,cs),
(436,230,o),
(256,31,o),
(151,31,cs)
);
},
{
closed = 1;
nodes = (
(345,82,ls),
(321,27,o),
(354,-7,o),
(423,-7,cs),
(503,-7,o),
(562,30,o),
(597,120,cs),
(599,128,o),
(597,134,o),
(584,134,cs),
(575,134,o),
(570,132,o),
(567,127,cs),
(535,64,o),
(504,35,o),
(462,35,cs),
(430,35,o),
(423,51,o),
(436,82,cs),
(624,526,ls),
(627,533,o),
(621,537,o),
(612,537,cs),
(605,537,o),
(599,536,o),
(592,532,cs),
(562,518,o),
(512,512,o),
(448,506,cs),
(438,505,o),
(431,502,o),
(430,498,cs),
(429,493,o),
(434,489,o),
(447,489,cs),
(486,486,ls),
(512,484,o),
(519,479,o),
(511,462,cs)
);
}
);
};
layerId = m002;
shapes = (
{
closed = 1;
nodes = (
(186,-7,o),
(262,27,o),
(346,118,cs),
(352,123,o),
(362,122,o),
(360,116,cs),
(345,82,ls),
(321,27,o),
(354,-7,o),
(423,-7,cs),
(503,-7,o),
(562,30,o),
(597,120,cs),
(599,128,o),
(597,134,o),
(584,134,cs),
(575,134,o),
(570,132,o),
(567,127,cs),
(535,64,o),
(504,35,o),
(462,35,cs),
(430,35,o),
(423,51,o),
(436,82,cs),
(624,526,ls),
(627,533,o),
(621,537,o),
(612,537,cs),
(605,537,o),
(599,536,o),
(592,532,cs),
(562,518,o),
(512,512,o),
(448,506,cs),
(438,505,o),
(431,502,o),
(430,498,cs),
(429,493,o),
(434,489,o),
(447,489,cs),
(486,486,ls),
(512,484,o),
(519,479,o),
(511,462,cs),
(468,367,ls),
(466,360,o),
(458,359,o),
(446,363,cs),
(429,369,o),
(408,373,o),
(384,373,cs),
(212,373,o),
(17,219,o),
(17,82,cs),
(17,24,o),
(54,-7,o),
(118,-7,cs)
);
},
{
closed = 1;
nodes = (
(125,31,o),
(107,40,o),
(107,74,cs),
(107,199,o),
(263,354,o),
(379,354,cs),
(415,354,o),
(436,339,o),
(436,311,cs),
(436,230,o),
(256,31,o),
(151,31,cs)
);
}
);
width = 627;
}
);
},
{
glyphname = dcroat.ss01;
kernLeft = o;
kernRight = d;
lastChange = "2022-08-27 16:34:48 +0000";
layers = (
{
layerId = m002;
shapes = (
{
ref = d;
},
{
closed = 1;
nodes = (
(653,417,ls),
(661,417,o),
(668,421,o),
(670,425,cs),
(673,431,ls),
(674,435,o),
(670,438,o),
(662,438,cs),
(299,438,ls),
(291,438,o),
(284,435,o),
(283,431,cs),
(281,425,ls),
(277,421,o),
(282,417,o),
(290,417,cs)
);
}
);
width = 627;
}
);
},
{
glyphname = e.ss01;
kernLeft = o;
kernRight = e;
lastChange = "2022-08-27 16:36:41 +0000";
layers = (
{
background = {
shapes = (
{
closed = 1;
nodes = (
(266,-7,o),
(347,37,o),
(405,122,cs),
(408,128,o),
(406,134,o),
(396,134,cs),
(388,134,o),
(382,133,o),
(379,128,cs),
(337,65,o),
(270,31,o),
(204,31,cs),
(144,31,o),
(107,60,o),
(107,114,cs),
(107,226,o),
(248,354,o),
(346,354,cs),
(377,354,o),
(390,344,o),
(390,325,cs),
(390,260,o),
(289,183,o),
(99,167,c),
(99,149,l),
(321,168,o),
(473,243,o),
(473,313,cs),
(473,349,o),
(438,373,o),
(355,373,cs),
(202,373,o),
(16,236,o),
(16,109,cs),
(16,35,o),
(77,-7,o),
(170,-7,cs)
);
}
);
};
layerId = m002;
shapes = (
{
closed = 1;
nodes = (
(266,-7,o),
(347,37,o),
(405,122,cs),
(408,128,o),
(406,134,o),
(396,134,cs),
(388,134,o),
(382,133,o),
(379,128,cs),
(337,65,o),
(270,31,o),
(204,31,cs),
(144,31,o),
(107,60,o),
(107,114,cs),
(107,121,o),
(107,128,o),
(108,135,cs),
(109,145,o),
(121,151,o),
(139,153,cs),
(338,178,o),
(473,247,o),
(473,313,cs),
(473,349,o),
(438,373,o),
(355,373,cs),
(202,373,o),
(16,236,o),
(16,109,cs),
(16,35,o),
(77,-7,o),
(170,-7,cs)
);
},
{
closed = 1;
nodes = (
(161,272,o),
(268,354,o),
(346,354,cs),
(377,354,o),
(390,344,o),
(390,325,cs),
(390,265,o),
(304,195,o),
(140,171,cs),
(126,168,o),
(117,173,o),
(122,180,cs)
);
}
);
width = 460;
}
);
},
{
glyphname = g.ss01;
kernLeft = g;
kernRight = g;
lastChange = "2022-08-27 16:37:06 +0000";
layers = (
{
background = {
shapes = (
{
closed = 1;
nodes = (
(285,-156,o),
(425,-113,o),
(425,-41,cs),
(425,-3,o),
(389,29,o),
(271,51,cs),
(170,70,o),
(160,75,o),
(160,85,cs),
(160,94,o),
(176,103,o),
(255,124,cs),
(331,144,ls),
(421,169,o),
(493,223,o),
(493,281,cs),
(493,307,o),
(480,329,o),
(457,344,c),
(457,348,l),
(568,348,ls),
(584,348,o),
(596,352,o),
(596,359,cs),
(596,365,o),
(589,369,o),
(573,369,cs),
(420,369,ls),
(386,369,o),
(370,373,o),
(338,373,cs),
(208,373,o),
(86,302,o),
(86,224,cs),
(86,176,o),
(136,141,o),
(213,134,c),
(213,132,l),
(160,116,ls),
(98,99,o),
(76,85,o),
(76,65,cs),
(76,53,o),
(83,43,o),
(118,32,c),
(118,29,l),
(77,19,ls),
(-29,-12,o),
(-68,-59,o),
(-68,-111,cs),
(-68,-172,o),
(-13,-216,o),
(123,-156,cs)
);
},
{
closed = 1;
nodes = (
(34,-138,o),
(-6,-151,o),
(-6,-98,cs),
(-6,-56,o),
(16,-8,o),
(164,21,c),
(229,8,ls),
(309,-8,o),
(336,-26,o),
(336,-55,cs),
(336,-110,o),
(239,-138,o),
(138,-138,cs)
);
},
{
closed = 1;
nodes = (
(200,149,o),
(175,170,o),
(175,212,cs),
(175,285,o),
(251,358,o),
(335,358,cs),
(379,358,o),
(404,336,o),
(404,295,cs),
(404,222,o),
(327,149,o),
(244,149,cs)
);
}
);
};
layerId = m002;
shapes = (
{
closed = 1;
nodes = (
(285,-156,o),
(425,-113,o),
(425,-43,cs),
(425,-6,o),
(393,22,o),
(294,41,cs),
(182,65,ls),
(124,76,o),
(114,90,o),
(140,99,cs),
(193,116,ls),
(231,129,o),
(253,133,o),
(284,138,cs),
(405,151,o),
(493,214,o),
(493,282,cs),
(493,300,o),
(488,315,o),
(475,331,cs),
(470,335,o),
(474,338,o),
(484,340,cs),
(564,349,ls),
(575,350,o),
(584,354,o),
(584,360,cs),
(584,365,o),
(578,369,o),
(565,369,cs),
(451,369,ls),
(393,369,o),
(384,373,o),
(346,373,cs),
(201,373,o),
(86,302,o),
(86,224,cs),
(86,190,o),
(109,161,o),
(158,145,cs),
(176,139,o),
(175,132,o),
(158,127,cs),
(56,94,ls),
(25,84,o),
(34,57,o),
(85,40,cs),
(103,33,o),
(99,26,o),
(80,20,cs),
(-38,-30,o),
(-68,-72,o),
(-68,-118,cs),
(-68,-172,o),
(-13,-216,o),
(123,-156,cs)
);
},
{
closed = 1;
nodes = (
(34,-138,o),
(-8,-151,o),
(-8,-101,cs),
(-8,-60,o),
(16,-20,o),
(112,8,cs),
(139,17,o),
(172,19,o),
(204,12,cs),
(229,7,ls),
(314,-10,o),
(336,-29,o),
(336,-60,cs),
(336,-109,o),
(239,-138,o),
(138,-138,cs)
);
},
{
closed = 1;
nodes = (
(200,149,o),
(175,167,o),
(175,212,cs),
(175,285,o),
(251,358,o),
(335,358,cs),
(379,358,o),
(404,343,o),
(404,295,cs),
(404,222,o),
(327,149,o),
(244,149,cs)
);
}
);
width = 530;
}
);
},
{
glyphname = f_b;
kernLeft = f;
kernRight = o;
lastChange = "2023-02-22 10:42:26 +0000";
layers = (
{
anchors = (
{
name = bottom_1;
pos = (110,0);
},
{
name = bottom_2;
pos = (447,0);
},
{
name = caret_1;
pos = (337,0);
},
{
name = top_1;
pos = (281,740);
},
{
name = top_2;
pos = (618,740);
}
);
background = {
shapes = (
{
closed = 1;
nodes = (
(98,0,ls),
(108,0,o),
(114,3,o),
(116,8,cs),
(258,341,ls),
(261,346,o),
(266,348,o),
(275,348,cs),
(363,348,ls),
(376,348,o),
(385,352,o),
(388,359,cs),
(390,364,o),
(382,369,o),
(368,369,cs),
(289,369,ls),
(277,369,o),
(271,371,o),
(274,378,cs),
(300,440,ls),
(325,500,o),
(354,518,o),
(396,518,cs),
(460,518,o),
(407,460,o),
(482,460,cs),
(512,460,o),
(535,474,o),
(535,496,cs),
(535,524,o),
(493,541,o),
(431,541,cs),
(316,541,o),
(228,479,o),
(194,398,cs),
(185,374,o),
(160,369,o),
(106,369,cs),
(92,369,o),
(82,365,o),
(82,359,cs),
(82,353,o),
(89,348,o),
(103,348,cs),
(131,348,ls),
(160,348,o),
(170,340,o),
(162,321,cs),
(29,9,ls),
(26,3,o),
(30,0,o),
(43,0,cs)
);
},
{
closed = 1;
nodes = (
(673,-7,o),
(874,147,o),
(874,285,cs),
(874,343,o),
(833,373,o),
(768,373,cs),
(702,373,o),
(627,341,o),
(530,240,cs),
(526,234,o),
(514,235,o),
(518,242,cs),
(637,526,ls),
(641,533,o),
(635,537,o),
(626,537,cs),
(618,537,o),
(612,536,o),
(606,532,cs),
(575,518,o),
(526,512,o),
(461,506,cs),
(451,505,o),
(444,502,o),
(443,498,cs),
(442,493,o),
(447,489,o),
(460,489,cs),
(500,486,ls),
(526,484,o),
(531,479,o),
(523,462,cs),
(376,115,ls),
(342,34,o),
(412,-7,o),
(501,-7,cs)
);
},
{
closed = 1;
nodes = (
(469,12,o),
(448,27,o),
(448,55,cs),
(448,150,o),
(637,335,o),
(734,335,cs),
(769,335,o),
(782,321,o),
(782,286,cs),
(782,167,o),
(621,12,o),
(505,12,cs)
);
}
);
};
layerId = m002;
shapes = (
{
closed = 1;
nodes = (
(673,-7,o),
(874,147,o),
(874,285,cs),
(874,343,o),
(833,373,o),
(768,373,cs),
(702,373,o),
(627,341,o),
(530,240,cs),
(526,234,o),
(514,235,o),
(518,242,cs),
(637,526,ls),
(641,533,o),
(635,537,o),
(624,537,cs),
(616,537,o),
(611,536,o),
(605,532,cs),
(578,523,ls),
(568,518,o),
(562,519,o),
(555,523,cs),
(532,535,o),
(501,541,o),
(462,541,cs),
(316,541,o),
(228,479,o),
(194,398,cs),
(185,374,o),
(160,369,o),
(106,369,cs),
(92,369,o),
(82,365,o),
(82,359,cs),
(82,353,o),
(89,348,o),
(103,348,cs),
(131,348,ls),
(160,348,o),
(170,340,o),
(162,321,cs),
(29,9,ls),
(26,3,o),
(30,0,o),
(43,0,cs),
(98,0,ls),
(108,0,o),
(114,3,o),
(116,8,cs),
(258,341,ls),
(261,346,o),
(266,348,o),
(275,348,cs),
(363,348,ls),
(376,348,o),
(385,352,o),
(388,359,cs),
(390,364,o),
(382,369,o),
(368,369,cs),
(289,369,ls),
(277,369,o),
(271,371,o),
(274,378,cs),
(294,427,ls),
(325,498,o),
(384,523,o),
(447,523,cs),
(513,523,o),
(537,492,o),
(519,449,cs),
(376,115,ls),
(342,34,o),
(412,-7,o),
(501,-7,cs)
);
},
{
closed = 1;
nodes = (
(469,12,o),
(448,27,o),
(448,55,cs),
(448,150,o),
(637,335,o),
(734,335,cs),
(769,335,o),
(782,321,o),
(782,286,cs),
(782,167,o),
(621,12,o),
(505,12,cs)
);
}
);
width = 891;
}
);
metricLeft = f;
metricRight = b;
},
{
glyphname = f_f_i;
lastChange = "2023-02-22 10:42:26 +0000";
layers = (
{
anchors = (
{
name = caret_1;
pos = (238,0);
},
{
name = caret_2;
pos = (476,0);
}
);
background = {
shapes = (
{
closed = 1;
nodes = (
(404,0,ls),
(414,0,o),
(420,3,o),
(422,8,cs),
(564,341,ls),
(566,346,o),
(572,348,o),
(581,348,cs),
(733,348,ls),
(770,348,o),
(776,336,o),
(766,311,cs),
(661,69,ls),
(637,14,o),
(667,-7,o),
(724,-7,cs),
(782,-7,o),
(858,23,o),
(915,122,cs),
(920,130,o),
(915,135,o),
(905,135,cs),
(897,135,o),
(890,133,o),
(885,126,cs),
(838,54,o),
(802,34,o),
(769,34,cs),
(743,34,o),
(738,47,o),
(747,68,cs),
(848,304,ls),
(867,351,o),
(838,369,o),
(758,369,cs),
(593,369,ls),
(583,369,o),
(576,371,o),
(580,378,cs),
(598,422,ls),
(626,486,o),
(660,519,o),
(735,519,cs),
(846,519,o),
(782,445,o),
(866,445,cs),
(897,445,o),
(919,460,o),
(919,481,cs),
(919,509,o),
(873,541,o),
(768,541,cs),
(621,541,o),
(535,479,o),
(500,398,cs),
(335,9,ls),
(332,3,o),
(336,0,o),
(347,0,cs)
);
},
{
closed = 1;
nodes = (
(552,508,l),
(529,520,o),
(497,526,o),
(459,526,cs),
(312,526,o),
(223,465,o),
(194,398,cs),
(185,374,o),
(160,369,o),
(106,369,cs),
(92,369,o),
(82,365,o),
(82,359,cs),
(82,353,o),
(89,348,o),
(103,348,cs),
(131,348,ls),
(160,348,o),
(170,340,o),
(162,321,cs),
(29,9,ls),
(26,3,o),
(30,0,o),
(43,0,cs),
(98,0,ls),
(108,0,o),
(114,3,o),
(116,8,cs),
(258,341,ls),
(261,346,o),
(266,348,o),
(275,348,cs),
(505,348,ls),
(518,348,o),
(527,352,o),
(529,359,cs),
(531,364,o),
(523,369,o),
(509,369,cs),
(289,369,ls),
(277,369,o),
(271,371,o),
(274,378,cs),
(294,427,ls),
(320,484,o),
(379,508,o),
(443,508,cs),
(509,508,o),
(532,478,o),
(514,434,c)
);
}
);
};
layerId = m002;
shapes = (
{
closed = 1;
nodes = (
(782,-7,o),
(858,23,o),
(915,122,cs),
(920,130,o),
(915,135,o),
(905,135,cs),
(897,135,o),
(890,133,o),
(885,126,cs),
(838,54,o),
(802,34,o),
(769,34,cs),
(743,34,o),
(738,47,o),
(747,68,cs),
(848,304,ls),
(867,351,o),
(838,369,o),
(758,369,cs),
(593,369,ls),
(583,369,o),
(576,371,o),
(580,378,cs),
(598,422,ls),
(626,486,o),
(660,519,o),
(735,519,cs),
(846,519,o),
(782,445,o),
(866,445,cs),
(897,445,o),
(919,460,o),
(919,481,cs),
(919,509,o),
(873,541,o),
(768,541,cs),
(690,541,o),
(629,523,o),
(585,497,cs),
(578,493,o),
(572,493,o),
(565,498,cs),
(540,516,o),
(501,526,o),
(446,526,cs),
(312,526,o),
(223,465,o),
(194,398,cs),
(185,374,o),
(160,369,o),
(106,369,cs),
(92,369,o),
(82,365,o),
(82,359,cs),
(82,353,o),
(89,348,o),
(103,348,cs),
(131,348,ls),
(160,348,o),
(170,340,o),
(162,321,cs),
(29,9,ls),
(26,3,o),
(30,0,o),
(43,0,cs),
(98,0,ls),
(108,0,o),
(114,3,o),
(116,8,cs),
(258,341,ls),
(261,346,o),
(266,348,o),
(275,348,cs),
(460,348,ls),
(470,348,o),
(477,345,o),
(475,339,cs),
(335,9,ls),
(332,3,o),
(336,0,o),
(347,0,cs),
(404,0,ls),
(414,0,o),
(420,3,o),
(422,8,cs),
(564,341,ls),
(566,346,o),
(572,348,o),
(581,348,cs),
(733,348,ls),
(770,348,o),
(776,336,o),
(766,311,cs),
(661,69,ls),
(637,14,o),
(667,-7,o),
(724,-7,cs)
);
},
{
closed = 1;
nodes = (
(277,369,o),
(271,371,o),
(274,378,cs),
(294,427,ls),
(320,484,o),
(379,508,o),
(443,508,cs),
(535,508,o),
(528,460,o),
(506,411,cs),
(491,376,ls),
(488,371,o),
(482,369,o),
(473,369,cs),
(289,369,ls)
);
}
);
width = 944;
}
);
metricLeft = f;
metricRight = i;
},
{
glyphname = f_f_l;
lastChange = "2023-02-22 10:42:26 +0000";
layers = (
{
anchors = (
{
name = caret_1;
pos = (238,0);
},
{
name = caret_2;
pos = (476,0);
}
);
background = {
shapes = (
{
closed = 1;
nodes = (
(565,498,l),
(540,516,o),
(501,526,o),
(446,526,cs),
(312,526,o),
(223,465,o),
(194,398,cs),
(185,374,o),
(160,369,o),
(106,369,cs),
(92,369,o),
(82,365,o),
(82,359,cs),
(82,353,o),
(89,348,o),
(103,348,cs),
(131,348,ls),
(160,348,o),
(170,340,o),
(162,321,cs),
(29,9,ls),
(26,3,o),
(30,0,o),
(43,0,cs),
(98,0,ls),
(108,0,o),
(114,3,o),
(116,8,cs),
(258,341,ls),
(261,346,o),
(266,348,o),
(275,348,cs),
(460,348,ls),
(470,348,o),
(477,345,o),
(475,339,cs),
(335,9,ls),
(332,3,o),
(336,0,o),
(347,0,cs),
(404,0,ls),
(414,0,o),
(420,3,o),
(422,8,cs),
(564,341,ls),
(566,346,o),
(572,348,o),
(581,348,cs),
(669,348,ls),
(681,348,o),
(690,352,o),
(693,359,cs),
(696,364,o),
(688,369,o),
(673,369,cs),
(593,369,ls),
(583,369,o),
(576,371,o),
(580,378,cs),
(600,427,ls),
(631,498,o),
(689,523,o),
(752,523,cs),
(819,523,o),
(843,492,o),
(823,449,cs),
(661,69,ls),
(637,14,o),
(667,-7,o),
(724,-7,cs),
(782,-7,o),
(858,23,o),
(915,122,cs),
(920,130,o),
(915,135,o),
(905,135,cs),
(897,135,o),
(890,133,o),
(885,126,cs),
(838,54,o),
(802,34,o),
(769,34,cs),
(743,34,o),
(738,47,o),
(747,68,cs),
(943,526,ls),
(945,533,o),
(941,537,o),
(931,537,cs),
(923,537,o),
(918,536,o),
(902,530,cs),
(883,523,ls),
(874,518,o),
(867,519,o),
(861,523,cs),
(838,535,o),
(807,541,o),
(768,541,cs),
(621,541,o),
(532,479,o),
(500,398,cs),
(491,376,l),
(488,371,o),
(482,369,o),
(473,369,cs),
(289,369,ls),
(277,369,o),
(271,371,o),
(274,378,cs),
(294,427,ls),
(320,484,o),
(379,508,o),
(443,508,cs),
(535,508,o),
(528,460,o),
(506,411,c)
);
}
);
};
layerId = m002;
shapes = (
{
closed = 1;
nodes = (
(782,-7,o),
(858,23,o),
(915,122,cs),
(920,130,o),
(915,135,o),
(905,135,cs),
(897,135,o),
(890,133,o),
(885,126,cs),
(838,54,o),
(802,34,o),
(769,34,cs),
(743,34,o),
(738,47,o),
(747,68,cs),
(943,526,ls),
(945,533,o),
(941,537,o),
(931,537,cs),
(923,537,o),
(918,536,o),
(902,530,cs),
(883,523,ls),
(874,518,o),
(867,519,o),
(861,523,cs),
(838,535,o),
(807,541,o),
(768,541,cs),
(693,541,o),
(635,524,o),
(590,498,cs),
(582,494,o),
(574,494,o),
(567,498,cs),
(537,517,o),
(500,526,o),
(446,526,cs),
(312,526,o),
(223,465,o),
(194,398,cs),
(185,374,o),
(160,369,o),
(106,369,cs),
(92,369,o),
(82,365,o),
(82,359,cs),
(82,353,o),
(89,348,o),
(103,348,cs),
(131,348,ls),
(160,348,o),
(170,340,o),
(162,321,cs),
(29,9,ls),
(26,3,o),
(30,0,o),
(43,0,cs),
(98,0,ls),
(108,0,o),
(114,3,o),
(116,8,cs),
(258,341,ls),
(261,346,o),
(266,348,o),
(275,348,cs),
(460,348,ls),
(470,348,o),
(477,345,o),
(475,339,cs),
(335,9,ls),
(332,3,o),
(336,0,o),
(347,0,cs),
(404,0,ls),
(414,0,o),
(420,3,o),
(422,8,cs),
(564,341,ls),
(566,346,o),
(572,348,o),
(581,348,cs),
(669,348,ls),
(681,348,o),
(690,352,o),
(693,359,cs),
(696,364,o),
(688,369,o),
(673,369,cs),
(593,369,ls),
(583,369,o),
(576,371,o),
(580,378,cs),
(600,427,ls),
(631,498,o),
(689,523,o),
(752,523,cs),
(819,523,o),
(843,492,o),
(823,449,cs),
(661,69,ls),
(637,14,o),
(667,-7,o),
(724,-7,cs)
);
},
{
closed = 1;
nodes = (
(277,369,o),
(271,371,o),
(274,378,cs),
(294,427,ls),
(320,484,o),
(379,508,o),
(443,508,cs),
(535,508,o),
(528,460,o),
(506,411,cs),
(491,376,ls),
(488,371,o),
(482,369,o),
(473,369,cs),
(289,369,ls)
);
}
);
width = 944;
}
);
metricLeft = f;
metricRight = l;
},
{
glyphname = f_h;
kernLeft = f;
kernRight = n;
lastChange = "2023-02-22 10:42:32 +0000";
layers = (
{
anchors = (
{
name = bottom_1;
pos = (124,0);
},
{
name = bottom_2;
pos = (489,0);
},
{
name = caret_1;
pos = (365.5,0);
},
{
name = top_1;
pos = (295,740);
},
{
name = top_2;
pos = (660,740);
}
);
layerId = m002;
shapes = (
{
closed = 1;
nodes = (
(807,-7,o),
(871,21,o),
(920,120,cs),
(925,128,o),
(922,134,o),
(908,134,cs),
(899,134,o),
(894,132,o),
(891,127,cs),
(853,55,o),
(821,35,o),
(785,35,cs),
(758,35,o),
(744,48,o),
(758,75,cs),
(858,285,ls),
(888,344,o),
(852,373,o),
(787,373,cs),
(718,373,o),
(627,335,o),
(521,217,cs),
(515,211,o),
(505,212,o),
(508,219,cs),
(637,526,ls),
(641,533,o),
(634,537,o),
(624,537,cs),
(616,537,o),
(611,536,o),
(605,532,cs),
(578,523,ls),
(568,518,o),
(562,519,o),
(555,523,cs),
(532,535,o),
(501,541,o),
(462,541,cs),
(316,541,o),
(228,479,o),
(194,398,cs),
(185,374,o),
(160,369,o),
(106,369,cs),
(92,369,o),
(82,365,o),
(82,359,cs),
(82,353,o),
(89,348,o),
(103,348,cs),
(131,348,ls),
(160,348,o),
(170,340,o),
(162,321,cs),
(29,9,ls),
(26,3,o),
(30,0,o),
(43,0,cs),
(98,0,ls),
(108,0,o),
(114,3,o),
(116,8,cs),
(258,341,ls),
(261,346,o),
(266,348,o),
(275,348,cs),
(363,348,ls),
(376,348,o),
(385,352,o),
(388,359,cs),
(390,364,o),
(382,369,o),
(368,369,cs),
(289,369,ls),
(277,369,o),
(271,371,o),
(274,378,cs),
(294,427,ls),
(325,498,o),
(384,523,o),
(447,523,cs),
(513,523,o),
(537,492,o),
(519,449,cs),
(331,9,ls),
(328,3,o),
(334,0,o),
(345,0,cs),
(400,0,ls),
(412,0,o),
(416,3,o),
(420,8,cs),
(482,158,o),
(653,342,o),
(751,342,cs),
(776,342,o),
(793,330,o),
(775,292,cs),
(673,82,ls),
(644,22,o),
(684,-7,o),
(747,-7,cs)
);
}
);
width = 951;
}
);
metricLeft = f;
metricRight = h;
},
{
glyphname = f_i;
kernLeft = f;
kernRight = i;
lastChange = "2023-02-22 10:42:26 +0000";
layers = (
{
anchors = (
{
name = bottom_1;
pos = (62,0);
},
{
name = bottom_2;
pos = (303,0);
},
{
name = caret_1;
pos = (241.5,0);
},
{
name = top_1;
pos = (233,740);
},
{
name = top_2;
pos = (474,740);
}
);
background = {
shapes = (
{
closed = 1;
nodes = (
(98,0,ls),
(108,0,o),
(114,3,o),
(116,8,cs),
(258,341,ls),
(261,346,o),
(266,348,o),
(275,348,cs),
(390,348,ls),
(402,348,o),
(412,352,o),
(414,359,cs),
(416,364,o),
(408,369,o),
(394,369,cs),
(289,369,ls),
(277,369,o),
(271,371,o),
(274,378,cs),
(300,440,ls),
(325,500,o),
(354,518,o),
(396,518,cs),
(460,518,o),
(407,460,o),
(482,460,cs),
(512,460,o),
(535,474,o),
(535,496,cs),
(535,524,o),
(493,541,o),
(431,541,cs),
(316,541,o),
(228,479,o),
(194,398,cs),
(185,374,o),
(160,369,o),
(106,369,cs),
(92,369,o),
(82,365,o),
(82,359,cs),
(82,353,o),
(89,348,o),
(103,348,cs),
(131,348,ls),
(160,348,o),
(170,340,o),
(162,321,cs),
(29,9,ls),
(26,3,o),
(30,0,o),
(43,0,cs)
);
},
{
closed = 1;
nodes = (
(555,-7,o),
(632,23,o),
(689,122,cs),
(695,130,o),
(689,135,o),
(678,135,cs),
(670,135,o),
(664,133,o),
(660,126,cs),
(612,54,o),
(575,34,o),
(544,34,cs),
(518,34,o),
(512,47,o),
(521,68,cs),
(619,297,ls),
(642,351,o),
(614,373,o),
(553,373,cs),
(496,373,o),
(422,343,o),
(365,243,cs),
(360,235,o),
(365,230,o),
(376,230,cs),
(384,230,o),
(390,234,o),
(394,240,cs),
(442,311,o),
(478,332,o),
(511,332,cs),
(537,332,o),
(542,319,o),
(532,298,cs),
(435,69,ls),
(413,14,o),
(440,-7,o),
(499,-7,cs)
);
},
{
closed = 1;
nodes = (
(646,437,o),
(682,454,o),
(682,480,cs),
(682,500,o),
(656,513,o),
(620,513,cs),
(583,513,o),
(549,496,o),
(549,470,cs),
(549,451,o),
(574,437,o),
(607,437,cs)
);
}
);
};
layerId = m002;
shapes = (
{
closed = 1;
nodes = (
(98,0,ls),
(108,0,o),
(114,3,o),
(116,8,cs),
(258,341,ls),
(261,346,o),
(266,348,o),
(275,348,cs),
(427,348,ls),
(466,348,o),
(470,336,o),
(460,311,cs),
(355,69,ls),
(332,14,o),
(361,-7,o),
(420,-7,cs),
(476,-7,o),
(553,23,o),
(610,122,cs),
(615,130,o),
(610,135,o),
(599,135,cs),
(591,135,o),
(584,133,o),
(581,126,cs),
(532,54,o),
(496,34,o),
(465,34,cs),
(438,34,o),
(432,47,o),
(442,68,cs),
(542,304,ls),
(562,351,o),
(532,369,o),
(452,369,cs),
(289,369,ls),
(277,369,o),
(271,371,o),
(274,378,cs),
(292,422,ls),
(320,486,o),
(354,519,o),
(430,519,cs),
(540,519,o),
(476,445,o),
(561,445,cs),
(591,445,o),
(614,460,o),
(614,481,cs),
(614,509,o),
(567,541,o),
(462,541,cs),
(316,541,o),
(228,479,o),
(194,398,cs),
(185,374,o),
(160,369,o),
(106,369,cs),
(92,369,o),
(82,365,o),
(82,359,cs),
(82,353,o),
(89,348,o),
(103,348,cs),
(131,348,ls),
(160,348,o),
(170,340,o),
(162,321,cs),
(29,9,ls),
(26,3,o),
(30,0,o),
(43,0,cs)
);
}
);
width = 638;
}
);
metricLeft = f;
metricRight = i;
},
{
glyphname = f_l;
kernLeft = f;
kernRight = l;
lastChange = "2023-02-22 10:42:32 +0000";
layers = (
{
anchors = (
{
name = bottom_1;
pos = (65,0);
},
{
name = bottom_2;
pos = (312,0);
},
{
name = caret_1;
pos = (247.5,0);
},
{
name = top_1;
pos = (236,740);
},
{
name = top_2;
pos = (483,740);
}
);
layerId = m002;
shapes = (
{
closed = 1;
nodes = (
(476,-7,o),
(553,23,o),
(610,122,cs),
(615,130,o),
(610,135,o),
(599,135,cs),
(591,135,o),
(584,133,o),
(581,126,cs),
(532,54,o),
(496,34,o),
(465,34,cs),
(438,34,o),
(432,47,o),
(442,68,cs),
(637,526,ls),
(641,533,o),
(635,537,o),
(626,537,cs),
(618,537,o),
(612,536,o),
(597,530,cs),
(578,523,ls),
(568,518,o),
(562,519,o),
(555,523,cs),
(532,535,o),
(501,541,o),
(462,541,cs),
(316,541,o),
(228,479,o),
(194,398,cs),
(185,374,o),
(160,369,o),
(106,369,cs),
(92,369,o),
(82,365,o),
(82,359,cs),
(82,353,o),
(89,348,o),
(103,348,cs),
(131,348,ls),
(160,348,o),
(170,340,o),
(162,321,cs),
(29,9,ls),
(26,3,o),
(30,0,o),
(43,0,cs),
(98,0,ls),
(108,0,o),
(114,3,o),
(116,8,cs),
(258,341,ls),
(261,346,o),
(266,348,o),
(275,348,cs),
(363,348,ls),
(376,348,o),
(385,352,o),
(388,359,cs),
(390,364,o),
(382,369,o),
(368,369,cs),
(289,369,ls),
(277,369,o),
(271,371,o),
(274,378,cs),
(294,427,ls),
(325,498,o),
(384,523,o),
(447,523,cs),
(513,523,o),
(537,492,o),
(519,449,cs),
(355,69,ls),
(332,14,o),
(361,-7,o),
(420,-7,cs)
);
}
);
width = 638;
}
);
metricLeft = f;
metricRight = l;
},
{
glyphname = q_j;
lastChange = "2023-02-22 10:42:26 +0000";
layers = (
{
anchors = (
{
name = bottom_1;
pos = (114,0);
},
{
name = bottom_2;
pos = (459,0);
},
{
name = caret_1;
pos = (345.5,0);
},
{
name = top_1;
pos = (232,510);
},
{
name = top_2;
pos = (577,510);
}
);
layerId = m002;
shapes = (
{
closed = 1;
nodes = (
(309,-148,ls),
(328,-148,o),
(342,-143,o),
(345,-133,cs),
(554,359,ls),
(557,365,o),
(550,369,o),
(540,369,cs),
(530,369,o),
(520,366,o),
(500,350,cs),
(494,346,o),
(491,344,o),
(484,344,cs),
(477,344,o),
(474,346,o),
(468,350,cs),
(448,366,o),
(416,373,o),
(384,373,cs),
(212,373,o),
(17,219,o),
(17,82,cs),
(17,24,o),
(54,-7,o),
(118,-7,cs),
(186,-7,o),
(261,24,o),
(352,123,cs),
(356,129,o),
(368,128,o),
(365,122,cs),
(271,-99,ls),
(262,-122,o),
(250,-128,o),
(214,-130,cs),
(182,-132,ls),
(169,-133,o),
(160,-135,o),
(160,-140,cs),
(160,-144,o),
(164,-148,o),
(177,-148,cs)
);
},
{
closed = 1;
nodes = (
(125,31,o),
(107,40,o),
(107,74,cs),
(107,199,o),
(263,354,o),
(379,354,cs),
(415,354,o),
(436,339,o),
(436,311,cs),
(436,230,o),
(256,31,o),
(151,31,cs)
);
},
{
pos = (425,0);
ref = j;
}
);
width = 914;
}
);
metricLeft = q;
metricRight = j;
},
{
glyphname = ordfeminine;
lastChange = "2022-08-18 20:35:28 +0000";
layers = (
{
layerId = m002;
shapes = (
{
closed = 1;
nodes = (
(247,263,o),
(302,286,o),
(382,354,cs),
(386,358,o),
(396,357,o),
(393,352,cs),
(378,325,ls),
(359,286,o),
(386,263,o),
(440,263,cs),
(504,263,o),
(549,287,o),
(576,350,cs),
(580,358,o),
(575,363,o),
(565,363,cs),
(554,363,o),
(550,359,o),
(547,354,cs),
(521,311,o),
(503,292,o),
(469,292,cs),
(443,292,o),
(438,303,o),
(448,324,cs),
(542,518,ls),
(545,523,o),
(539,524,o),
(531,524,cs),
(523,524,o),
(514,523,o),
(499,513,cs),
(494,508,o),
(492,507,o),
(486,507,cs),
(482,507,o),
(477,508,o),
(474,513,cs),
(458,523,o),
(432,527,o),
(406,527,cs),
(268,527,o),
(113,420,o),
(113,324,cs),
(113,283,o),
(143,263,o),
(193,263,cs)
);
},
{
closed = 1;
nodes = (
(197,292,o),
(185,300,o),
(185,323,cs),
(185,411,o),
(309,510,o),
(404,510,cs),
(431,510,o),
(448,498,o),
(448,479,cs),
(448,422,o),
(294,292,o),
(220,292,cs)
);
}
);
width = 552;
}
);
unicode = 170;
},
{
glyphname = ordmasculine;
lastChange = "2022-08-18 20:36:01 +0000";
layers = (
{
layerId = m002;
shapes = (
{
closed = 1;
nodes = (
(404,263,o),
(529,346,o),
(529,433,cs),
(529,490,o),
(475,527,o),
(390,527,cs),
(261,527,o),
(135,444,o),
(135,358,cs),
(135,300,o),
(189,263,o),
(275,263,cs)
);
},
{
closed = 1;
nodes = (
(229,280,o),
(206,301,o),
(206,343,cs),
(206,427,o),
(298,510,o),
(389,510,cs),
(435,510,o),
(458,489,o),
(458,447,cs),
(458,364,o),
(367,280,o),
(275,280,cs)
);
}
);
width = 485;
}
);
metricLeft = O;
metricRight = O;
unicode = 186;
},
{
glyphname = zero;
lastChange = "2022-08-31 19:16:14 +0000";
layers = (
{
background = {
shapes = (
{
closed = 1;
nodes = (
(493,-7,o),
(597,110,o),
(597,261,cs),
(597,411,o),
(493,527,o),
(340,527,cs),
(185,527,o),
(83,411,o),
(83,261,cs),
(83,110,o),
(185,-7,o),
(340,-7,cs)
);
},
{
closed = 1;
nodes = (
(229,13,o),
(178,94,o),
(178,261,cs),
(178,427,o),
(229,508,o),
(340,508,cs),
(451,508,o),
(501,427,o),
(501,261,cs),
(501,94,o),
(451,13,o),
(340,13,cs)
);
}
);
};
layerId = m002;
shapes = (
{
closed = 1;
nodes = (
(453,-7,o),
(611,216,o),
(611,352,cs),
(611,458,o),
(558,527,o),
(430,527,cs),
(222,527,o),
(63,306,o),
(63,169,cs),
(63,63,o),
(115,-7,o),
(245,-7,cs)
);
},
{
closed = 1;
nodes = (
(164,12,o),
(140,61,o),
(140,118,cs),
(140,225,o),
(250,508,o),
(423,508,cs),
(496,508,o),
(535,475,o),
(535,402,cs),
(535,296,o),
(424,12,o),
(251,12,cs)
);
}
);
width = 610;
}
);
unicode = 48;
},
{
glyphname = one;
lastChange = "2022-08-31 19:17:48 +0000";
layers = (
{
background = {
shapes = (
{
closed = 1;
nodes = (
(220,0,ls),
(232,0,o),
(240,3,o),
(244,8,cs),
(245,12,o),
(240,16,o),
(229,17,cs),
(186,20,ls),
(151,22,o),
(143,27,o),
(151,48,cs),
(350,515,ls),
(353,526,o),
(346,531,o),
(328,531,cs),
(307,531,o),
(263,521,o),
(168,513,cs),
(151,511,o),
(144,507,o),
(141,502,cs),
(140,496,o),
(145,492,o),
(161,493,cs),
(210,496,ls),
(238,497,o),
(255,494,o),
(247,477,cs),
(66,48,ls),
(59,27,o),
(45,22,o),
(7,20,cs),
(-35,23,ls),
(-44,22,o),
(-49,17,o),
(-50,11,cs),
(-52,4,o),
(-48,0,o),
(-38,0,cs)
);
}
);
};
layerId = m002;
shapes = (
{
closed = 1;
nodes = (
(217,0,ls),
(232,0,o),
(240,3,o),
(240,8,cs),
(240,13,o),
(236,16,o),
(224,17,cs),
(184,20,ls),
(148,22,o),
(140,27,o),
(148,48,cs),
(346,515,ls),
(351,526,o),
(344,531,o),
(325,531,cs),
(304,531,o),
(263,521,o),
(168,513,cs),
(148,511,o),
(141,507,o),
(141,501,cs),
(141,496,o),
(147,492,o),
(161,493,cs),
(210,496,ls),
(238,497,o),
(254,494,o),
(247,477,cs),
(66,48,ls),
(59,27,o),
(45,22,o),
(7,20,cs),
(-35,23,ls),
(-45,22,o),
(-50,17,o),
(-50,10,cs),
(-50,4,o),
(-45,0,o),
(-35,0,cs)
);
}
);
width = 610;
}
);
unicode = 49;
},
{
glyphname = two;
lastChange = "2022-08-31 19:14:36 +0000";
layers = (
{
background = {
shapes = (
{
closed = 1;
nodes = (
(373,0,ls),
(393,0,o),
(407,6,o),
(413,17,cs),
(486,152,ls),
(491,161,o),
(485,165,o),
(476,165,cs),
(466,165,o),
(457,162,o),
(452,156,cs),
(425,122,ls),
(376,58,o),
(327,43,o),
(227,43,cs),
(85,43,ls),
(66,43,o),
(56,51,o),
(71,60,cs),
(210,144,ls),
(405,264,o),
(542,338,o),
(574,414,cs),
(605,484,o),
(538,527,o),
(416,527,cs),
(309,527,o),
(183,495,o),
(124,400,cs),
(118,392,o),
(123,386,o),
(135,386,cs),
(145,386,o),
(153,388,o),
(160,398,cs),
(208,468,o),
(299,498,o),
(384,498,cs),
(468,498,o),
(501,465,o),
(476,406,cs),
(448,340,o),
(360,264,o),
(182,155,cs),
(-25,31,ls),
(-32,23,o),
(-35,19,o),
(-36,13,cs),
(-38,4,o),
(-33,0,o),
(-21,0,cs)
);
}
);
};
layerId = m002;
shapes = (
{
closed = 1;
nodes = (
(373,0,ls),
(393,0,o),
(407,3,o),
(413,14,cs),
(484,147,ls),
(488,156,o),
(482,161,o),
(470,161,cs),
(461,161,o),
(455,157,o),
(451,152,cs),
(424,120,ls),
(374,59,o),
(336,43,o),
(235,43,cs),
(86,43,ls),
(62,43,o),
(59,51,o),
(72,60,cs),
(218,150,ls),
(350,230,o),
(581,327,o),
(581,429,cs),
(581,489,o),
(504,527,o),
(382,527,cs),
(288,527,o),
(184,496,o),
(130,411,cs),
(124,402,o),
(130,395,o),
(143,395,cs),
(151,395,o),
(159,398,o),
(164,405,cs),
(210,473,o),
(288,499,o),
(362,499,cs),
(443,499,o),
(485,474,o),
(485,434,cs),
(485,340,o),
(302,234,o),
(191,162,cs),
(-20,37,ls),
(-31,25,o),
(-36,17,o),
(-36,10,cs),
(-36,3,o),
(-31,0,o),
(-19,0,cs)
);
}
);
width = 610;
}
);
unicode = 50;
},
{
glyphname = three;
lastChange = "2022-08-31 19:18:42 +0000";
layers = (
{
background = {
shapes = (
{
closed = 1;
nodes = (
(352,-7,o),
(483,78,o),
(483,171,cs),
(483,258,o),
(397,319,o),
(276,319,cs),
(262,319,o),
(245,317,o),
(231,315,cs),
(222,314,o),
(220,319,o),
(227,321,cs),
(256,333,ls),
(373,377,o),
(427,416,o),
(427,455,cs),
(427,498,o),
(369,527,o),
(281,527,cs),
(177,527,o),
(102,489,o),
(90,429,cs),
(89,422,o),
(95,416,o),
(106,416,cs),
(116,416,o),
(124,421,o),
(125,427,cs),
(139,474,o),
(187,503,o),
(255,503,cs),
(307,503,o),
(337,482,o),
(337,446,cs),
(337,414,o),
(302,382,o),
(227,343,cs),
(131,294,ls),
(118,287,o),
(115,281,o),
(121,277,cs),
(126,272,o),
(138,273,o),
(152,279,cs),
(177,288,o),
(206,292,o),
(241,292,cs),
(338,292,o),
(388,246,o),
(388,153,cs),
(388,70,o),
(319,13,o),
(218,13,cs),
(122,13,o),
(172,70,o),
(106,70,cs),
(78,70,o),
(59,60,o),
(59,43,cs),
(59,13,o),
(117,-7,o),
(210,-7,cs)
);
}
);
};
layerId = m002;
shapes = (
{
closed = 1;
nodes = (
(290,-7,o),
(451,106,o),
(451,196,cs),
(451,272,o),
(381,320,o),
(279,320,cs),
(270,320,o),
(263,319,o),
(254,317,cs),
(244,315,o),
(240,320,o),
(250,323,cs),
(288,333,ls),
(439,374,o),
(508,414,o),
(508,462,cs),
(508,500,o),
(452,527,o),
(360,527,cs),
(270,527,o),
(187,496,o),
(164,436,cs),
(160,428,o),
(166,422,o),
(177,422,cs),
(186,422,o),
(194,426,o),
(197,431,cs),
(220,480,o),
(276,504,o),
(338,504,cs),
(389,504,o),
(416,489,o),
(416,462,cs),
(416,422,o),
(369,387,o),
(261,346,cs),
(148,304,ls),
(135,299,o),
(130,296,o),
(130,292,cs),
(130,286,o),
(141,282,o),
(161,287,cs),
(184,293,o),
(210,298,o),
(244,298,cs),
(327,298,o),
(356,266,o),
(356,207,cs),
(356,122,o),
(275,12,o),
(123,12,cs),
(21,12,o),
(94,78,o),
(17,78,cs),
(-6,108,o),
(-22,92,o),
(-22,66,cs),
(-22,17,o),
(37,-7,o),
(115,-7,cs)
);
}
);
width = 610;
}
);
unicode = 51;
},
{
glyphname = four;
lastChange = "2022-08-31 19:18:03 +0000";
layers = (
{
background = {
shapes = (
{
closed = 1;
nodes = (
(405,0,ls),
(417,0,o),
(425,3,o),
(429,8,cs),
(430,12,o),
(425,15,o),
(414,17,cs),
(385,20,ls),
(350,23,o),
(344,27,o),
(352,48,cs),
(391,142,ls),
(394,148,o),
(402,151,o),
(414,151,cs),
(473,151,ls),
(482,151,o),
(491,156,o),
(492,161,cs),
(503,184,ls),
(504,189,o),
(499,192,o),
(489,192,cs),
(431,192,ls),
(420,192,o),
(415,196,o),
(417,202,cs),
(485,364,ls),
(489,372,o),
(480,374,o),
(466,371,cs),
(412,355,ls),
(402,353,o),
(396,349,o),
(393,344,cs),
(328,192,l),
(99,192,ls),
(87,192,o),
(86,196,o),
(94,202,cs),
(539,508,ls),
(550,515,o),
(547,520,o),
(532,520,cs),
(506,520,ls),
(497,520,o),
(489,518,o),
(483,513,cs),
(25,182,ls),
(14,173,o),
(8,169,o),
(6,164,cs),
(2,156,o),
(9,151,o),
(25,151,cs),
(310,151,l),
(267,48,ls),
(259,29,o),
(250,24,o),
(212,21,cs),
(152,17,ls),
(140,16,o),
(133,12,o),
(132,8,cs),
(130,3,o),
(135,0,o),
(148,0,cs)
);
}
);
};
layerId = m002;
shapes = (
{
closed = 1;
nodes = (
(405,0,ls),
(420,0,o),
(429,3,o),
(429,8,cs),
(429,12,o),
(424,16,o),
(408,17,cs),
(385,20,ls),
(350,22,o),
(344,27,o),
(352,48,cs),
(391,142,ls),
(394,148,o),
(402,151,o),
(414,151,cs),
(473,151,ls),
(482,151,o),
(489,156,o),
(492,161,cs),
(503,184,ls),
(505,189,o),
(499,192,o),
(489,192,cs),
(431,192,ls),
(420,192,o),
(415,196,o),
(417,202,cs),
(485,364,ls),
(489,372,o),
(480,375,o),
(466,371,cs),
(414,355,ls),
(405,353,o),
(398,349,o),
(396,344,cs),
(335,201,ls),
(332,195,o),
(324,192,o),
(314,192,cs),
(99,192,ls),
(87,192,o),
(86,196,o),
(94,202,cs),
(539,508,ls),
(550,515,o),
(547,520,o),
(532,520,cs),
(506,520,ls),
(497,520,o),
(489,518,o),
(483,513,cs),
(25,182,ls),
(12,173,o),
(3,167,o),
(3,161,cs),
(3,156,o),
(10,151,o),
(25,151,cs),
(293,151,ls),
(306,151,o),
(312,147,o),
(309,141,cs),
(270,48,ls),
(262,29,o),
(253,24,o),
(214,21,cs),
(152,17,ls),
(140,16,o),
(132,12,o),
(132,7,cs),
(132,3,o),
(139,0,o),
(152,0,cs)
);
}
);
width = 610;
}
);
unicode = 52;
},
{
glyphname = five;
lastChange = "2022-08-31 19:18:50 +0000";
layers = (
{
background = {
shapes = (
{
closed = 1;
nodes = (
(230,-7,o),
(405,56,o),
(451,166,cs),
(489,256,o),
(431,333,o),
(230,346,cs),
(217,347,o),
(213,349,o),
(218,357,cs),
(302,468,ls),
(308,474,o),
(316,477,o),
(327,477,cs),
(545,477,ls),
(555,477,o),
(564,479,o),
(568,485,cs),
(605,523,ls),
(612,531,o),
(614,538,o),
(599,538,cs),
(578,538,o),
(568,520,o),
(526,520,cs),
(317,520,ls),
(307,520,o),
(299,518,o),
(293,511,cs),
(140,311,ls),
(133,304,o),
(139,301,o),
(151,300,cs),
(337,292,o),
(388,242,o),
(350,150,cs),
(307,50,o),
(197,13,o),
(114,13,cs),
(10,13,o),
(66,70,o),
(6,70,cs),
(-16,96,o),
(-32,82,o),
(-37,62,cs),
(-48,15,o),
(18,-7,o),
(91,-7,cs)
);
}
);
};
guides = (
{
angle = 246.7488;
pos = (168,578);
}
);
layerId = m002;
shapes = (
{
closed = 1;
nodes = (
(335,-7,o),
(462,92,o),
(462,185,cs),
(462,263,o),
(394,328,o),
(236,351,cs),
(222,354,o),
(220,356,o),
(224,363,cs),
(307,469,ls),
(312,475,o),
(317,477,o),
(331,477,cs),
(544,477,ls),
(554,477,o),
(562,479,o),
(567,484,cs),
(605,523,ls),
(614,533,o),
(608,538,o),
(597,538,cs),
(576,538,o),
(568,520,o),
(526,520,cs),
(320,520,ls),
(309,520,o),
(301,518,o),
(297,513,cs),
(152,328,ls),
(147,321,o),
(152,317,o),
(162,315,cs),
(307,296,o),
(373,253,o),
(373,179,cs),
(373,99,o),
(290,12,o),
(143,12,cs),
(23,12,o),
(77,78,o),
(6,78,cs),
(-18,108,o),
(-32,90,o),
(-32,69,cs),
(-32,14,o),
(66,-7,o),
(136,-7,cs)
);
}
);
width = 610;
}
);
unicode = 53;
},
{
glyphname = six;
lastChange = "2022-08-31 19:18:12 +0000";
layers = (
{
background = {
shapes = (
{
closed = 1;
nodes = (
(432,-7,o),
(532,71,o),
(532,166,cs),
(532,260,o),
(440,330,o),
(316,330,cs),
(281,330,o),
(247,325,o),
(220,314,cs),
(209,310,o),
(201,312,o),
(205,320,cs),
(250,419,o),
(344,480,o),
(499,508,cs),
(508,510,o),
(513,513,o),
(513,518,cs),
(513,524,o),
(505,529,o),
(488,527,cs),
(262,497,o),
(83,347,o),
(83,189,cs),
(83,72,o),
(175,-7,o),
(308,-7,cs)
);
},
{
closed = 1;
nodes = (
(222,13,o),
(178,60,o),
(178,157,cs),
(178,258,o),
(224,311,o),
(315,311,cs),
(399,311,o),
(438,264,o),
(438,162,cs),
(438,60,o),
(397,13,o),
(309,13,cs)
);
}
);
};
layerId = m002;
shapes = (
{
closed = 1;
nodes = (
(393,-7,o),
(503,120,o),
(503,196,cs),
(503,276,o),
(435,330,o),
(324,330,cs),
(299,330,o),
(267,326,o),
(245,320,cs),
(235,316,o),
(228,320,o),
(232,326,cs),
(317,422,o),
(435,484,o),
(598,509,cs),
(611,512,o),
(619,513,o),
(619,519,cs),
(619,526,o),
(608,529,o),
(596,527,cs),
(306,497,o),
(43,299,o),
(43,138,cs),
(43,57,o),
(102,-7,o),
(221,-7,cs)
);
},
{
closed = 1;
nodes = (
(144,12,o),
(113,45,o),
(113,98,cs),
(113,167,o),
(174,311,o),
(319,311,cs),
(385,311,o),
(417,280,o),
(417,225,cs),
(417,159,o),
(352,12,o),
(218,12,cs)
);
}
);
width = 610;
}
);
unicode = 54;
},
{
glyphname = seven;
lastChange = "2022-08-31 19:19:00 +0000";
layers = (
{
layerId = m002;
shapes = (
{
closed = 1;
nodes = (
(87,0,ls),
(97,0,o),
(105,3,o),
(109,8,cs),
(596,488,ls),
(611,503,o),
(615,509,o),
(615,513,cs),
(615,518,o),
(610,520,o),
(598,520,cs),
(208,520,ls),
(197,520,o),
(189,518,o),
(184,512,cs),
(148,474,ls),
(140,466,o),
(140,459,o),
(155,459,cs),
(176,459,o),
(184,477,o),
(228,477,cs),
(521,477,ls),
(535,477,o),
(539,473,o),
(531,465,cs),
(44,11,ls),
(37,4,o),
(43,0,o),
(54,0,cs)
);
}
);
width = 610;
}
);
unicode = 55;
},
{
glyphname = eight;
lastChange = "2022-08-31 19:16:02 +0000";
layers = (
{
background = {
shapes = (
{
closed = 1;
nodes = (
(402,-7,o),
(520,71,o),
(520,150,cs),
(520,192,o),
(484,231,o),
(399,274,cs),
(391,277,o),
(393,283,o),
(404,286,cs),
(519,309,o),
(612,358,o),
(612,422,cs),
(612,480,o),
(529,527,o),
(412,527,cs),
(275,527,o),
(164,468,o),
(164,393,cs),
(164,354,o),
(193,315,o),
(258,280,cs),
(266,276,o),
(263,271,o),
(251,269,cs),
(117,243,o),
(15,190,o),
(15,115,cs),
(15,44,o),
(115,-7,o),
(246,-7,cs)
);
},
{
closed = 1;
nodes = (
(167,12,o),
(90,37,o),
(90,99,cs),
(90,150,o),
(138,224,o),
(273,258,cs),
(284,263,o),
(297,262,o),
(307,256,cs),
(378,223,o),
(434,185,o),
(434,133,cs),
(434,82,o),
(385,12,o),
(250,12,cs)
);
},
{
closed = 1;
nodes = (
(369,293,o),
(360,292,o),
(350,298,cs),
(271,337,o),
(246,370,o),
(246,402,cs),
(246,448,o),
(292,508,o),
(408,508,cs),
(496,508,o),
(538,479,o),
(538,437,cs),
(538,397,o),
(500,329,o),
(384,297,cs)
);
}
);
};
layerId = m002;
shapes = (
{
closed = 1;
nodes = (
(402,-7,o),
(520,64,o),
(520,150,cs),
(520,192,o),
(484,231,o),
(399,274,cs),
(391,277,o),
(393,283,o),
(404,286,cs),
(519,309,o),
(612,358,o),
(612,422,cs),
(612,480,o),
(529,527,o),
(412,527,cs),
(264,527,o),
(164,468,o),
(164,400,cs),
(164,354,o),
(193,315,o),
(258,280,cs),
(266,276,o),
(263,271,o),
(251,269,cs),
(117,243,o),
(15,190,o),
(15,115,cs),
(15,44,o),
(115,-7,o),
(246,-7,cs)
);
},
{
closed = 1;
nodes = (
(167,12,o),
(90,37,o),
(90,105,cs),
(90,156,o),
(138,224,o),
(273,258,cs),
(284,263,o),
(297,261,o),
(307,256,cs),
(400,212,o),
(434,178,o),
(434,126,cs),
(434,75,o),
(385,12,o),
(250,12,cs)
);
},
{
closed = 1;
nodes = (
(369,293,o),
(360,292,o),
(350,298,cs),
(273,338,o),
(246,370,o),
(246,416,cs),
(246,456,o),
(292,508,o),
(408,508,cs),
(496,508,o),
(538,477,o),
(538,435,cs),
(538,394,o),
(500,329,o),
(384,297,cs)
);
}
);
width = 610;
}
);
unicode = 56;
},
{
glyphname = nine;
lastChange = "2022-08-31 19:19:08 +0000";
layers = (
{
background = {
shapes = (
{
closed = 1;
nodes = (
(224,22,o),
(440,137,o),
(514,314,cs),
(562,430,o),
(505,514,o),
(376,524,cs),
(254,534,o),
(123,465,o),
(87,378,cs),
(52,292,o),
(113,217,o),
(235,207,cs),
(273,205,o),
(308,207,o),
(340,217,cs),
(352,220,o),
(359,218,o),
(353,210,cs),
(273,100,o),
(159,44,o),
(15,26,cs),
(6,26,o),
(-1,32,o),
(-2,25,cs),
(-4,17,o),
(0,7,o),
(17,7,cs)
);
},
{
closed = 1;
nodes = (
(221,468,o),
(281,513,o),
(367,506,cs),
(451,499,o),
(475,449,o),
(438,360,cs),
(398,267,o),
(331,218,o),
(244,224,cs),
(160,231,o),
(143,280,o),
(183,375,cs)
);
}
);
};
layerId = m002;
shapes = (
{
closed = 1;
nodes = (
(297,23,o),
(570,216,o),
(570,383,cs),
(570,474,o),
(504,527,o),
(396,527,cs),
(247,527,o),
(109,436,o),
(109,341,cs),
(109,258,o),
(178,207,o),
(289,207,cs),
(317,207,o),
(347,210,o),
(368,216,cs),
(378,219,o),
(385,215,o),
(379,209,cs),
(284,102,o),
(160,35,o),
(15,12,cs),
(-2,13,o),
(-5,10,o),
(-5,3,cs),
(-5,-6,o),
(2,-7,o),
(17,-6,cs)
);
},
{
closed = 1;
nodes = (
(231,224,o),
(194,259,o),
(194,318,cs),
(194,416,o),
(289,508,o),
(396,508,cs),
(459,508,o),
(500,475,o),
(500,416,cs),
(500,315,o),
(404,224,o),
(293,224,cs)
);
}
);
width = 610;
}
);
unicode = 57;
},
{
glyphname = .notdef;
lastChange = "2023-03-17 07:46:37 +0000";
layers = (
{
layerId = m002;
shapes = (
{
closed = 1;
nodes = (
(513,-94,ls),
(520,-94,o),
(526,-92,o),
(527,-88,cs),
(802,565,ls),
(803,569,o),
(800,571,o),
(793,571,cs),
(309,571,ls),
(302,571,o),
(298,569,o),
(297,565,cs),
(21,-88,ls),
(20,-92,o),
(23,-94,o),
(29,-94,cs)
);
},
{
closed = 1;
nodes = (
(332,547,l),
(752,547,l),
(491,-71,l),
(70,-71,l)
);
}
);
width = 793;
}
);
},
{
glyphname = period;
kernLeft = period;
kernRight = period;
lastChange = "2022-08-31 20:12:01 +0000";
layers = (
{
background = {
shapes = (
{
closed = 1;
nodes = (
(170,-7,o),
(210,8,o),
(210,36,cs),
(210,53,o),
(186,66,o),
(158,69,cs),
(114,73,o),
(70,54,o),
(70,27,cs),
(70,8,o),
(97,-7,o),
(133,-7,cs)
);
}
);
};
layerId = m002;
shapes = (
{
closed = 1;
nodes = (
(117,-7,o),
(156,10,o),
(156,36,cs),
(156,55,o),
(130,70,o),
(94,70,cs),
(59,70,o),
(20,53,o),
(20,27,cs),
(20,8,o),
(45,-7,o),
(82,-7,cs)
);
}
);
width = 290;
}
);
unicode = 46;
},
{
glyphname = comma;
kernLeft = period;
kernRight = period;
lastChange = "2022-08-31 20:13:38 +0000";
layers = (
{
background = {
shapes = (
{
ref = period;
}
);
};
layerId = m002;
shapes = (
{
closed = 1;
nodes = (
(69,-79,o),
(153,-15,o),
(153,31,cs),
(153,54,o),
(129,70,o),
(87,70,cs),
(51,70,o),
(21,54,o),
(21,33,cs),
(21,9,o),
(66,6,o),
(66,-17,cs),
(66,-44,o),
(16,-76,o),
(-26,-133,cs),
(-33,-138,o),
(-36,-142,o),
(-36,-147,cs),
(-36,-156,o),
(-24,-157,o),
(-13,-150,cs)
);
}
);
width = 290;
}
);
unicode = 44;
},
{
glyphname = exclam;
lastChange = "2022-09-01 19:18:34 +0000";
layers = (
{
background = {
shapes = (
{
closed = 1;
nodes = (
(167,131,o),
(175,134,o),
(177,142,cs),
(231,267,o),
(353,456,o),
(370,495,cs),
(379,518,o),
(365,537,o),
(327,540,cs),
(290,542,o),
(261,528,o),
(251,504,cs),
(235,465,o),
(195,269,o),
(145,144,cs),
(143,137,o),
(148,133,o),
(158,132,cs)
);
}
);
};
layerId = m002;
shapes = (
{
closed = 1;
nodes = (
(167,131,o),
(175,134,o),
(177,142,cs),
(231,267,o),
(353,456,o),
(370,495,cs),
(382,521,o),
(362,541,o),
(320,541,cs),
(288,541,o),
(261,528,o),
(251,504,cs),
(235,465,o),
(195,269,o),
(145,144,cs),
(143,137,o),
(148,133,o),
(158,132,cs)
);
},
{
pos = (18,0);
ref = period;
}
);
width = 363;
}
);
unicode = 33;
},
{
glyphname = exclamdown;
lastChange = "2022-09-01 19:15:39 +0000";
layers = (
{
layerId = m002;
shapes = (
{
closed = 1;
nodes = (
(90,-156,o),
(116,-143,o),
(125,-119,cs),
(143,-80,o),
(175,99,o),
(224,225,cs),
(228,233,o),
(222,237,o),
(213,238,cs),
(204,238,o),
(195,235,o),
(193,228,cs),
(139,103,o),
(24,-71,o),
(7,-110,cs),
(-4,-188,o),
(15,-156,o),
(56,-156,cs)
);
},
{
angle = 180;
pos = (257,511);
ref = period;
}
);
width = 362;
}
);
metricLeft = "=|exclam";
metricRight = "=|exclam";
unicode = 161;
},
{
glyphname = question;
lastChange = "2022-09-01 19:14:29 +0000";
layers = (
{
background = {
shapes = (
{
closed = 1;
nodes = (
(178,133,o),
(185,137,o),
(189,144,cs),
(224,220,ls),
(231,235,o),
(238,240,o),
(255,248,cs),
(314,275,ls),
(434,332,o),
(483,373,o),
(505,428,cs),
(531,490,o),
(475,532,o),
(356,542,cs),
(317,545,o),
(256,542,o),
(224,532,cs),
(213,528,o),
(208,525,o),
(204,518,cs),
(164,431,ls),
(160,423,o),
(164,418,o),
(172,417,cs),
(182,416,o),
(186,420,o),
(193,427,cs),
(262,494,o),
(310,523,o),
(385,518,cs),
(427,513,o),
(457,494,o),
(436,446,cs),
(416,399,o),
(381,370,o),
(285,324,cs),
(253,308,ls),
(218,292,o),
(205,279,o),
(195,253,cs),
(158,147,ls),
(155,139,o),
(159,135,o),
(168,134,cs)
);
}
);
};
layerId = m002;
shapes = (
{
closed = 1;
nodes = (
(178,134,o),
(185,137,o),
(189,144,cs),
(232,235,ls),
(240,251,o),
(247,260,o),
(266,267,cs),
(331,292,ls),
(443,336,o),
(512,387,o),
(512,456,cs),
(512,517,o),
(420,542,o),
(325,542,cs),
(284,542,o),
(248,540,o),
(224,532,cs),
(213,528,o),
(208,525,o),
(204,518,cs),
(164,431,ls),
(160,423,o),
(164,418,o),
(172,417,cs),
(182,416,o),
(186,420,o),
(193,427,cs),
(262,494,o),
(304,518,o),
(373,518,cs),
(414,518,o),
(443,502,o),
(443,474,cs),
(443,415,o),
(390,375,o),
(298,338,cs),
(258,322,ls),
(221,308,o),
(210,293,o),
(201,267,cs),
(158,147,ls),
(153,138,o),
(161,134,o),
(169,134,cs)
);
},
{
pos = (33,0);
ref = period;
}
);
width = 474;
}
);
unicode = 63;
},
{
glyphname = questiondown;
lastChange = "2022-09-01 19:11:10 +0000";
layers = (
{
layerId = m002;
shapes = (
{
closed = 1;
nodes = (
(198,-151,o),
(235,-149,o),
(258,-141,cs),
(270,-138,o),
(275,-134,o),
(279,-127,cs),
(319,-41,ls),
(323,-32,o),
(319,-27,o),
(310,-26,cs),
(301,-26,o),
(297,-29,o),
(290,-36,cs),
(221,-103,o),
(178,-128,o),
(109,-128,cs),
(69,-128,o),
(39,-111,o),
(39,-83,cs),
(39,-24,o),
(92,16,o),
(185,53,cs),
(224,69,ls),
(262,83,o),
(273,98,o),
(282,123,cs),
(317,222,ls),
(321,231,o),
(314,235,o),
(306,235,cs),
(297,235,o),
(290,233,o),
(285,224,cs),
(250,156,ls),
(241,140,o),
(236,131,o),
(217,123,cs),
(152,99,ls),
(39,55,o),
(-22,6,o),
(-22,-89,cs),
(-22,-174,o),
(63,-151,o),
(158,-151,cs)
);
},
{
angle = 180;
pos = (322,511);
ref = period;
}
);
width = 474;
}
);
metricLeft = "=|question";
metricRight = "=|question";
unicode = 191;
},
{
glyphname = asterisk;
kernLeft = asterisk;
kernRight = asterisk;
lastChange = "2022-08-23 20:03:46 +0000";
layers = (
{
background = {
shapes = (
{
closed = 1;
nodes = (
(379,299,o),
(404,311,o),
(408,326,cs),
(417,348,o),
(393,366,o),
(399,402,cs),
(400,408,o),
(408,409,o),
(415,405,cs),
(458,377,o),
(458,355,o),
(486,342,cs),
(505,333,o),
(536,333,o),
(559,347,cs),
(582,361,o),
(576,378,o),
(557,387,cs),
(527,401,o),
(482,394,o),
(429,414,cs),
(420,417,o),
(421,422,o),
(432,422,cs),
(499,434,o),
(535,422,o),
(575,429,cs),
(600,435,o),
(619,450,o),
(610,467,cs),
(599,484,o),
(570,488,o),
(545,482,cs),
(504,473,o),
(488,450,o),
(425,433,cs),
(416,430,o),
(412,433,o),
(414,439,cs),
(438,474,o),
(476,487,o),
(485,508,cs),
(492,523,o),
(478,538,o),
(447,541,cs),
(414,543,o),
(390,531,o),
(385,517,cs),
(376,494,o),
(400,477,o),
(394,440,cs),
(393,434,o),
(385,433,o),
(379,436,cs),
(336,463,o),
(338,486,o),
(307,501,cs),
(289,509,o),
(258,509,o),
(235,496,cs),
(212,481,o),
(217,465,o),
(237,456,cs),
(267,441,o),
(312,448,o),
(365,428,cs),
(374,425,o),
(373,422,o),
(361,420,cs),
(294,409,o),
(259,422,o),
(218,413,cs),
(193,407,o),
(175,393,o),
(184,376,cs),
(194,359,o),
(223,354,o),
(248,360,cs),
(288,369,o),
(304,389,o),
(367,409,cs),
(376,411,o),
(382,410,o),
(379,404,cs),
(355,369,o),
(317,355,o),
(308,334,cs),
(301,320,o),
(315,304,o),
(346,302,cs)
);
}
);
};
layerId = m002;
shapes = (
{
closed = 1;
nodes = (
(379,299,o),
(404,311,o),
(408,326,cs),
(417,348,o),
(393,366,o),
(399,402,cs),
(400,408,o),
(408,409,o),
(415,405,cs),
(458,377,o),
(458,355,o),
(486,342,cs),
(505,333,o),
(536,333,o),
(559,347,cs),
(582,361,o),
(576,378,o),
(557,387,cs),
(527,401,o),
(482,394,o),
(429,414,cs),
(420,417,o),
(421,422,o),
(432,422,cs),
(499,434,o),
(535,422,o),
(575,429,cs),
(600,435,o),
(619,450,o),
(610,467,cs),
(599,484,o),
(570,488,o),
(545,482,cs),
(504,473,o),
(488,450,o),
(425,433,cs),
(416,430,o),
(412,433,o),
(414,439,cs),
(438,474,o),
(476,487,o),
(485,508,cs),
(492,523,o),
(478,538,o),
(447,541,cs),
(414,543,o),
(390,531,o),
(385,517,cs),
(376,494,o),
(400,477,o),
(394,440,cs),
(393,434,o),
(385,433,o),
(379,436,cs),
(336,463,o),
(338,486,o),
(307,501,cs),
(289,509,o),
(258,509,o),
(235,496,cs),
(212,481,o),
(217,465,o),
(237,456,cs),
(267,441,o),
(312,448,o),
(365,428,cs),
(374,425,o),
(373,422,o),
(361,420,cs),
(294,409,o),
(259,422,o),
(218,413,cs),
(193,407,o),
(175,393,o),
(184,376,cs),
(194,359,o),
(223,354,o),
(248,360,cs),
(288,369,o),
(304,389,o),
(367,409,cs),
(376,411,o),
(382,410,o),
(379,404,cs),
(355,369,o),
(317,355,o),
(308,334,cs),
(301,320,o),
(315,304,o),
(346,302,cs)
);
}
);
width = 593;
}
);
unicode = 42;
},
{
glyphname = numbersign;
lastChange = "2022-08-11 18:45:18 +0000";
layers = (
{
layerId = m002;
shapes = (
{
closed = 1;
nodes = (
(210,0,l),
(275,154,ls),
(279,162,o),
(289,167,o),
(304,167,cs),
(513,167,ls),
(527,167,o),
(532,162,o),
(530,154,cs),
(466,0,l),
(508,0,l),
(573,154,ls),
(576,162,o),
(585,167,o),
(601,167,cs),
(770,167,l),
(770,188,l),
(610,188,ls),
(597,188,o),
(590,192,o),
(592,200,cs),
(643,320,ls),
(646,327,o),
(656,332,o),
(672,332,cs),
(841,332,l),
(841,354,l),
(680,354,ls),
(667,354,o),
(660,359,o),
(662,366,cs),
(727,520,l),
(685,520,l),
(620,366,ls),
(616,359,o),
(607,354,o),
(591,354,cs),
(382,354,ls),
(369,354,o),
(362,359,o),
(365,366,cs),
(430,520,l),
(388,520,l),
(323,366,ls),
(319,359,o),
(309,354,o),
(293,354,cs),
(124,354,l),
(124,332,l),
(285,332,ls),
(299,332,o),
(306,328,o),
(302,320,cs),
(253,201,ls),
(248,193,o),
(239,188,o),
(223,188,cs),
(54,188,l),
(54,167,l),
(215,167,ls),
(229,167,o),
(236,162,o),
(232,154,cs),
(168,0,l)
);
},
{
closed = 1;
nodes = (
(299,188,o),
(292,192,o),
(294,200,cs),
(345,320,ls),
(350,327,o),
(359,332,o),
(374,332,cs),
(583,332,ls),
(597,332,o),
(603,328,o),
(600,320,cs),
(550,201,ls),
(546,193,o),
(537,188,o),
(521,188,cs),
(312,188,ls)
);
}
);
width = 831;
}
);
unicode = 35;
},
{
glyphname = slash;
lastChange = "2022-08-11 18:55:19 +0000";
layers = (
{
layerId = m002;
shapes = (
{
closed = 1;
nodes = (
(-59,-130,ls),
(-53,-130,o),
(-48,-126,o),
(-46,-121,cs),
(488,563,ls),
(491,567,o),
(489,571,o),
(480,571,cs),
(465,571,ls),
(457,571,o),
(450,568,o),
(447,564,cs),
(-76,-119,ls),
(-79,-125,o),
(-78,-130,o),
(-71,-130,cs)
);
}
);
width = 342;
}
);
unicode = 47;
},
{
glyphname = backslash;
lastChange = "2022-08-11 18:57:07 +0000";
layers = (
{
layerId = m002;
shapes = (
{
closed = 1;
nodes = (
(197,-94,ls),
(206,-94,o),
(210,-90,o),
(212,-86,cs),
(212,564,ls),
(212,568,o),
(208,571,o),
(200,571,cs),
(186,571,ls),
(177,571,o),
(174,567,o),
(174,563,cs),
(172,-88,ls),
(172,-91,o),
(176,-94,o),
(184,-94,cs)
);
}
);
width = 338;
}
);
unicode = 92;
},
{
glyphname = hyphen;
kernLeft = hyphen;
kernRight = hyphen;
lastChange = "2022-08-31 19:46:08 +0000";
layers = (
{
background = {
shapes = (
{
closed = 1;
nodes = (
(459,187,ls),
(477,187,o),
(491,191,o),
(491,200,cs),
(491,207,o),
(480,212,o),
(466,212,cs),
(144,212,ls),
(125,212,o),
(113,207,o),
(113,199,cs),
(113,191,o),
(123,187,o),
(138,187,cs)
);
}
);
};
layerId = m002;
shapes = (
{
closed = 1;
nodes = (
(443,187,ls),
(451,187,o),
(458,190,o),
(459,195,cs),
(462,205,ls),
(466,209,o),
(461,212,o),
(453,212,cs),
(133,212,ls),
(125,212,o),
(117,209,o),
(116,205,cs),
(113,195,ls),
(112,190,o),
(115,187,o),
(123,187,cs)
);
}
);
width = 564;
}
);
unicode = 45;
},
{
glyphname = endash;
kernLeft = hyphen;
kernRight = hyphen;
lastChange = "2022-08-23 20:03:55 +0000";
layers = (
{
layerId = m002;
shapes = (
{
closed = 1;
nodes = (
(547,187,ls),
(555,187,o),
(562,190,o),
(564,195,cs),
(567,205,ls),
(568,209,o),
(566,212,o),
(558,212,cs),
(133,212,ls),
(125,212,o),
(117,209,o),
(116,205,cs),
(113,195,ls),
(112,190,o),
(115,187,o),
(123,187,cs)
);
}
);
width = 668;
}
);
unicode = 8211;
},
{
glyphname = emdash;
kernLeft = hyphen;
kernRight = hyphen;
lastChange = "2022-08-23 20:03:55 +0000";
layers = (
{
layerId = m002;
shapes = (
{
closed = 1;
nodes = (
(826,187,ls),
(833,187,o),
(839,190,o),
(841,195,cs),
(845,205,ls),
(846,209,o),
(844,212,o),
(836,212,cs),
(133,212,ls),
(125,212,o),
(117,209,o),
(116,205,cs),
(113,195,ls),
(112,190,o),
(115,187,o),
(123,187,cs)
);
}
);
width = 945;
}
);
unicode = 8212;
},
{
glyphname = underscore;
lastChange = "2022-08-11 19:14:16 +0000";
layers = (
{
layerId = m002;
shapes = (
{
closed = 1;
nodes = (
(347,-79,ls),
(355,-79,o),
(362,-76,o),
(363,-71,cs),
(368,-61,ls),
(369,-57,o),
(367,-54,o),
(359,-54,cs),
(-50,-75,ls),
(-56,-75,o),
(-62,-79,o),
(-63,-85,cs),
(-66,-99,ls),
(-67,-105,o),
(-64,-109,o),
(-58,-109,cs)
);
}
);
width = 492;
}
);
unicode = 95;
},
{
glyphname = parenleft;
lastChange = "2022-09-01 21:01:08 +0000";
layers = (
{
layerId = m002;
shapes = (
{
closed = 1;
nodes = (
(290,-87,o),
(294,-84,o),
(294,-81,cs),
(297,-78,o),
(294,-76,o),
(291,-72,cs),
(217,-18,o),
(184,49,o),
(184,144,cs),
(184,269,o),
(283,428,o),
(537,516,cs),
(544,518,o),
(546,520,o),
(547,523,cs),
(549,526,o),
(546,529,o),
(538,530,cs),
(535,530,o),
(530,530,o),
(527,528,cs),
(266,457,o),
(103,320,o),
(103,159,cs),
(103,50,o),
(189,-37,o),
(271,-82,cs),
(274,-84,o),
(277,-85,o),
(282,-86,cs)
);
}
);
width = 458;
}
);
unicode = 40;
},
{
glyphname = braceleft;
lastChange = "2022-09-01 21:01:41 +0000";
layers = (
{
background = {
shapes = (
{
closed = 1;
nodes = (
(229,-70,o),
(237,-65,o),
(239,-60,cs),
(240,-55,o),
(236,-52,o),
(227,-52,cs),
(164,-52,o),
(147,-27,o),
(169,26,cs),
(213,128,ls),
(240,193,o),
(222,218,o),
(159,233,c),
(235,247,o),
(274,272,o),
(301,337,cs),
(344,439,ls),
(367,493,o),
(405,518,o),
(467,518,cs),
(476,518,o),
(484,521,o),
(486,526,cs),
(489,531,o),
(484,535,o),
(475,535,cs),
(367,535,o),
(294,503,o),
(266,436,cs),
(223,334,ls),
(194,266,o),
(156,241,o),
(94,241,cs),
(85,241,o),
(77,238,o),
(74,233,cs),
(72,228,o),
(78,224,o),
(87,224,cs),
(150,224,o),
(167,200,o),
(138,132,cs),
(94,29,ls),
(66,-37,o),
(112,-70,o),
(220,-70,cs)
);
}
);
};
layerId = m002;
shapes = (
{
closed = 1;
nodes = (
(230,-70,o),
(240,-66,o),
(240,-60,cs),
(240,-55,o),
(236,-52,o),
(223,-52,cs),
(161,-52,o),
(150,-28,o),
(172,26,cs),
(214,127,ls),
(240,190,o),
(222,218,o),
(161,233,c),
(235,246,o),
(274,269,o),
(300,333,cs),
(343,434,ls),
(370,501,o),
(407,518,o),
(462,518,cs),
(476,518,o),
(485,522,o),
(485,527,cs),
(485,532,o),
(478,535,o),
(466,535,cs),
(363,535,o),
(293,503,o),
(266,437,cs),
(223,336,ls),
(195,269,o),
(156,241,o),
(95,241,cs),
(83,241,o),
(74,238,o),
(74,232,cs),
(74,227,o),
(80,224,o),
(94,224,cs),
(151,224,o),
(168,202,o),
(140,135,cs),
(98,34,ls),
(70,-31,o),
(108,-70,o),
(212,-70,cs)
);
}
);
width = 423;
}
);
unicode = 123;
},
{
glyphname = bracketleft;
lastChange = "2022-09-01 21:02:14 +0000";
layers = (
{
background = {
shapes = (
{
closed = 1;
nodes = (
(223,-71,ls),
(236,-71,o),
(245,-67,o),
(246,-62,cs),
(248,-57,o),
(244,-54,o),
(231,-54,cs),
(106,-54,ls),
(97,-54,o),
(91,-50,o),
(94,-45,cs),
(328,508,ls),
(329,513,o),
(337,518,o),
(346,518,cs),
(473,518,ls),
(484,518,o),
(492,521,o),
(494,526,cs),
(497,531,o),
(492,535,o),
(480,535,cs),
(293,535,ls),
(274,535,o),
(259,528,o),
(254,518,cs),
(14,-54,ls),
(8,-65,o),
(17,-71,o),
(37,-71,cs)
);
}
);
};
layerId = m002;
shapes = (
{
closed = 1;
nodes = (
(222,-71,ls),
(237,-71,o),
(246,-66,o),
(246,-61,cs),
(246,-56,o),
(240,-54,o),
(229,-54,cs),
(105,-54,ls),
(95,-54,o),
(91,-50,o),
(94,-45,cs),
(328,508,ls),
(331,513,o),
(337,518,o),
(346,518,cs),
(473,518,ls),
(486,518,o),
(496,522,o),
(496,527,cs),
(496,532,o),
(491,535,o),
(478,535,cs),
(293,535,ls),
(274,535,o),
(258,528,o),
(254,518,cs),
(14,-54,ls),
(9,-65,o),
(17,-71,o),
(37,-71,cs)
);
}
);
width = 431;
}
);
unicode = 91;
},
{
glyphname = quoteleft;
kernLeft = quoteleft;
kernRight = quoteleft;
lastChange = "2023-02-22 10:42:32 +0000";
layers = (
{
background = {
shapes = (
{
closed = 1;
nodes = (
(204,406,o),
(228,421,o),
(228,438,cs),
(228,472,o),
(159,465,o),
(159,500,cs),
(159,517,o),
(169,527,o),
(229,556,cs),
(240,561,o),
(239,566,o),
(232,570,cs),
(227,572,o),
(218,571,o),
(208,566,cs),
(125,535,o),
(92,498,o),
(92,455,cs),
(92,425,o),
(121,406,o),
(164,406,cs)
);
}
);
};
layerId = m002;
shapes = (
{
closed = 1;
nodes = (
(251,406,o),
(277,422,o),
(277,440,cs),
(277,467,o),
(231,469,o),
(231,492,cs),
(231,509,o),
(255,532,o),
(325,556,cs),
(335,558,o),
(337,561,o),
(337,564,cs),
(337,571,o),
(325,573,o),
(309,568,cs),
(213,542,o),
(147,493,o),
(147,445,cs),
(147,422,o),
(172,406,o),
(213,406,cs)
);
}
);
width = 220;
}
);
metricLeft = "=|quoteright";
metricRight = "=|quoteright";
unicode = 8216;
},
{
glyphname = quoteright;
kernLeft = quoteright;
kernRight = quoteright;
lastChange = "2022-09-19 13:28:36 +0000";
layers = (
{
background = {
shapes = (
{
closed = 1;
nodes = (
(262,399,o),
(294,435,o),
(294,479,cs),
(294,508,o),
(267,527,o),
(223,527,cs),
(184,527,o),
(160,513,o),
(160,496,cs),
(160,462,o),
(229,468,o),
(229,434,cs),
(229,422,o),
(218,406,o),
(159,378,cs),
(147,373,o),
(148,367,o),
(155,364,cs),
(161,361,o),
(169,363,o),
(179,367,cs)
);
}
);
};
layerId = m002;
shapes = (
{
closed = 1;
nodes = (
(245,392,o),
(310,440,o),
(310,488,cs),
(310,511,o),
(285,527,o),
(245,527,cs),
(206,527,o),
(179,513,o),
(179,494,cs),
(179,467,o),
(227,465,o),
(227,441,cs),
(227,424,o),
(202,401,o),
(132,378,cs),
(123,375,o),
(121,372,o),
(121,369,cs),
(121,363,o),
(132,360,o),
(148,366,cs)
);
}
);
width = 220;
}
);
unicode = 8217;
},
{
glyphname = guilsinglleft;
kernLeft = guilleft;
kernRight = guilleft;
lastChange = "2022-08-23 20:04:35 +0000";
layers = (
{
background = {
shapes = (
{
closed = 1;
nodes = (
(177,60,o),
(183,57,o),
(192,57,cs),
(202,57,o),
(208,62,o),
(206,66,cs),
(160,180,ls),
(158,187,o),
(159,192,o),
(166,196,cs),
(299,295,ls),
(304,299,o),
(302,306,o),
(290,306,cs),
(283,306,o),
(277,306,o),
(263,298,cs),
(90,202,ls),
(76,195,o),
(71,188,o),
(79,178,cs),
(169,70,ls)
);
}
);
};
layerId = m002;
shapes = (
{
closed = 1;
nodes = (
(177,60,o),
(183,57,o),
(192,57,cs),
(202,57,o),
(208,62,o),
(206,66,cs),
(158,177,ls),
(155,184,o),
(156,189,o),
(162,193,cs),
(299,295,ls),
(304,299,o),
(302,306,o),
(290,306,cs),
(283,306,o),
(277,306,o),
(263,298,cs),
(90,202,ls),
(76,195,o),
(71,188,o),
(79,178,cs),
(169,70,ls)
);
}
);
width = 353;
}
);
unicode = 8249;
},
{
glyphname = quotesingle;
kernLeft = quotesingle;
kernRight = quotesingle;
lastChange = "2022-09-01 20:16:30 +0000";
layers = (
{
background = {
shapes = (
{
closed = 1;
nodes = (
(238,354,o),
(245,359,o),
(247,365,cs),
(283,440,o),
(345,461,o),
(345,496,cs),
(345,515,o),
(329,528,o),
(293,528,cs),
(246,528,o),
(223,507,o),
(223,479,cs),
(223,463,o),
(228,447,o),
(228,427,cs),
(228,411,o),
(224,391,o),
(217,368,cs),
(213,359,o),
(220,354,o),
(230,354,cs)
);
}
);
};
layerId = m002;
shapes = (
{
closed = 1;
nodes = (
(238,354,o),
(245,359,o),
(247,365,cs),
(283,440,o),
(345,461,o),
(345,496,cs),
(345,515,o),
(329,528,o),
(293,528,cs),
(246,528,o),
(223,507,o),
(223,479,cs),
(223,431,o),
(235,415,o),
(217,368,cs),
(213,359,o),
(220,354,o),
(230,354,cs)
);
}
);
width = 310;
}
);
unicode = 39;
},
{
glyphname = at;
kernLeft = o;
kernRight = o;
lastChange = "2022-08-23 20:05:05 +0000";
layers = (
{
background = {
shapes = (
{
closed = 1;
nodes = (
(559,-59,o),
(642,-45,o),
(703,-19,cs),
(714,-14,o),
(715,-8,o),
(708,-3,cs),
(703,3,o),
(690,3,o),
(676,-4,cs),
(621,-26,o),
(549,-37,o),
(462,-37,cs),
(256,-37,o),
(145,31,o),
(145,156,cs),
(145,299,o),
(294,400,o),
(508,400,cs),
(672,400,o),
(774,335,o),
(774,233,cs),
(774,149,o),
(690,68,o),
(603,68,cs),
(566,68,o),
(555,88,o),
(573,128,cs),
(645,298,ls),
(650,307,o),
(644,313,o),
(632,313,cs),
(623,313,o),
(614,309,o),
(608,301,cs),
(606,297,o),
(601,296,o),
(598,296,cs),
(592,296,o),
(590,297,o),
(585,301,cs),
(574,311,o),
(552,316,o),
(526,316,cs),
(404,316,o),
(264,206,o),
(264,109,cs),
(264,68,o),
(290,46,o),
(336,46,cs),
(390,46,o),
(447,76,o),
(511,139,cs),
(514,143,o),
(522,142,o),
(520,138,cs),
(515,128,ls),
(492,77,o),
(521,46,o),
(590,46,cs),
(713,46,o),
(826,133,o),
(826,230,cs),
(826,343,o),
(699,419,o),
(513,419,cs),
(271,419,o),
(59,297,o),
(59,157,cs),
(59,32,o),
(206,-59,o),
(466,-59,cs)
);
},
{
closed = 1;
nodes = (
(342,72,o),
(334,81,o),
(334,104,cs),
(334,186,o),
(439,297,o),
(520,297,cs),
(545,297,o),
(559,286,o),
(559,267,cs),
(559,201,o),
(427,72,o),
(360,72,cs)
);
}
);
};
layerId = m002;
shapes = (
{
closed = 1;
nodes = (
(501,-59,o),
(562,-51,o),
(615,-35,cs),
(626,-31,o),
(632,-26,o),
(628,-20,cs),
(621,-12,o),
(608,-14,o),
(596,-18,cs),
(550,-31,o),
(497,-37,o),
(439,-37,cs),
(263,-37,o),
(126,11,o),
(126,123,cs),
(126,238,o),
(273,400,o),
(549,400,cs),
(711,400,o),
(800,354,o),
(800,259,cs),
(800,185,o),
(697,67,o),
(573,67,cs),
(521,67,o),
(519,89,o),
(549,124,cs),
(690,287,ls),
(697,295,o),
(696,303,o),
(681,303,cs),
(673,303,o),
(662,300,o),
(654,292,cs),
(651,289,o),
(649,288,o),
(644,288,cs),
(638,288,o),
(636,291,o),
(632,294,cs),
(621,305,o),
(593,315,o),
(565,315,cs),
(422,315,o),
(232,171,o),
(232,86,cs),
(232,60,o),
(256,46,o),
(293,46,cs),
(355,46,o),
(432,87,o),
(499,139,cs),
(504,144,o),
(513,142,o),
(508,138,cs),
(483,112,o),
(477,99,o),
(477,87,cs),
(477,60,o),
(512,46,o),
(562,46,cs),
(726,46,o),
(850,178,o),
(850,263,cs),
(850,359,o),
(733,419,o),
(555,419,cs),
(301,419,o),
(45,296,o),
(45,133,cs),
(45,12,o),
(221,-59,o),
(435,-59,cs)
);
},
{
closed = 1;
nodes = (
(307,71,o),
(299,75,o),
(299,84,cs),
(299,139,o),
(452,296,o),
(553,296,cs),
(589,296,o),
(592,282,o),
(584,263,cs),
(559,199,o),
(391,71,o),
(321,71,cs)
);
}
);
width = 880;
}
);
metricLeft = O;
metricRight = O;
unicode = 64;
},
{
glyphname = ampersand;
lastChange = "2022-08-27 16:49:40 +0000";
layers = (
{
background = {
shapes = (
{
closed = 1;
nodes = (
(25,150,ls),
(25,82,o),
(97,-12,o),
(275,-12,cs),
(365,-12,o),
(443,9,o),
(500,41,cs),
(557,72,o),
(591,113,o),
(591,155,cs),
(591,172,o),
(588,186,o),
(583,196,c),
(588,196,o),
(596,195,o),
(601,195,cs),
(660,195,o),
(713,229,o),
(713,267,cs),
(713,283,o),
(712,284,o),
(705,284,cs),
(697,284,o),
(695,275,o),
(688,265,cs),
(672,241,o),
(645,239,o),
(540,239,cs),
(451,239,o),
(393,222,o),
(359,201,cs),
(332,184,o),
(320,167,o),
(320,154,cs),
(320,148,o),
(321,146,o),
(327,146,cs),
(340,146,o),
(376,207,o),
(470,207,cs),
(528,207,o),
(554,185,o),
(554,154,cs),
(554,87,o),
(442,17,o),
(320,17,cs),
(206,17,o),
(121,79,o),
(121,161,cs),
(121,221,o),
(182,287,o),
(285,307,c),
(308,298,o),
(340,293,o),
(368,293,cs),
(400,293,o),
(414,300,o),
(414,309,cs),
(414,323,o),
(390,330,o),
(337,330,cs),
(324,330,o),
(308,328,o),
(293,327,c),
(270,344,o),
(261,365,o),
(261,382,cs),
(261,445,o),
(346,486,o),
(417,486,cs),
(466,486,o),
(512,471,o),
(521,439,cs),
(529,411,o),
(521,386,o),
(545,386,cs),
(565,386,o),
(570,411,o),
(576,428,cs),
(582,442,o),
(591,468,o),
(591,484,cs),
(591,490,o),
(554,527,o),
(455,527,cs),
(327,527,o),
(223,468,o),
(223,394,cs),
(223,369,o),
(236,343,o),
(261,323,c),
(129,306,o),
(25,242,o),
(25,151,cs)
);
}
);
};
layerId = m002;
shapes = (
{
closed = 1;
nodes = (
(468,-7,o),
(596,62,o),
(596,155,cs),
(596,180,o),
(585,201,o),
(567,214,c),
(539,200,l),
(637,181,o),
(713,211,o),
(713,261,cs),
(713,293,o),
(682,315,o),
(632,315,cs),
(593,315,o),
(572,303,o),
(572,286,cs),
(572,252,o),
(667,263,o),
(667,239,cs),
(667,226,o),
(638,223,o),
(581,228,cs),
(539,231,ls),
(420,242,o),
(323,207,o),
(323,154,cs),
(323,122,o),
(353,101,o),
(400,101,cs),
(438,101,o),
(462,112,o),
(462,129,cs),
(462,167,o),
(376,149,o),
(376,177,cs),
(376,193,o),
(406,206,o),
(458,206,cs),
(523,206,o),
(555,188,o),
(555,150,cs),
(555,76,o),
(450,17,o),
(319,17,cs),
(194,17,o),
(121,69,o),
(121,157,cs),
(121,248,o),
(193,301,o),
(331,313,c),
(324,320,l),
(285,330,o),
(262,358,o),
(262,391,cs),
(262,450,o),
(335,496,o),
(430,496,cs),
(505,496,o),
(536,467,o),
(542,387,cs),
(544,371,ls),
(545,363,o),
(550,359,o),
(561,359,cs),
(570,359,o),
(576,363,o),
(580,370,cs),
(616,475,ls),
(620,487,o),
(618,492,o),
(603,499,cs),
(568,517,o),
(513,527,o),
(458,527,cs),
(325,527,o),
(222,469,o),
(222,394,cs),
(222,337,o),
(283,293,o),
(363,293,cs),
(396,293,o),
(414,300,o),
(414,311,cs),
(414,323,o),
(389,330,o),
(344,330,cs),
(172,330,o),
(25,243,o),
(25,142,cs),
(25,54,o),
(133,-7,o),
(294,-7,cs)
);
}
);
width = 695;
}
);
unicode = 38;
},
{
glyphname = paragraph;
lastChange = "2022-08-13 19:12:03 +0000";
layers = (
{
layerId = m002;
shapes = (
{
closed = 1;
nodes = (
(271,-94,ls),
(282,-94,o),
(290,-92,o),
(292,-85,cs),
(531,481,ls),
(536,492,o),
(550,498,o),
(570,498,cs),
(600,498,ls),
(621,498,o),
(629,490,o),
(626,481,cs),
(388,-83,ls),
(385,-89,o),
(391,-94,o),
(404,-94,cs),
(438,-94,ls),
(448,-94,o),
(457,-92,o),
(459,-85,cs),
(695,473,ls),
(703,493,o),
(713,497,o),
(751,501,cs),
(783,503,ls),
(796,505,o),
(804,508,o),
(804,513,cs),
(804,518,o),
(799,520,o),
(787,520,cs),
(470,520,ls),
(246,520,o),
(113,441,o),
(113,354,cs),
(113,284,o),
(194,235,o),
(320,235,cs),
(336,235,ls),
(351,235,o),
(353,232,o),
(351,225,cs),
(221,-83,ls),
(218,-89,o),
(224,-94,o),
(237,-94,cs)
);
}
);
width = 691;
}
);
metricLeft = "=|P";
metricRight = "=|P";
unicode = 182;
},
{
glyphname = section;
lastChange = "2022-08-14 16:25:16 +0000";
layers = (
{
background = {
shapes = (
{
closed = 1;
nodes = (
(350,-94,o),
(425,-59,o),
(425,-6,cs),
(425,29,o),
(391,60,o),
(328,98,cs),
(320,103,o),
(323,107,o),
(335,109,cs),
(415,119,o),
(474,156,o),
(474,207,cs),
(474,253,o),
(423,295,o),
(324,346,cs),
(220,400,o),
(191,428,o),
(191,462,cs),
(191,488,o),
(229,507,o),
(279,507,cs),
(332,507,o),
(367,486,o),
(405,423,cs),
(408,416,o),
(413,411,o),
(425,411,cs),
(435,411,o),
(443,416,o),
(443,422,cs),
(440,502,ls),
(440,508,o),
(435,511,o),
(427,513,cs),
(399,523,o),
(362,527,o),
(324,527,cs),
(194,527,o),
(117,493,o),
(117,440,cs),
(117,405,o),
(152,373,o),
(215,337,cs),
(223,332,o),
(221,327,o),
(209,326,cs),
(129,315,o),
(70,279,o),
(70,228,cs),
(70,180,o),
(121,139,o),
(220,88,cs),
(324,35,o),
(353,7,o),
(353,-27,cs),
(353,-54,o),
(315,-73,o),
(264,-73,cs),
(212,-73,o),
(177,-52,o),
(139,11,cs),
(135,17,o),
(131,22,o),
(117,22,cs),
(108,22,o),
(100,19,o),
(100,12,cs),
(103,-68,ls),
(103,-74,o),
(108,-76,o),
(116,-80,cs),
(144,-89,o),
(182,-94,o),
(220,-94,cs)
);
},
{
closed = 1;
nodes = (
(289,122,o),
(276,126,o),
(264,133,cs),
(177,181,o),
(143,213,o),
(143,249,cs),
(143,283,o),
(178,305,o),
(238,310,cs),
(255,311,o),
(267,309,o),
(279,301,cs),
(367,253,o),
(400,221,o),
(400,185,cs),
(400,151,o),
(363,128,o),
(306,124,cs)
);
}
);
};
layerId = m002;
shapes = (
{
closed = 1;
nodes = (
(255,-88,o),
(335,-50,o),
(335,7,cs),
(335,34,o),
(315,62,o),
(277,94,cs),
(271,99,o),
(276,104,o),
(289,105,cs),
(396,110,o),
(469,160,o),
(469,218,cs),
(469,256,o),
(438,294,o),
(376,341,cs),
(314,388,o),
(289,418,o),
(289,445,cs),
(289,474,o),
(317,504,o),
(384,504,cs),
(446,504,o),
(475,483,o),
(486,411,cs),
(488,404,o),
(491,398,o),
(505,398,cs),
(513,398,o),
(521,401,o),
(523,407,cs),
(554,486,ls),
(557,492,o),
(553,496,o),
(546,499,cs),
(509,518,o),
(446,523,o),
(402,523,cs),
(289,523,o),
(209,484,o),
(209,428,cs),
(209,400,o),
(229,372,o),
(266,340,cs),
(273,335,o),
(267,330,o),
(255,330,cs),
(148,324,o),
(74,275,o),
(74,216,cs),
(74,178,o),
(106,140,o),
(168,94,cs),
(230,46,o),
(255,16,o),
(255,-10,cs),
(255,-40,o),
(227,-70,o),
(160,-70,cs),
(98,-70,o),
(69,-48,o),
(56,23,cs),
(55,31,o),
(53,36,o),
(38,36,cs),
(30,36,o),
(23,33,o),
(20,26,cs),
(-8,-72,ls),
(-10,-80,o),
(-7,-85,o),
(-2,-90,cs),
(34,-83,o),
(98,-88,o),
(141,-88,cs)
);
},
{
closed = 1;
nodes = (
(248,122,o),
(238,127,o),
(230,134,cs),
(177,178,o),
(155,208,o),
(155,237,cs),
(155,272,o),
(187,311,o),
(277,311,cs),
(294,311,o),
(306,308,o),
(314,300,cs),
(367,257,o),
(389,226,o),
(389,197,cs),
(389,163,o),
(354,122,o),
(266,122,cs)
);
}
);
width = 501;
}
);
metricLeft = S;
metricRight = S;
unicode = 167;
},
{
glyphname = copyright;
lastChange = "2022-08-14 16:28:39 +0000";
layers = (
{
layerId = m002;
shapes = (
{
closed = 1;
nodes = (
(867,-11,o),
(1090,110,o),
(1090,260,cs),
(1090,410,o),
(867,531,o),
(593,531,cs),
(320,531,o),
(98,410,o),
(98,260,cs),
(98,110,o),
(320,-11,o),
(593,-11,cs)
);
},
{
closed = 1;
nodes = (
(350,17,o),
(151,127,o),
(151,260,cs),
(151,394,o),
(350,503,o),
(593,503,cs),
(838,503,o),
(1037,394,o),
(1037,260,cs),
(1037,127,o),
(838,17,o),
(593,17,cs)
);
},
{
closed = 1;
nodes = (
(670,103,o),
(714,108,o),
(750,116,cs),
(759,118,o),
(764,121,o),
(764,126,cs),
(767,201,ls),
(767,210,o),
(760,214,o),
(750,214,cs),
(739,214,o),
(734,211,o),
(729,200,cs),
(720,183,ls),
(691,131,o),
(656,117,o),
(599,117,cs),
(514,117,o),
(429,175,o),
(429,263,cs),
(429,347,o),
(504,405,o),
(598,405,cs),
(649,405,o),
(684,390,o),
(712,338,cs),
(721,320,ls),
(726,310,o),
(731,306,o),
(742,306,cs),
(752,306,o),
(759,311,o),
(759,320,cs),
(756,395,ls),
(756,400,o),
(751,402,o),
(742,405,cs),
(706,413,o),
(662,418,o),
(606,418,cs),
(458,418,o),
(340,348,o),
(340,263,cs),
(340,173,o),
(444,103,o),
(601,103,cs)
);
}
);
width = 1124;
}
);
metricLeft = O;
metricRight = O;
unicode = 169;
},
